<?xml version="1.0" encoding="utf-8" standalone="no"?>
<!DOCTYPE svg PUBLIC "-//W3C//DTD SVG 1.1//EN"
  "http://www.w3.org/Graphics/SVG/1.1/DTD/svg11.dtd">
<!-- Created with matplotlib (https://matplotlib.org/) -->
<svg height="216pt" version="1.1" viewBox="0 0 517.225 216" width="517.225pt" xmlns="http://www.w3.org/2000/svg" xmlns:xlink="http://www.w3.org/1999/xlink">
 <defs>
  <style type="text/css">
*{stroke-linecap:butt;stroke-linejoin:round;}
  </style>
 </defs>
 <g id="figure_1">
  <g id="patch_1">
   <path d="M 0 216 
L 517.225 216 
L 517.225 0 
L 0 0 
z
" style="fill:#ffffff;"/>
  </g>
  <g id="axes_1">
   <g id="patch_2">
    <path d="M 80.375658 169.54 
L 241.102078 169.54 
L 241.102078 26.96 
L 80.375658 26.96 
z
" style="fill:#eaeaf2;"/>
   </g>
   <g id="matplotlib.axis_1">
    <g id="xtick_1">
     <g id="line2d_1">
      <path clip-path="url(#ped054dcc7a)" d="M 89.134726 169.54 
L 89.134726 26.96 
" style="fill:none;stroke:#ffffff;stroke-linecap:round;"/>
     </g>
     <g id="text_1">
      <!-- 0 -->
      <defs>
       <path d="M 4.15625 35.296875 
Q 4.15625 48 6.765625 55.734375 
Q 9.375 63.484375 14.515625 67.671875 
Q 19.671875 71.875 27.484375 71.875 
Q 33.25 71.875 37.59375 69.546875 
Q 41.9375 67.234375 44.765625 62.859375 
Q 47.609375 58.5 49.21875 52.21875 
Q 50.828125 45.953125 50.828125 35.296875 
Q 50.828125 22.703125 48.234375 14.96875 
Q 45.65625 7.234375 40.5 3 
Q 35.359375 -1.21875 27.484375 -1.21875 
Q 17.140625 -1.21875 11.234375 6.203125 
Q 4.15625 15.140625 4.15625 35.296875 
z
M 13.1875 35.296875 
Q 13.1875 17.671875 17.3125 11.828125 
Q 21.4375 6 27.484375 6 
Q 33.546875 6 37.671875 11.859375 
Q 41.796875 17.71875 41.796875 35.296875 
Q 41.796875 52.984375 37.671875 58.78125 
Q 33.546875 64.59375 27.390625 64.59375 
Q 21.34375 64.59375 17.71875 59.46875 
Q 13.1875 52.9375 13.1875 35.296875 
z
" id="ArialMT-48"/>
      </defs>
      <g style="fill:#262626;" transform="translate(86.07621 186.913594)scale(0.11 -0.11)">
       <use xlink:href="#ArialMT-48"/>
      </g>
     </g>
    </g>
    <g id="xtick_2">
     <g id="line2d_2">
      <path clip-path="url(#ped054dcc7a)" d="M 160.029916 169.54 
L 160.029916 26.96 
" style="fill:none;stroke:#ffffff;stroke-linecap:round;"/>
     </g>
     <g id="text_2">
      <!-- 50 -->
      <defs>
       <path d="M 4.15625 18.75 
L 13.375 19.53125 
Q 14.40625 12.796875 18.140625 9.390625 
Q 21.875 6 27.15625 6 
Q 33.5 6 37.890625 10.78125 
Q 42.28125 15.578125 42.28125 23.484375 
Q 42.28125 31 38.0625 35.34375 
Q 33.84375 39.703125 27 39.703125 
Q 22.75 39.703125 19.328125 37.765625 
Q 15.921875 35.84375 13.96875 32.765625 
L 5.71875 33.84375 
L 12.640625 70.609375 
L 48.25 70.609375 
L 48.25 62.203125 
L 19.671875 62.203125 
L 15.828125 42.96875 
Q 22.265625 47.46875 29.34375 47.46875 
Q 38.71875 47.46875 45.15625 40.96875 
Q 51.609375 34.46875 51.609375 24.265625 
Q 51.609375 14.546875 45.953125 7.46875 
Q 39.0625 -1.21875 27.15625 -1.21875 
Q 17.390625 -1.21875 11.203125 4.25 
Q 5.03125 9.71875 4.15625 18.75 
z
" id="ArialMT-53"/>
      </defs>
      <g style="fill:#262626;" transform="translate(153.912885 186.913594)scale(0.11 -0.11)">
       <use xlink:href="#ArialMT-53"/>
       <use x="55.615234" xlink:href="#ArialMT-48"/>
      </g>
     </g>
    </g>
    <g id="xtick_3">
     <g id="line2d_3">
      <path clip-path="url(#ped054dcc7a)" d="M 230.925106 169.54 
L 230.925106 26.96 
" style="fill:none;stroke:#ffffff;stroke-linecap:round;"/>
     </g>
     <g id="text_3">
      <!-- 100 -->
      <defs>
       <path d="M 37.25 0 
L 28.46875 0 
L 28.46875 56 
Q 25.296875 52.984375 20.140625 49.953125 
Q 14.984375 46.921875 10.890625 45.40625 
L 10.890625 53.90625 
Q 18.265625 57.375 23.78125 62.296875 
Q 29.296875 67.234375 31.59375 71.875 
L 37.25 71.875 
z
" id="ArialMT-49"/>
      </defs>
      <g style="fill:#262626;" transform="translate(221.749559 186.913594)scale(0.11 -0.11)">
       <use xlink:href="#ArialMT-49"/>
       <use x="55.615234" xlink:href="#ArialMT-48"/>
       <use x="111.230469" xlink:href="#ArialMT-48"/>
      </g>
     </g>
    </g>
    <g id="text_4">
     <!-- batch_size -->
     <defs>
      <path d="M 14.703125 0 
L 6.546875 0 
L 6.546875 71.578125 
L 15.328125 71.578125 
L 15.328125 46.046875 
Q 20.90625 53.03125 29.546875 53.03125 
Q 34.328125 53.03125 38.59375 51.09375 
Q 42.875 49.171875 45.625 45.671875 
Q 48.390625 42.1875 49.953125 37.25 
Q 51.515625 32.328125 51.515625 26.703125 
Q 51.515625 13.375 44.921875 6.09375 
Q 38.328125 -1.171875 29.109375 -1.171875 
Q 19.921875 -1.171875 14.703125 6.5 
z
M 14.59375 26.3125 
Q 14.59375 17 17.140625 12.84375 
Q 21.296875 6.0625 28.375 6.0625 
Q 34.125 6.0625 38.328125 11.0625 
Q 42.53125 16.0625 42.53125 25.984375 
Q 42.53125 36.140625 38.5 40.96875 
Q 34.46875 45.796875 28.765625 45.796875 
Q 23 45.796875 18.796875 40.796875 
Q 14.59375 35.796875 14.59375 26.3125 
z
" id="ArialMT-98"/>
      <path d="M 40.4375 6.390625 
Q 35.546875 2.25 31.03125 0.53125 
Q 26.515625 -1.171875 21.34375 -1.171875 
Q 12.796875 -1.171875 8.203125 3 
Q 3.609375 7.171875 3.609375 13.671875 
Q 3.609375 17.484375 5.34375 20.625 
Q 7.078125 23.78125 9.890625 25.6875 
Q 12.703125 27.59375 16.21875 28.5625 
Q 18.796875 29.25 24.03125 29.890625 
Q 34.671875 31.15625 39.703125 32.90625 
Q 39.75 34.71875 39.75 35.203125 
Q 39.75 40.578125 37.25 42.78125 
Q 33.890625 45.75 27.25 45.75 
Q 21.046875 45.75 18.09375 43.578125 
Q 15.140625 41.40625 13.71875 35.890625 
L 5.125 37.0625 
Q 6.296875 42.578125 8.984375 45.96875 
Q 11.671875 49.359375 16.75 51.1875 
Q 21.828125 53.03125 28.515625 53.03125 
Q 35.15625 53.03125 39.296875 51.46875 
Q 43.453125 49.90625 45.40625 47.53125 
Q 47.359375 45.171875 48.140625 41.546875 
Q 48.578125 39.3125 48.578125 33.453125 
L 48.578125 21.734375 
Q 48.578125 9.46875 49.140625 6.21875 
Q 49.703125 2.984375 51.375 0 
L 42.1875 0 
Q 40.828125 2.734375 40.4375 6.390625 
z
M 39.703125 26.03125 
Q 34.90625 24.078125 25.34375 22.703125 
Q 19.921875 21.921875 17.671875 20.9375 
Q 15.4375 19.96875 14.203125 18.09375 
Q 12.984375 16.21875 12.984375 13.921875 
Q 12.984375 10.40625 15.640625 8.0625 
Q 18.3125 5.71875 23.4375 5.71875 
Q 28.515625 5.71875 32.46875 7.9375 
Q 36.421875 10.15625 38.28125 14.015625 
Q 39.703125 17 39.703125 22.796875 
z
" id="ArialMT-97"/>
      <path d="M 25.78125 7.859375 
L 27.046875 0.09375 
Q 23.34375 -0.6875 20.40625 -0.6875 
Q 15.625 -0.6875 12.984375 0.828125 
Q 10.359375 2.34375 9.28125 4.8125 
Q 8.203125 7.28125 8.203125 15.1875 
L 8.203125 45.015625 
L 1.765625 45.015625 
L 1.765625 51.859375 
L 8.203125 51.859375 
L 8.203125 64.703125 
L 16.9375 69.96875 
L 16.9375 51.859375 
L 25.78125 51.859375 
L 25.78125 45.015625 
L 16.9375 45.015625 
L 16.9375 14.703125 
Q 16.9375 10.9375 17.40625 9.859375 
Q 17.875 8.796875 18.921875 8.15625 
Q 19.96875 7.515625 21.921875 7.515625 
Q 23.390625 7.515625 25.78125 7.859375 
z
" id="ArialMT-116"/>
      <path d="M 40.4375 19 
L 49.078125 17.875 
Q 47.65625 8.9375 41.8125 3.875 
Q 35.984375 -1.171875 27.484375 -1.171875 
Q 16.84375 -1.171875 10.375 5.78125 
Q 3.90625 12.75 3.90625 25.734375 
Q 3.90625 34.125 6.6875 40.421875 
Q 9.46875 46.734375 15.15625 49.875 
Q 20.84375 53.03125 27.546875 53.03125 
Q 35.984375 53.03125 41.359375 48.75 
Q 46.734375 44.484375 48.25 36.625 
L 39.703125 35.296875 
Q 38.484375 40.53125 35.375 43.15625 
Q 32.28125 45.796875 27.875 45.796875 
Q 21.234375 45.796875 17.078125 41.03125 
Q 12.9375 36.28125 12.9375 25.984375 
Q 12.9375 15.53125 16.9375 10.796875 
Q 20.953125 6.0625 27.390625 6.0625 
Q 32.5625 6.0625 36.03125 9.234375 
Q 39.5 12.40625 40.4375 19 
z
" id="ArialMT-99"/>
      <path d="M 6.59375 0 
L 6.59375 71.578125 
L 15.375 71.578125 
L 15.375 45.90625 
Q 21.53125 53.03125 30.90625 53.03125 
Q 36.671875 53.03125 40.921875 50.75 
Q 45.171875 48.484375 47 44.484375 
Q 48.828125 40.484375 48.828125 32.859375 
L 48.828125 0 
L 40.046875 0 
L 40.046875 32.859375 
Q 40.046875 39.453125 37.1875 42.453125 
Q 34.328125 45.453125 29.109375 45.453125 
Q 25.203125 45.453125 21.75 43.421875 
Q 18.3125 41.40625 16.84375 37.9375 
Q 15.375 34.46875 15.375 28.375 
L 15.375 0 
z
" id="ArialMT-104"/>
      <path d="M -1.515625 -19.875 
L -1.515625 -13.53125 
L 56.734375 -13.53125 
L 56.734375 -19.875 
z
" id="ArialMT-95"/>
      <path d="M 3.078125 15.484375 
L 11.765625 16.84375 
Q 12.5 11.625 15.84375 8.84375 
Q 19.1875 6.0625 25.203125 6.0625 
Q 31.25 6.0625 34.171875 8.515625 
Q 37.109375 10.984375 37.109375 14.3125 
Q 37.109375 17.28125 34.515625 19 
Q 32.71875 20.171875 25.53125 21.96875 
Q 15.875 24.421875 12.140625 26.203125 
Q 8.40625 27.984375 6.46875 31.125 
Q 4.546875 34.28125 4.546875 38.09375 
Q 4.546875 41.546875 6.125 44.5 
Q 7.71875 47.46875 10.453125 49.421875 
Q 12.5 50.921875 16.03125 51.96875 
Q 19.578125 53.03125 23.640625 53.03125 
Q 29.734375 53.03125 34.34375 51.265625 
Q 38.96875 49.515625 41.15625 46.5 
Q 43.359375 43.5 44.1875 38.484375 
L 35.59375 37.3125 
Q 35.015625 41.3125 32.203125 43.546875 
Q 29.390625 45.796875 24.265625 45.796875 
Q 18.21875 45.796875 15.625 43.796875 
Q 13.03125 41.796875 13.03125 39.109375 
Q 13.03125 37.40625 14.109375 36.03125 
Q 15.1875 34.625 17.484375 33.6875 
Q 18.796875 33.203125 25.25 31.453125 
Q 34.578125 28.953125 38.25 27.359375 
Q 41.9375 25.78125 44.03125 22.75 
Q 46.140625 19.734375 46.140625 15.234375 
Q 46.140625 10.84375 43.578125 6.953125 
Q 41.015625 3.078125 36.171875 0.953125 
Q 31.34375 -1.171875 25.25 -1.171875 
Q 15.140625 -1.171875 9.84375 3.03125 
Q 4.546875 7.234375 3.078125 15.484375 
z
" id="ArialMT-115"/>
      <path d="M 6.640625 61.46875 
L 6.640625 71.578125 
L 15.4375 71.578125 
L 15.4375 61.46875 
z
M 6.640625 0 
L 6.640625 51.859375 
L 15.4375 51.859375 
L 15.4375 0 
z
" id="ArialMT-105"/>
      <path d="M 1.953125 0 
L 1.953125 7.125 
L 34.96875 45.015625 
Q 29.34375 44.734375 25.046875 44.734375 
L 3.90625 44.734375 
L 3.90625 51.859375 
L 46.296875 51.859375 
L 46.296875 46.046875 
L 18.21875 13.140625 
L 12.796875 7.125 
Q 18.703125 7.5625 23.875 7.5625 
L 47.859375 7.5625 
L 47.859375 0 
z
" id="ArialMT-122"/>
      <path d="M 42.09375 16.703125 
L 51.171875 15.578125 
Q 49.03125 7.625 43.21875 3.21875 
Q 37.40625 -1.171875 28.375 -1.171875 
Q 17 -1.171875 10.328125 5.828125 
Q 3.65625 12.84375 3.65625 25.484375 
Q 3.65625 38.578125 10.390625 45.796875 
Q 17.140625 53.03125 27.875 53.03125 
Q 38.28125 53.03125 44.875 45.953125 
Q 51.46875 38.875 51.46875 26.03125 
Q 51.46875 25.25 51.421875 23.6875 
L 12.75 23.6875 
Q 13.234375 15.140625 17.578125 10.59375 
Q 21.921875 6.0625 28.421875 6.0625 
Q 33.25 6.0625 36.671875 8.59375 
Q 40.09375 11.140625 42.09375 16.703125 
z
M 13.234375 30.90625 
L 42.1875 30.90625 
Q 41.609375 37.453125 38.875 40.71875 
Q 34.671875 45.796875 27.984375 45.796875 
Q 21.921875 45.796875 17.796875 41.75 
Q 13.671875 37.703125 13.234375 30.90625 
z
" id="ArialMT-101"/>
     </defs>
     <g style="fill:#262626;" transform="translate(132.056055 201.689219)scale(0.12 -0.12)">
      <use xlink:href="#ArialMT-98"/>
      <use x="55.615234" xlink:href="#ArialMT-97"/>
      <use x="111.230469" xlink:href="#ArialMT-116"/>
      <use x="139.013672" xlink:href="#ArialMT-99"/>
      <use x="189.013672" xlink:href="#ArialMT-104"/>
      <use x="244.628906" xlink:href="#ArialMT-95"/>
      <use x="300.244141" xlink:href="#ArialMT-115"/>
      <use x="350.244141" xlink:href="#ArialMT-105"/>
      <use x="372.460938" xlink:href="#ArialMT-122"/>
      <use x="422.460938" xlink:href="#ArialMT-101"/>
     </g>
    </g>
   </g>
   <g id="matplotlib.axis_2">
    <g id="ytick_1">
     <g id="line2d_4">
      <path clip-path="url(#ped054dcc7a)" d="M 80.375658 161.382779 
L 241.102078 161.382779 
" style="fill:none;stroke:#ffffff;stroke-linecap:round;"/>
     </g>
     <g id="text_5">
      <!-- 0 -->
      <g style="fill:#262626;" transform="translate(64.758626 165.319576)scale(0.11 -0.11)">
       <use xlink:href="#ArialMT-48"/>
      </g>
     </g>
    </g>
    <g id="ytick_2">
     <g id="line2d_5">
      <path clip-path="url(#ped054dcc7a)" d="M 80.375658 132.866253 
L 241.102078 132.866253 
" style="fill:none;stroke:#ffffff;stroke-linecap:round;"/>
     </g>
     <g id="text_6">
      <!-- 2500 -->
      <defs>
       <path d="M 50.34375 8.453125 
L 50.34375 0 
L 3.03125 0 
Q 2.9375 3.171875 4.046875 6.109375 
Q 5.859375 10.9375 9.828125 15.625 
Q 13.8125 20.3125 21.34375 26.46875 
Q 33.015625 36.03125 37.109375 41.625 
Q 41.21875 47.21875 41.21875 52.203125 
Q 41.21875 57.421875 37.46875 61 
Q 33.734375 64.59375 27.734375 64.59375 
Q 21.390625 64.59375 17.578125 60.78125 
Q 13.765625 56.984375 13.71875 50.25 
L 4.6875 51.171875 
Q 5.609375 61.28125 11.65625 66.578125 
Q 17.71875 71.875 27.9375 71.875 
Q 38.234375 71.875 44.234375 66.15625 
Q 50.25 60.453125 50.25 52 
Q 50.25 47.703125 48.484375 43.546875 
Q 46.734375 39.40625 42.65625 34.8125 
Q 38.578125 30.21875 29.109375 22.21875 
Q 21.1875 15.578125 18.9375 13.203125 
Q 16.703125 10.84375 15.234375 8.453125 
z
" id="ArialMT-50"/>
      </defs>
      <g style="fill:#262626;" transform="translate(46.407533 136.80305)scale(0.11 -0.11)">
       <use xlink:href="#ArialMT-50"/>
       <use x="55.615234" xlink:href="#ArialMT-53"/>
       <use x="111.230469" xlink:href="#ArialMT-48"/>
       <use x="166.845703" xlink:href="#ArialMT-48"/>
      </g>
     </g>
    </g>
    <g id="ytick_3">
     <g id="line2d_6">
      <path clip-path="url(#ped054dcc7a)" d="M 80.375658 104.349727 
L 241.102078 104.349727 
" style="fill:none;stroke:#ffffff;stroke-linecap:round;"/>
     </g>
     <g id="text_7">
      <!-- 5000 -->
      <g style="fill:#262626;" transform="translate(46.407533 108.286524)scale(0.11 -0.11)">
       <use xlink:href="#ArialMT-53"/>
       <use x="55.615234" xlink:href="#ArialMT-48"/>
       <use x="111.230469" xlink:href="#ArialMT-48"/>
       <use x="166.845703" xlink:href="#ArialMT-48"/>
      </g>
     </g>
    </g>
    <g id="ytick_4">
     <g id="line2d_7">
      <path clip-path="url(#ped054dcc7a)" d="M 80.375658 75.833201 
L 241.102078 75.833201 
" style="fill:none;stroke:#ffffff;stroke-linecap:round;"/>
     </g>
     <g id="text_8">
      <!-- 7500 -->
      <defs>
       <path d="M 4.734375 62.203125 
L 4.734375 70.65625 
L 51.078125 70.65625 
L 51.078125 63.8125 
Q 44.234375 56.546875 37.515625 44.484375 
Q 30.8125 32.421875 27.15625 19.671875 
Q 24.515625 10.6875 23.78125 0 
L 14.75 0 
Q 14.890625 8.453125 18.0625 20.40625 
Q 21.234375 32.375 27.171875 43.484375 
Q 33.109375 54.59375 39.796875 62.203125 
z
" id="ArialMT-55"/>
      </defs>
      <g style="fill:#262626;" transform="translate(46.407533 79.769998)scale(0.11 -0.11)">
       <use xlink:href="#ArialMT-55"/>
       <use x="55.615234" xlink:href="#ArialMT-53"/>
       <use x="111.230469" xlink:href="#ArialMT-48"/>
       <use x="166.845703" xlink:href="#ArialMT-48"/>
      </g>
     </g>
    </g>
    <g id="ytick_5">
     <g id="line2d_8">
      <path clip-path="url(#ped054dcc7a)" d="M 80.375658 47.316675 
L 241.102078 47.316675 
" style="fill:none;stroke:#ffffff;stroke-linecap:round;"/>
     </g>
     <g id="text_9">
      <!-- 10000 -->
      <g style="fill:#262626;" transform="translate(40.290501 51.253472)scale(0.11 -0.11)">
       <use xlink:href="#ArialMT-49"/>
       <use x="55.615234" xlink:href="#ArialMT-48"/>
       <use x="111.230469" xlink:href="#ArialMT-48"/>
       <use x="166.845703" xlink:href="#ArialMT-48"/>
       <use x="222.460938" xlink:href="#ArialMT-48"/>
      </g>
     </g>
    </g>
    <g id="text_10">
     <!-- latency -->
     <defs>
      <path d="M 6.390625 0 
L 6.390625 71.578125 
L 15.1875 71.578125 
L 15.1875 0 
z
" id="ArialMT-108"/>
      <path d="M 6.59375 0 
L 6.59375 51.859375 
L 14.5 51.859375 
L 14.5 44.484375 
Q 20.21875 53.03125 31 53.03125 
Q 35.6875 53.03125 39.625 51.34375 
Q 43.5625 49.65625 45.515625 46.921875 
Q 47.46875 44.1875 48.25 40.4375 
Q 48.734375 37.984375 48.734375 31.890625 
L 48.734375 0 
L 39.9375 0 
L 39.9375 31.546875 
Q 39.9375 36.921875 38.90625 39.578125 
Q 37.890625 42.234375 35.28125 43.8125 
Q 32.671875 45.40625 29.15625 45.40625 
Q 23.53125 45.40625 19.453125 41.84375 
Q 15.375 38.28125 15.375 28.328125 
L 15.375 0 
z
" id="ArialMT-110"/>
      <path d="M 6.203125 -19.96875 
L 5.21875 -11.71875 
Q 8.109375 -12.5 10.25 -12.5 
Q 13.1875 -12.5 14.9375 -11.515625 
Q 16.703125 -10.546875 17.828125 -8.796875 
Q 18.65625 -7.46875 20.515625 -2.25 
Q 20.75 -1.515625 21.296875 -0.09375 
L 1.609375 51.859375 
L 11.078125 51.859375 
L 21.875 21.828125 
Q 23.96875 16.109375 25.640625 9.8125 
Q 27.15625 15.875 29.25 21.625 
L 40.328125 51.859375 
L 49.125 51.859375 
L 29.390625 -0.875 
Q 26.21875 -9.421875 24.46875 -12.640625 
Q 22.125 -17 19.09375 -19.015625 
Q 16.0625 -21.046875 11.859375 -21.046875 
Q 9.328125 -21.046875 6.203125 -19.96875 
z
" id="ArialMT-121"/>
     </defs>
     <g style="fill:#262626;" transform="translate(33.764876 117.259687)rotate(-90)scale(0.12 -0.12)">
      <use xlink:href="#ArialMT-108"/>
      <use x="22.216797" xlink:href="#ArialMT-97"/>
      <use x="77.832031" xlink:href="#ArialMT-116"/>
      <use x="105.615234" xlink:href="#ArialMT-101"/>
      <use x="161.230469" xlink:href="#ArialMT-110"/>
      <use x="216.845703" xlink:href="#ArialMT-99"/>
      <use x="266.845703" xlink:href="#ArialMT-121"/>
     </g>
    </g>
   </g>
   <g id="PathCollection_1">
    <defs>
     <path d="M 0 3 
C 0.795609 3 1.55874 2.683901 2.12132 2.12132 
C 2.683901 1.55874 3 0.795609 3 0 
C 3 -0.795609 2.683901 -1.55874 2.12132 -2.12132 
C 1.55874 -2.683901 0.795609 -3 0 -3 
C -0.795609 -3 -1.55874 -2.683901 -2.12132 -2.12132 
C -2.683901 -1.55874 -3 -0.795609 -3 0 
C -3 0.795609 -2.683901 1.55874 -2.12132 2.12132 
C -1.55874 2.683901 -0.795609 3 0 3 
z
" id="m0956375fcf" style="stroke:#ffffff;stroke-width:0.75;"/>
    </defs>
    <g clip-path="url(#ped054dcc7a)">
     <use style="fill:#4c72b0;stroke:#ffffff;stroke-width:0.75;" x="90.552629" xlink:href="#m0956375fcf" y="160.768876"/>
     <use style="fill:#4c72b0;stroke:#ffffff;stroke-width:0.75;" x="91.970533" xlink:href="#m0956375fcf" y="159.642473"/>
     <use style="fill:#4c72b0;stroke:#ffffff;stroke-width:0.75;" x="94.806341" xlink:href="#m0956375fcf" y="158.087067"/>
     <use style="fill:#4c72b0;stroke:#ffffff;stroke-width:0.75;" x="97.642148" xlink:href="#m0956375fcf" y="157.690117"/>
     <use style="fill:#4c72b0;stroke:#ffffff;stroke-width:0.75;" x="100.477956" xlink:href="#m0956375fcf" y="156.03114"/>
     <use style="fill:#4c72b0;stroke:#ffffff;stroke-width:0.75;" x="103.313764" xlink:href="#m0956375fcf" y="153.012609"/>
     <use style="fill:#4c72b0;stroke:#ffffff;stroke-width:0.75;" x="117.492802" xlink:href="#m0956375fcf" y="144.537611"/>
     <use style="fill:#4c72b0;stroke:#ffffff;stroke-width:0.75;" x="160.029916" xlink:href="#m0956375fcf" y="119.657056"/>
     <use style="fill:#4c72b0;stroke:#ffffff;stroke-width:0.75;" x="230.925106" xlink:href="#m0956375fcf" y="99.901606"/>
     <use style="fill:#4c72b0;stroke:#ffffff;stroke-width:0.75;" x="90.552629" xlink:href="#m0956375fcf" y="160.442076"/>
     <use style="fill:#4c72b0;stroke:#ffffff;stroke-width:0.75;" x="91.970533" xlink:href="#m0956375fcf" y="160.447437"/>
     <use style="fill:#4c72b0;stroke:#ffffff;stroke-width:0.75;" x="94.806341" xlink:href="#m0956375fcf" y="158.301626"/>
     <use style="fill:#4c72b0;stroke:#ffffff;stroke-width:0.75;" x="97.642148" xlink:href="#m0956375fcf" y="158.699374"/>
     <use style="fill:#4c72b0;stroke:#ffffff;stroke-width:0.75;" x="100.477956" xlink:href="#m0956375fcf" y="156.683256"/>
     <use style="fill:#4c72b0;stroke:#ffffff;stroke-width:0.75;" x="103.313764" xlink:href="#m0956375fcf" y="156.762076"/>
     <use style="fill:#4c72b0;stroke:#ffffff;stroke-width:0.75;" x="117.492802" xlink:href="#m0956375fcf" y="150.085444"/>
     <use style="fill:#4c72b0;stroke:#ffffff;stroke-width:0.75;" x="160.029916" xlink:href="#m0956375fcf" y="131.918136"/>
     <use style="fill:#4c72b0;stroke:#ffffff;stroke-width:0.75;" x="230.925106" xlink:href="#m0956375fcf" y="106.991726"/>
    </g>
   </g>
   <g id="PathCollection_2">
    <defs>
     <path d="M 0 3 
C 0.795609 3 1.55874 2.683901 2.12132 2.12132 
C 2.683901 1.55874 3 0.795609 3 0 
C 3 -0.795609 2.683901 -1.55874 2.12132 -2.12132 
C 1.55874 -2.683901 0.795609 -3 0 -3 
C -0.795609 -3 -1.55874 -2.683901 -2.12132 -2.12132 
C -2.683901 -1.55874 -3 -0.795609 -3 0 
C -3 0.795609 -2.683901 1.55874 -2.12132 2.12132 
C -1.55874 2.683901 -0.795609 3 0 3 
z
" id="m60d558b2e2" style="stroke:#ffffff;stroke-width:0.75;"/>
    </defs>
    <g clip-path="url(#ped054dcc7a)">
     <use style="fill:#dd8452;stroke:#ffffff;stroke-width:0.75;" x="90.552629" xlink:href="#m60d558b2e2" y="159.695057"/>
     <use style="fill:#dd8452;stroke:#ffffff;stroke-width:0.75;" x="91.970533" xlink:href="#m60d558b2e2" y="157.223815"/>
     <use style="fill:#dd8452;stroke:#ffffff;stroke-width:0.75;" x="94.806341" xlink:href="#m60d558b2e2" y="154.717555"/>
     <use style="fill:#dd8452;stroke:#ffffff;stroke-width:0.75;" x="97.642148" xlink:href="#m60d558b2e2" y="151.898981"/>
     <use style="fill:#dd8452;stroke:#ffffff;stroke-width:0.75;" x="103.313764" xlink:href="#m60d558b2e2" y="143.442577"/>
     <use style="fill:#dd8452;stroke:#ffffff;stroke-width:0.75;" x="117.492802" xlink:href="#m60d558b2e2" y="126.142627"/>
     <use style="fill:#dd8452;stroke:#ffffff;stroke-width:0.75;" x="131.67184" xlink:href="#m60d558b2e2" y="108.617853"/>
     <use style="fill:#dd8452;stroke:#ffffff;stroke-width:0.75;" x="160.029916" xlink:href="#m60d558b2e2" y="68.776616"/>
     <use style="fill:#dd8452;stroke:#ffffff;stroke-width:0.75;" x="90.552629" xlink:href="#m60d558b2e2" y="159.702243"/>
     <use style="fill:#dd8452;stroke:#ffffff;stroke-width:0.75;" x="91.970533" xlink:href="#m60d558b2e2" y="157.178987"/>
     <use style="fill:#dd8452;stroke:#ffffff;stroke-width:0.75;" x="94.806341" xlink:href="#m60d558b2e2" y="154.689837"/>
     <use style="fill:#dd8452;stroke:#ffffff;stroke-width:0.75;" x="97.642148" xlink:href="#m60d558b2e2" y="151.812975"/>
     <use style="fill:#dd8452;stroke:#ffffff;stroke-width:0.75;" x="103.313764" xlink:href="#m60d558b2e2" y="141.880898"/>
     <use style="fill:#dd8452;stroke:#ffffff;stroke-width:0.75;" x="117.492802" xlink:href="#m60d558b2e2" y="125.99571"/>
     <use style="fill:#dd8452;stroke:#ffffff;stroke-width:0.75;" x="131.67184" xlink:href="#m60d558b2e2" y="107.89148"/>
     <use style="fill:#dd8452;stroke:#ffffff;stroke-width:0.75;" x="160.029916" xlink:href="#m60d558b2e2" y="68.402365"/>
    </g>
   </g>
   <g id="PathCollection_3">
    <defs>
     <path d="M 0 3 
C 0.795609 3 1.55874 2.683901 2.12132 2.12132 
C 2.683901 1.55874 3 0.795609 3 0 
C 3 -0.795609 2.683901 -1.55874 2.12132 -2.12132 
C 1.55874 -2.683901 0.795609 -3 0 -3 
C -0.795609 -3 -1.55874 -2.683901 -2.12132 -2.12132 
C -2.683901 -1.55874 -3 -0.795609 -3 0 
C -3 0.795609 -2.683901 1.55874 -2.12132 2.12132 
C -1.55874 2.683901 -0.795609 3 0 3 
z
" id="mdbb04c6726" style="stroke:#ffffff;stroke-width:0.75;"/>
    </defs>
    <g clip-path="url(#ped054dcc7a)">
     <use style="fill:#55a868;stroke:#ffffff;stroke-width:0.75;" x="90.552629" xlink:href="#mdbb04c6726" y="160.981837"/>
     <use style="fill:#55a868;stroke:#ffffff;stroke-width:0.75;" x="91.970533" xlink:href="#mdbb04c6726" y="160.25592"/>
     <use style="fill:#55a868;stroke:#ffffff;stroke-width:0.75;" x="94.806341" xlink:href="#mdbb04c6726" y="159.75825"/>
     <use style="fill:#55a868;stroke:#ffffff;stroke-width:0.75;" x="97.642148" xlink:href="#mdbb04c6726" y="159.213926"/>
     <use style="fill:#55a868;stroke:#ffffff;stroke-width:0.75;" x="100.477956" xlink:href="#mdbb04c6726" y="158.671314"/>
     <use style="fill:#55a868;stroke:#ffffff;stroke-width:0.75;" x="103.313764" xlink:href="#mdbb04c6726" y="157.546508"/>
     <use style="fill:#55a868;stroke:#ffffff;stroke-width:0.75;" x="117.492802" xlink:href="#mdbb04c6726" y="153.842668"/>
     <use style="fill:#55a868;stroke:#ffffff;stroke-width:0.75;" x="160.029916" xlink:href="#mdbb04c6726" y="139.649536"/>
     <use style="fill:#55a868;stroke:#ffffff;stroke-width:0.75;" x="230.925106" xlink:href="#mdbb04c6726" y="115.222394"/>
     <use style="fill:#55a868;stroke:#ffffff;stroke-width:0.75;" x="90.552629" xlink:href="#mdbb04c6726" y="160.93815"/>
     <use style="fill:#55a868;stroke:#ffffff;stroke-width:0.75;" x="91.970533" xlink:href="#mdbb04c6726" y="160.306338"/>
     <use style="fill:#55a868;stroke:#ffffff;stroke-width:0.75;" x="94.806341" xlink:href="#mdbb04c6726" y="159.73749"/>
     <use style="fill:#55a868;stroke:#ffffff;stroke-width:0.75;" x="97.642148" xlink:href="#mdbb04c6726" y="159.034729"/>
     <use style="fill:#55a868;stroke:#ffffff;stroke-width:0.75;" x="100.477956" xlink:href="#mdbb04c6726" y="158.552001"/>
     <use style="fill:#55a868;stroke:#ffffff;stroke-width:0.75;" x="103.313764" xlink:href="#mdbb04c6726" y="157.567382"/>
     <use style="fill:#55a868;stroke:#ffffff;stroke-width:0.75;" x="117.492802" xlink:href="#mdbb04c6726" y="153.38686"/>
     <use style="fill:#55a868;stroke:#ffffff;stroke-width:0.75;" x="160.029916" xlink:href="#mdbb04c6726" y="139.19407"/>
     <use style="fill:#55a868;stroke:#ffffff;stroke-width:0.75;" x="230.925106" xlink:href="#mdbb04c6726" y="117.476797"/>
    </g>
   </g>
   <g id="PathCollection_4">
    <defs>
     <path d="M 0 3 
C 0.795609 3 1.55874 2.683901 2.12132 2.12132 
C 2.683901 1.55874 3 0.795609 3 0 
C 3 -0.795609 2.683901 -1.55874 2.12132 -2.12132 
C 1.55874 -2.683901 0.795609 -3 0 -3 
C -0.795609 -3 -1.55874 -2.683901 -2.12132 -2.12132 
C -2.683901 -1.55874 -3 -0.795609 -3 0 
C -3 0.795609 -2.683901 1.55874 -2.12132 2.12132 
C -1.55874 2.683901 -0.795609 3 0 3 
z
" id="mf4476bdee0" style="stroke:#ffffff;stroke-width:0.75;"/>
    </defs>
    <g clip-path="url(#ped054dcc7a)">
     <use style="fill:#c44e52;stroke:#ffffff;stroke-width:0.75;" x="90.552629" xlink:href="#mf4476bdee0" y="161.140617"/>
     <use style="fill:#c44e52;stroke:#ffffff;stroke-width:0.75;" x="91.970533" xlink:href="#mf4476bdee0" y="160.742184"/>
     <use style="fill:#c44e52;stroke:#ffffff;stroke-width:0.75;" x="94.806341" xlink:href="#mf4476bdee0" y="160.446867"/>
     <use style="fill:#c44e52;stroke:#ffffff;stroke-width:0.75;" x="97.642148" xlink:href="#mf4476bdee0" y="160.11425"/>
     <use style="fill:#c44e52;stroke:#ffffff;stroke-width:0.75;" x="100.477956" xlink:href="#mf4476bdee0" y="159.834788"/>
     <use style="fill:#c44e52;stroke:#ffffff;stroke-width:0.75;" x="103.313764" xlink:href="#mf4476bdee0" y="159.432249"/>
     <use style="fill:#c44e52;stroke:#ffffff;stroke-width:0.75;" x="117.492802" xlink:href="#mf4476bdee0" y="158.086497"/>
     <use style="fill:#c44e52;stroke:#ffffff;stroke-width:0.75;" x="160.029916" xlink:href="#mf4476bdee0" y="153.573586"/>
     <use style="fill:#c44e52;stroke:#ffffff;stroke-width:0.75;" x="230.925106" xlink:href="#mf4476bdee0" y="145.31155"/>
     <use style="fill:#c44e52;stroke:#ffffff;stroke-width:0.75;" x="90.552629" xlink:href="#mf4476bdee0" y="161.115865"/>
     <use style="fill:#c44e52;stroke:#ffffff;stroke-width:0.75;" x="91.970533" xlink:href="#mf4476bdee0" y="160.778229"/>
     <use style="fill:#c44e52;stroke:#ffffff;stroke-width:0.75;" x="94.806341" xlink:href="#mf4476bdee0" y="160.511771"/>
     <use style="fill:#c44e52;stroke:#ffffff;stroke-width:0.75;" x="97.642148" xlink:href="#mf4476bdee0" y="160.161588"/>
     <use style="fill:#c44e52;stroke:#ffffff;stroke-width:0.75;" x="100.477956" xlink:href="#mf4476bdee0" y="159.940071"/>
     <use style="fill:#c44e52;stroke:#ffffff;stroke-width:0.75;" x="103.313764" xlink:href="#mf4476bdee0" y="159.678746"/>
     <use style="fill:#c44e52;stroke:#ffffff;stroke-width:0.75;" x="117.492802" xlink:href="#mf4476bdee0" y="158.472269"/>
     <use style="fill:#c44e52;stroke:#ffffff;stroke-width:0.75;" x="160.029916" xlink:href="#mf4476bdee0" y="153.661759"/>
     <use style="fill:#c44e52;stroke:#ffffff;stroke-width:0.75;" x="230.925106" xlink:href="#mf4476bdee0" y="145.519036"/>
    </g>
   </g>
   <g id="PathCollection_5">
    <defs>
     <path d="M 0 3 
C 0.795609 3 1.55874 2.683901 2.12132 2.12132 
C 2.683901 1.55874 3 0.795609 3 0 
C 3 -0.795609 2.683901 -1.55874 2.12132 -2.12132 
C 1.55874 -2.683901 0.795609 -3 0 -3 
C -0.795609 -3 -1.55874 -2.683901 -2.12132 -2.12132 
C -2.683901 -1.55874 -3 -0.795609 -3 0 
C -3 0.795609 -2.683901 1.55874 -2.12132 2.12132 
C -1.55874 2.683901 -0.795609 3 0 3 
z
" id="mccb16a1b6a" style="stroke:#ffffff;stroke-width:0.75;"/>
    </defs>
    <g clip-path="url(#ped054dcc7a)">
     <use style="fill:#8172b3;stroke:#ffffff;stroke-width:0.75;" x="90.552629" xlink:href="#mccb16a1b6a" y="160.772412"/>
     <use style="fill:#8172b3;stroke:#ffffff;stroke-width:0.75;" x="91.970533" xlink:href="#mccb16a1b6a" y="160.173679"/>
     <use style="fill:#8172b3;stroke:#ffffff;stroke-width:0.75;" x="94.806341" xlink:href="#mccb16a1b6a" y="159.078758"/>
     <use style="fill:#8172b3;stroke:#ffffff;stroke-width:0.75;" x="97.642148" xlink:href="#mccb16a1b6a" y="157.82597"/>
     <use style="fill:#8172b3;stroke:#ffffff;stroke-width:0.75;" x="100.477956" xlink:href="#mccb16a1b6a" y="156.874659"/>
     <use style="fill:#8172b3;stroke:#ffffff;stroke-width:0.75;" x="103.313764" xlink:href="#mccb16a1b6a" y="155.188648"/>
     <use style="fill:#8172b3;stroke:#ffffff;stroke-width:0.75;" x="117.492802" xlink:href="#mccb16a1b6a" y="149.327703"/>
     <use style="fill:#8172b3;stroke:#ffffff;stroke-width:0.75;" x="160.029916" xlink:href="#mccb16a1b6a" y="130.443375"/>
     <use style="fill:#8172b3;stroke:#ffffff;stroke-width:0.75;" x="230.925106" xlink:href="#mccb16a1b6a" y="97.99442"/>
     <use style="fill:#8172b3;stroke:#ffffff;stroke-width:0.75;" x="90.552629" xlink:href="#mccb16a1b6a" y="160.76534"/>
     <use style="fill:#8172b3;stroke:#ffffff;stroke-width:0.75;" x="91.970533" xlink:href="#mccb16a1b6a" y="160.187823"/>
     <use style="fill:#8172b3;stroke:#ffffff;stroke-width:0.75;" x="94.806341" xlink:href="#mccb16a1b6a" y="159.120963"/>
     <use style="fill:#8172b3;stroke:#ffffff;stroke-width:0.75;" x="97.642148" xlink:href="#mccb16a1b6a" y="157.044617"/>
     <use style="fill:#8172b3;stroke:#ffffff;stroke-width:0.75;" x="100.477956" xlink:href="#mccb16a1b6a" y="156.482956"/>
     <use style="fill:#8172b3;stroke:#ffffff;stroke-width:0.75;" x="103.313764" xlink:href="#mccb16a1b6a" y="155.739701"/>
     <use style="fill:#8172b3;stroke:#ffffff;stroke-width:0.75;" x="117.492802" xlink:href="#mccb16a1b6a" y="148.956532"/>
     <use style="fill:#8172b3;stroke:#ffffff;stroke-width:0.75;" x="160.029916" xlink:href="#mccb16a1b6a" y="130.152849"/>
     <use style="fill:#8172b3;stroke:#ffffff;stroke-width:0.75;" x="230.925106" xlink:href="#mccb16a1b6a" y="98.412016"/>
     <use style="fill:#8172b3;stroke:#ffffff;stroke-width:0.75;" x="90.552629" xlink:href="#mccb16a1b6a" y="160.750853"/>
     <use style="fill:#8172b3;stroke:#ffffff;stroke-width:0.75;" x="91.970533" xlink:href="#mccb16a1b6a" y="160.194211"/>
     <use style="fill:#8172b3;stroke:#ffffff;stroke-width:0.75;" x="94.806341" xlink:href="#mccb16a1b6a" y="158.455045"/>
     <use style="fill:#8172b3;stroke:#ffffff;stroke-width:0.75;" x="97.642148" xlink:href="#mccb16a1b6a" y="156.722381"/>
     <use style="fill:#8172b3;stroke:#ffffff;stroke-width:0.75;" x="100.477956" xlink:href="#mccb16a1b6a" y="155.294045"/>
     <use style="fill:#8172b3;stroke:#ffffff;stroke-width:0.75;" x="103.313764" xlink:href="#mccb16a1b6a" y="155.305451"/>
     <use style="fill:#8172b3;stroke:#ffffff;stroke-width:0.75;" x="117.492802" xlink:href="#mccb16a1b6a" y="147.97237"/>
     <use style="fill:#8172b3;stroke:#ffffff;stroke-width:0.75;" x="160.029916" xlink:href="#mccb16a1b6a" y="129.24762"/>
     <use style="fill:#8172b3;stroke:#ffffff;stroke-width:0.75;" x="230.925106" xlink:href="#mccb16a1b6a" y="97.294967"/>
     <use style="fill:#8172b3;stroke:#ffffff;stroke-width:0.75;" x="90.552629" xlink:href="#mccb16a1b6a" y="160.764997"/>
     <use style="fill:#8172b3;stroke:#ffffff;stroke-width:0.75;" x="91.970533" xlink:href="#mccb16a1b6a" y="160.212689"/>
     <use style="fill:#8172b3;stroke:#ffffff;stroke-width:0.75;" x="94.806341" xlink:href="#mccb16a1b6a" y="158.610973"/>
     <use style="fill:#8172b3;stroke:#ffffff;stroke-width:0.75;" x="97.642148" xlink:href="#mccb16a1b6a" y="158.009617"/>
     <use style="fill:#8172b3;stroke:#ffffff;stroke-width:0.75;" x="100.477956" xlink:href="#mccb16a1b6a" y="156.895419"/>
     <use style="fill:#8172b3;stroke:#ffffff;stroke-width:0.75;" x="103.313764" xlink:href="#mccb16a1b6a" y="155.130474"/>
     <use style="fill:#8172b3;stroke:#ffffff;stroke-width:0.75;" x="117.492802" xlink:href="#mccb16a1b6a" y="149.740965"/>
     <use style="fill:#8172b3;stroke:#ffffff;stroke-width:0.75;" x="160.029916" xlink:href="#mccb16a1b6a" y="129.635217"/>
     <use style="fill:#8172b3;stroke:#ffffff;stroke-width:0.75;" x="230.925106" xlink:href="#mccb16a1b6a" y="98.944249"/>
    </g>
   </g>
   <g id="patch_3">
    <path d="M 80.375658 169.54 
L 80.375658 26.96 
" style="fill:none;stroke:#ffffff;stroke-linecap:square;stroke-linejoin:miter;stroke-width:1.25;"/>
   </g>
   <g id="patch_4">
    <path d="M 80.375658 169.54 
L 241.102078 169.54 
" style="fill:none;stroke:#ffffff;stroke-linecap:square;stroke-linejoin:miter;stroke-width:1.25;"/>
   </g>
   <g id="text_11">
    <!-- device = cpu_openvino -->
    <defs>
     <path d="M 40.234375 0 
L 40.234375 6.546875 
Q 35.296875 -1.171875 25.734375 -1.171875 
Q 19.53125 -1.171875 14.328125 2.25 
Q 9.125 5.671875 6.265625 11.796875 
Q 3.421875 17.921875 3.421875 25.875 
Q 3.421875 33.640625 6 39.96875 
Q 8.59375 46.296875 13.765625 49.65625 
Q 18.953125 53.03125 25.34375 53.03125 
Q 30.03125 53.03125 33.6875 51.046875 
Q 37.359375 49.078125 39.65625 45.90625 
L 39.65625 71.578125 
L 48.390625 71.578125 
L 48.390625 0 
z
M 12.453125 25.875 
Q 12.453125 15.921875 16.640625 10.984375 
Q 20.84375 6.0625 26.5625 6.0625 
Q 32.328125 6.0625 36.34375 10.765625 
Q 40.375 15.484375 40.375 25.140625 
Q 40.375 35.796875 36.265625 40.765625 
Q 32.171875 45.75 26.171875 45.75 
Q 20.3125 45.75 16.375 40.96875 
Q 12.453125 36.1875 12.453125 25.875 
z
" id="ArialMT-100"/>
     <path d="M 21 0 
L 1.265625 51.859375 
L 10.546875 51.859375 
L 21.6875 20.796875 
Q 23.484375 15.765625 25 10.359375 
Q 26.171875 14.453125 28.265625 20.21875 
L 39.796875 51.859375 
L 48.828125 51.859375 
L 29.203125 0 
z
" id="ArialMT-118"/>
     <path id="ArialMT-32"/>
     <path d="M 52.828125 42.09375 
L 5.5625 42.09375 
L 5.5625 50.296875 
L 52.828125 50.296875 
z
M 52.828125 20.359375 
L 5.5625 20.359375 
L 5.5625 28.5625 
L 52.828125 28.5625 
z
" id="ArialMT-61"/>
     <path d="M 6.59375 -19.875 
L 6.59375 51.859375 
L 14.59375 51.859375 
L 14.59375 45.125 
Q 17.4375 49.078125 21 51.046875 
Q 24.5625 53.03125 29.640625 53.03125 
Q 36.28125 53.03125 41.359375 49.609375 
Q 46.4375 46.1875 49.015625 39.953125 
Q 51.609375 33.734375 51.609375 26.3125 
Q 51.609375 18.359375 48.75 11.984375 
Q 45.90625 5.609375 40.453125 2.21875 
Q 35.015625 -1.171875 29 -1.171875 
Q 24.609375 -1.171875 21.109375 0.6875 
Q 17.625 2.546875 15.375 5.375 
L 15.375 -19.875 
z
M 14.546875 25.640625 
Q 14.546875 15.625 18.59375 10.84375 
Q 22.65625 6.0625 28.421875 6.0625 
Q 34.28125 6.0625 38.453125 11.015625 
Q 42.625 15.96875 42.625 26.375 
Q 42.625 36.28125 38.546875 41.203125 
Q 34.46875 46.140625 28.8125 46.140625 
Q 23.1875 46.140625 18.859375 40.890625 
Q 14.546875 35.640625 14.546875 25.640625 
z
" id="ArialMT-112"/>
     <path d="M 40.578125 0 
L 40.578125 7.625 
Q 34.515625 -1.171875 24.125 -1.171875 
Q 19.53125 -1.171875 15.546875 0.578125 
Q 11.578125 2.34375 9.640625 5 
Q 7.71875 7.671875 6.9375 11.53125 
Q 6.390625 14.109375 6.390625 19.734375 
L 6.390625 51.859375 
L 15.1875 51.859375 
L 15.1875 23.09375 
Q 15.1875 16.21875 15.71875 13.8125 
Q 16.546875 10.359375 19.234375 8.375 
Q 21.921875 6.390625 25.875 6.390625 
Q 29.828125 6.390625 33.296875 8.421875 
Q 36.765625 10.453125 38.203125 13.9375 
Q 39.65625 17.4375 39.65625 24.078125 
L 39.65625 51.859375 
L 48.4375 51.859375 
L 48.4375 0 
z
" id="ArialMT-117"/>
     <path d="M 3.328125 25.921875 
Q 3.328125 40.328125 11.328125 47.265625 
Q 18.015625 53.03125 27.640625 53.03125 
Q 38.328125 53.03125 45.109375 46.015625 
Q 51.90625 39.015625 51.90625 26.65625 
Q 51.90625 16.65625 48.90625 10.90625 
Q 45.90625 5.171875 40.15625 2 
Q 34.421875 -1.171875 27.640625 -1.171875 
Q 16.75 -1.171875 10.03125 5.8125 
Q 3.328125 12.796875 3.328125 25.921875 
z
M 12.359375 25.921875 
Q 12.359375 15.96875 16.703125 11.015625 
Q 21.046875 6.0625 27.640625 6.0625 
Q 34.1875 6.0625 38.53125 11.03125 
Q 42.875 16.015625 42.875 26.21875 
Q 42.875 35.84375 38.5 40.796875 
Q 34.125 45.75 27.640625 45.75 
Q 21.046875 45.75 16.703125 40.8125 
Q 12.359375 35.890625 12.359375 25.921875 
z
" id="ArialMT-111"/>
    </defs>
    <g style="fill:#262626;" transform="translate(99.195743 20.96)scale(0.12 -0.12)">
     <use xlink:href="#ArialMT-100"/>
     <use x="55.615234" xlink:href="#ArialMT-101"/>
     <use x="111.230469" xlink:href="#ArialMT-118"/>
     <use x="161.230469" xlink:href="#ArialMT-105"/>
     <use x="183.447266" xlink:href="#ArialMT-99"/>
     <use x="233.447266" xlink:href="#ArialMT-101"/>
     <use x="289.0625" xlink:href="#ArialMT-32"/>
     <use x="316.845703" xlink:href="#ArialMT-61"/>
     <use x="375.244141" xlink:href="#ArialMT-32"/>
     <use x="403.027344" xlink:href="#ArialMT-99"/>
     <use x="453.027344" xlink:href="#ArialMT-112"/>
     <use x="508.642578" xlink:href="#ArialMT-117"/>
     <use x="564.257812" xlink:href="#ArialMT-95"/>
     <use x="619.873047" xlink:href="#ArialMT-111"/>
     <use x="675.488281" xlink:href="#ArialMT-112"/>
     <use x="731.103516" xlink:href="#ArialMT-101"/>
     <use x="786.71875" xlink:href="#ArialMT-110"/>
     <use x="842.333984" xlink:href="#ArialMT-118"/>
     <use x="892.333984" xlink:href="#ArialMT-105"/>
     <use x="914.550781" xlink:href="#ArialMT-110"/>
     <use x="970.166016" xlink:href="#ArialMT-111"/>
    </g>
   </g>
  </g>
  <g id="axes_2">
   <g id="patch_5">
    <path d="M 266.10133 169.54 
L 426.82775 169.54 
L 426.82775 26.96 
L 266.10133 26.96 
z
" style="fill:#eaeaf2;"/>
   </g>
   <g id="matplotlib.axis_3">
    <g id="xtick_4">
     <g id="line2d_9">
      <path clip-path="url(#p5c5742da24)" d="M 274.860398 169.54 
L 274.860398 26.96 
" style="fill:none;stroke:#ffffff;stroke-linecap:round;"/>
     </g>
     <g id="text_12">
      <!-- 0 -->
      <g style="fill:#262626;" transform="translate(271.801882 186.913594)scale(0.11 -0.11)">
       <use xlink:href="#ArialMT-48"/>
      </g>
     </g>
    </g>
    <g id="xtick_5">
     <g id="line2d_10">
      <path clip-path="url(#p5c5742da24)" d="M 345.755588 169.54 
L 345.755588 26.96 
" style="fill:none;stroke:#ffffff;stroke-linecap:round;"/>
     </g>
     <g id="text_13">
      <!-- 50 -->
      <g style="fill:#262626;" transform="translate(339.638557 186.913594)scale(0.11 -0.11)">
       <use xlink:href="#ArialMT-53"/>
       <use x="55.615234" xlink:href="#ArialMT-48"/>
      </g>
     </g>
    </g>
    <g id="xtick_6">
     <g id="line2d_11">
      <path clip-path="url(#p5c5742da24)" d="M 416.650778 169.54 
L 416.650778 26.96 
" style="fill:none;stroke:#ffffff;stroke-linecap:round;"/>
     </g>
     <g id="text_14">
      <!-- 100 -->
      <g style="fill:#262626;" transform="translate(407.475231 186.913594)scale(0.11 -0.11)">
       <use xlink:href="#ArialMT-49"/>
       <use x="55.615234" xlink:href="#ArialMT-48"/>
       <use x="111.230469" xlink:href="#ArialMT-48"/>
      </g>
     </g>
    </g>
    <g id="text_15">
     <!-- batch_size -->
     <g style="fill:#262626;" transform="translate(317.781727 201.689219)scale(0.12 -0.12)">
      <use xlink:href="#ArialMT-98"/>
      <use x="55.615234" xlink:href="#ArialMT-97"/>
      <use x="111.230469" xlink:href="#ArialMT-116"/>
      <use x="139.013672" xlink:href="#ArialMT-99"/>
      <use x="189.013672" xlink:href="#ArialMT-104"/>
      <use x="244.628906" xlink:href="#ArialMT-95"/>
      <use x="300.244141" xlink:href="#ArialMT-115"/>
      <use x="350.244141" xlink:href="#ArialMT-105"/>
      <use x="372.460938" xlink:href="#ArialMT-122"/>
      <use x="422.460938" xlink:href="#ArialMT-101"/>
     </g>
    </g>
   </g>
   <g id="matplotlib.axis_4">
    <g id="ytick_6">
     <g id="line2d_12">
      <path clip-path="url(#p5c5742da24)" d="M 266.10133 161.382779 
L 426.82775 161.382779 
" style="fill:none;stroke:#ffffff;stroke-linecap:round;"/>
     </g>
    </g>
    <g id="ytick_7">
     <g id="line2d_13">
      <path clip-path="url(#p5c5742da24)" d="M 266.10133 132.866253 
L 426.82775 132.866253 
" style="fill:none;stroke:#ffffff;stroke-linecap:round;"/>
     </g>
    </g>
    <g id="ytick_8">
     <g id="line2d_14">
      <path clip-path="url(#p5c5742da24)" d="M 266.10133 104.349727 
L 426.82775 104.349727 
" style="fill:none;stroke:#ffffff;stroke-linecap:round;"/>
     </g>
    </g>
    <g id="ytick_9">
     <g id="line2d_15">
      <path clip-path="url(#p5c5742da24)" d="M 266.10133 75.833201 
L 426.82775 75.833201 
" style="fill:none;stroke:#ffffff;stroke-linecap:round;"/>
     </g>
    </g>
    <g id="ytick_10">
     <g id="line2d_16">
      <path clip-path="url(#p5c5742da24)" d="M 266.10133 47.316675 
L 426.82775 47.316675 
" style="fill:none;stroke:#ffffff;stroke-linecap:round;"/>
     </g>
    </g>
   </g>
   <g id="PathCollection_6">
    <g clip-path="url(#p5c5742da24)">
     <use style="fill:#4c72b0;stroke:#ffffff;stroke-width:0.75;" x="276.278301" xlink:href="#m0956375fcf" y="158.158359"/>
     <use style="fill:#4c72b0;stroke:#ffffff;stroke-width:0.75;" x="277.696205" xlink:href="#m0956375fcf" y="157.879923"/>
     <use style="fill:#4c72b0;stroke:#ffffff;stroke-width:0.75;" x="280.532013" xlink:href="#m0956375fcf" y="157.326475"/>
     <use style="fill:#4c72b0;stroke:#ffffff;stroke-width:0.75;" x="283.36782" xlink:href="#m0956375fcf" y="156.747019"/>
     <use style="fill:#4c72b0;stroke:#ffffff;stroke-width:0.75;" x="286.203628" xlink:href="#m0956375fcf" y="156.147716"/>
     <use style="fill:#4c72b0;stroke:#ffffff;stroke-width:0.75;" x="289.039436" xlink:href="#m0956375fcf" y="152.035861"/>
     <use style="fill:#4c72b0;stroke:#ffffff;stroke-width:0.75;" x="303.218474" xlink:href="#m0956375fcf" y="144.993762"/>
     <use style="fill:#4c72b0;stroke:#ffffff;stroke-width:0.75;" x="345.755588" xlink:href="#m0956375fcf" y="121.819978"/>
     <use style="fill:#4c72b0;stroke:#ffffff;stroke-width:0.75;" x="416.650778" xlink:href="#m0956375fcf" y="82.335083"/>
     <use style="fill:#4c72b0;stroke:#ffffff;stroke-width:0.75;" x="276.278301" xlink:href="#m0956375fcf" y="155.295756"/>
     <use style="fill:#4c72b0;stroke:#ffffff;stroke-width:0.75;" x="277.696205" xlink:href="#m0956375fcf" y="154.95447"/>
     <use style="fill:#4c72b0;stroke:#ffffff;stroke-width:0.75;" x="280.532013" xlink:href="#m0956375fcf" y="154.42566"/>
     <use style="fill:#4c72b0;stroke:#ffffff;stroke-width:0.75;" x="283.36782" xlink:href="#m0956375fcf" y="153.821908"/>
     <use style="fill:#4c72b0;stroke:#ffffff;stroke-width:0.75;" x="286.203628" xlink:href="#m0956375fcf" y="153.287964"/>
     <use style="fill:#4c72b0;stroke:#ffffff;stroke-width:0.75;" x="289.039436" xlink:href="#m0956375fcf" y="145.793707"/>
     <use style="fill:#4c72b0;stroke:#ffffff;stroke-width:0.75;" x="303.218474" xlink:href="#m0956375fcf" y="134.961534"/>
     <use style="fill:#4c72b0;stroke:#ffffff;stroke-width:0.75;" x="345.755588" xlink:href="#m0956375fcf" y="98.2797"/>
     <use style="fill:#4c72b0;stroke:#ffffff;stroke-width:0.75;" x="416.650778" xlink:href="#m0956375fcf" y="35.363346"/>
    </g>
   </g>
   <g id="PathCollection_7">
    <g clip-path="url(#p5c5742da24)">
     <use style="fill:#dd8452;stroke:#ffffff;stroke-width:0.75;" x="276.278301" xlink:href="#m60d558b2e2" y="158.557248"/>
     <use style="fill:#dd8452;stroke:#ffffff;stroke-width:0.75;" x="277.696205" xlink:href="#m60d558b2e2" y="158.244707"/>
     <use style="fill:#dd8452;stroke:#ffffff;stroke-width:0.75;" x="280.532013" xlink:href="#m60d558b2e2" y="157.571831"/>
     <use style="fill:#dd8452;stroke:#ffffff;stroke-width:0.75;" x="283.36782" xlink:href="#m60d558b2e2" y="156.866446"/>
     <use style="fill:#dd8452;stroke:#ffffff;stroke-width:0.75;" x="289.039436" xlink:href="#m60d558b2e2" y="153.101808"/>
     <use style="fill:#dd8452;stroke:#ffffff;stroke-width:0.75;" x="303.218474" xlink:href="#m60d558b2e2" y="145.859865"/>
     <use style="fill:#dd8452;stroke:#ffffff;stroke-width:0.75;" x="317.397512" xlink:href="#m60d558b2e2" y="140.94316"/>
     <use style="fill:#dd8452;stroke:#ffffff;stroke-width:0.75;" x="345.755588" xlink:href="#m60d558b2e2" y="125.353632"/>
     <use style="fill:#dd8452;stroke:#ffffff;stroke-width:0.75;" x="276.278301" xlink:href="#m60d558b2e2" y="154.356193"/>
     <use style="fill:#dd8452;stroke:#ffffff;stroke-width:0.75;" x="277.696205" xlink:href="#m60d558b2e2" y="153.778677"/>
     <use style="fill:#dd8452;stroke:#ffffff;stroke-width:0.75;" x="280.532013" xlink:href="#m60d558b2e2" y="152.390264"/>
     <use style="fill:#dd8452;stroke:#ffffff;stroke-width:0.75;" x="283.36782" xlink:href="#m60d558b2e2" y="151.347244"/>
     <use style="fill:#dd8452;stroke:#ffffff;stroke-width:0.75;" x="289.039436" xlink:href="#m60d558b2e2" y="143.070721"/>
     <use style="fill:#dd8452;stroke:#ffffff;stroke-width:0.75;" x="303.218474" xlink:href="#m60d558b2e2" y="128.852952"/>
     <use style="fill:#dd8452;stroke:#ffffff;stroke-width:0.75;" x="317.397512" xlink:href="#m60d558b2e2" y="120.656618"/>
     <use style="fill:#dd8452;stroke:#ffffff;stroke-width:0.75;" x="345.755588" xlink:href="#m60d558b2e2" y="96.427951"/>
    </g>
   </g>
   <g id="PathCollection_8">
    <g clip-path="url(#p5c5742da24)">
     <use style="fill:#8172b3;stroke:#ffffff;stroke-width:0.75;" x="276.278301" xlink:href="#mccb16a1b6a" y="158.249498"/>
     <use style="fill:#8172b3;stroke:#ffffff;stroke-width:0.75;" x="277.696205" xlink:href="#mccb16a1b6a" y="157.991708"/>
     <use style="fill:#8172b3;stroke:#ffffff;stroke-width:0.75;" x="280.532013" xlink:href="#mccb16a1b6a" y="157.43883"/>
     <use style="fill:#8172b3;stroke:#ffffff;stroke-width:0.75;" x="283.36782" xlink:href="#mccb16a1b6a" y="156.888119"/>
     <use style="fill:#8172b3;stroke:#ffffff;stroke-width:0.75;" x="286.203628" xlink:href="#mccb16a1b6a" y="156.330563"/>
     <use style="fill:#8172b3;stroke:#ffffff;stroke-width:0.75;" x="289.039436" xlink:href="#mccb16a1b6a" y="152.441366"/>
     <use style="fill:#8172b3;stroke:#ffffff;stroke-width:0.75;" x="303.218474" xlink:href="#mccb16a1b6a" y="145.649414"/>
     <use style="fill:#8172b3;stroke:#ffffff;stroke-width:0.75;" x="345.755588" xlink:href="#mccb16a1b6a" y="123.350745"/>
     <use style="fill:#8172b3;stroke:#ffffff;stroke-width:0.75;" x="416.650778" xlink:href="#mccb16a1b6a" y="85.088867"/>
     <use style="fill:#8172b3;stroke:#ffffff;stroke-width:0.75;" x="276.278301" xlink:href="#mccb16a1b6a" y="155.507462"/>
     <use style="fill:#8172b3;stroke:#ffffff;stroke-width:0.75;" x="277.696205" xlink:href="#mccb16a1b6a" y="155.182146"/>
     <use style="fill:#8172b3;stroke:#ffffff;stroke-width:0.75;" x="280.532013" xlink:href="#mccb16a1b6a" y="154.641701"/>
     <use style="fill:#8172b3;stroke:#ffffff;stroke-width:0.75;" x="283.36782" xlink:href="#mccb16a1b6a" y="154.111636"/>
     <use style="fill:#8172b3;stroke:#ffffff;stroke-width:0.75;" x="286.203628" xlink:href="#mccb16a1b6a" y="153.599479"/>
     <use style="fill:#8172b3;stroke:#ffffff;stroke-width:0.75;" x="289.039436" xlink:href="#mccb16a1b6a" y="146.353658"/>
     <use style="fill:#8172b3;stroke:#ffffff;stroke-width:0.75;" x="303.218474" xlink:href="#mccb16a1b6a" y="135.85547"/>
     <use style="fill:#8172b3;stroke:#ffffff;stroke-width:0.75;" x="345.755588" xlink:href="#mccb16a1b6a" y="100.499768"/>
     <use style="fill:#8172b3;stroke:#ffffff;stroke-width:0.75;" x="416.650778" xlink:href="#mccb16a1b6a" y="39.571701"/>
    </g>
   </g>
   <g id="patch_6">
    <path d="M 266.10133 169.54 
L 266.10133 26.96 
" style="fill:none;stroke:#ffffff;stroke-linecap:square;stroke-linejoin:miter;stroke-width:1.25;"/>
   </g>
   <g id="patch_7">
    <path d="M 266.10133 169.54 
L 426.82775 169.54 
" style="fill:none;stroke:#ffffff;stroke-linecap:square;stroke-linejoin:miter;stroke-width:1.25;"/>
   </g>
   <g id="text_16">
    <!-- device = gpu_openvino -->
    <defs>
     <path d="M 4.984375 -4.296875 
L 13.53125 -5.5625 
Q 14.0625 -9.515625 16.5 -11.328125 
Q 19.78125 -13.765625 25.4375 -13.765625 
Q 31.546875 -13.765625 34.859375 -11.328125 
Q 38.1875 -8.890625 39.359375 -4.5 
Q 40.046875 -1.8125 39.984375 6.78125 
Q 34.234375 0 25.640625 0 
Q 14.9375 0 9.078125 7.71875 
Q 3.21875 15.4375 3.21875 26.21875 
Q 3.21875 33.640625 5.90625 39.90625 
Q 8.59375 46.1875 13.6875 49.609375 
Q 18.796875 53.03125 25.6875 53.03125 
Q 34.859375 53.03125 40.828125 45.609375 
L 40.828125 51.859375 
L 48.921875 51.859375 
L 48.921875 7.03125 
Q 48.921875 -5.078125 46.453125 -10.125 
Q 44 -15.1875 38.640625 -18.109375 
Q 33.296875 -21.046875 25.484375 -21.046875 
Q 16.21875 -21.046875 10.5 -16.875 
Q 4.78125 -12.703125 4.984375 -4.296875 
z
M 12.25 26.859375 
Q 12.25 16.65625 16.296875 11.96875 
Q 20.359375 7.28125 26.46875 7.28125 
Q 32.515625 7.28125 36.609375 11.9375 
Q 40.71875 16.609375 40.71875 26.5625 
Q 40.71875 36.078125 36.5 40.90625 
Q 32.28125 45.75 26.3125 45.75 
Q 20.453125 45.75 16.34375 40.984375 
Q 12.25 36.234375 12.25 26.859375 
z
" id="ArialMT-103"/>
    </defs>
    <g style="fill:#262626;" transform="translate(284.584852 20.96)scale(0.12 -0.12)">
     <use xlink:href="#ArialMT-100"/>
     <use x="55.615234" xlink:href="#ArialMT-101"/>
     <use x="111.230469" xlink:href="#ArialMT-118"/>
     <use x="161.230469" xlink:href="#ArialMT-105"/>
     <use x="183.447266" xlink:href="#ArialMT-99"/>
     <use x="233.447266" xlink:href="#ArialMT-101"/>
     <use x="289.0625" xlink:href="#ArialMT-32"/>
     <use x="316.845703" xlink:href="#ArialMT-61"/>
     <use x="375.244141" xlink:href="#ArialMT-32"/>
     <use x="403.027344" xlink:href="#ArialMT-103"/>
     <use x="458.642578" xlink:href="#ArialMT-112"/>
     <use x="514.257812" xlink:href="#ArialMT-117"/>
     <use x="569.873047" xlink:href="#ArialMT-95"/>
     <use x="625.488281" xlink:href="#ArialMT-111"/>
     <use x="681.103516" xlink:href="#ArialMT-112"/>
     <use x="736.71875" xlink:href="#ArialMT-101"/>
     <use x="792.333984" xlink:href="#ArialMT-110"/>
     <use x="847.949219" xlink:href="#ArialMT-118"/>
     <use x="897.949219" xlink:href="#ArialMT-105"/>
     <use x="920.166016" xlink:href="#ArialMT-110"/>
     <use x="975.78125" xlink:href="#ArialMT-111"/>
    </g>
   </g>
  </g>
  <g id="legend_1">
   <g id="text_17">
    <!-- machine -->
    <defs>
     <path d="M 6.59375 0 
L 6.59375 51.859375 
L 14.453125 51.859375 
L 14.453125 44.578125 
Q 16.890625 48.390625 20.9375 50.703125 
Q 25 53.03125 30.171875 53.03125 
Q 35.9375 53.03125 39.625 50.640625 
Q 43.3125 48.25 44.828125 43.953125 
Q 50.984375 53.03125 60.84375 53.03125 
Q 68.5625 53.03125 72.703125 48.75 
Q 76.859375 44.484375 76.859375 35.59375 
L 76.859375 0 
L 68.109375 0 
L 68.109375 32.671875 
Q 68.109375 37.9375 67.25 40.25 
Q 66.40625 42.578125 64.15625 43.984375 
Q 61.921875 45.40625 58.890625 45.40625 
Q 53.421875 45.40625 49.796875 41.765625 
Q 46.1875 38.140625 46.1875 30.125 
L 46.1875 0 
L 37.40625 0 
L 37.40625 33.6875 
Q 37.40625 39.546875 35.25 42.46875 
Q 33.109375 45.40625 28.21875 45.40625 
Q 24.515625 45.40625 21.359375 43.453125 
Q 18.21875 41.5 16.796875 37.734375 
Q 15.375 33.984375 15.375 26.90625 
L 15.375 0 
z
" id="ArialMT-109"/>
    </defs>
    <g style="fill:#262626;" transform="translate(450.01775 71.720922)scale(0.102 -0.102)">
     <use xlink:href="#ArialMT-109"/>
     <use x="83.300781" xlink:href="#ArialMT-97"/>
     <use x="138.916016" xlink:href="#ArialMT-99"/>
     <use x="188.916016" xlink:href="#ArialMT-104"/>
     <use x="244.53125" xlink:href="#ArialMT-105"/>
     <use x="266.748047" xlink:href="#ArialMT-110"/>
     <use x="322.363281" xlink:href="#ArialMT-101"/>
    </g>
   </g>
   <g id="PathCollection_9">
    <g>
     <use style="fill:#4c72b0;stroke:#ffffff;stroke-width:0.75;" x="442.261719" xlink:href="#m0956375fcf" y="84.234266"/>
    </g>
   </g>
   <g id="text_18">
    <!-- i7 -->
    <g style="fill:#262626;" transform="translate(462.061719 87.121766)scale(0.11 -0.11)">
     <use xlink:href="#ArialMT-105"/>
     <use x="22.216797" xlink:href="#ArialMT-55"/>
    </g>
   </g>
   <g id="PathCollection_10">
    <g>
     <use style="fill:#dd8452;stroke:#ffffff;stroke-width:0.75;" x="442.261719" xlink:href="#m60d558b2e2" y="99.794109"/>
    </g>
   </g>
   <g id="text_19">
    <!-- i5 -->
    <g style="fill:#262626;" transform="translate(462.061719 102.681609)scale(0.11 -0.11)">
     <use xlink:href="#ArialMT-105"/>
     <use x="22.216797" xlink:href="#ArialMT-53"/>
    </g>
   </g>
   <g id="PathCollection_11">
    <g>
     <use style="fill:#55a868;stroke:#ffffff;stroke-width:0.75;" x="442.261719" xlink:href="#mdbb04c6726" y="115.353953"/>
    </g>
   </g>
   <g id="text_20">
    <!-- 6212U -->
    <defs>
     <path d="M 49.75 54.046875 
L 41.015625 53.375 
Q 39.84375 58.546875 37.703125 60.890625 
Q 34.125 64.65625 28.90625 64.65625 
Q 24.703125 64.65625 21.53125 62.3125 
Q 17.390625 59.28125 14.984375 53.46875 
Q 12.59375 47.65625 12.5 36.921875 
Q 15.671875 41.75 20.265625 44.09375 
Q 24.859375 46.4375 29.890625 46.4375 
Q 38.671875 46.4375 44.84375 39.96875 
Q 51.03125 33.5 51.03125 23.25 
Q 51.03125 16.5 48.125 10.71875 
Q 45.21875 4.9375 40.140625 1.859375 
Q 35.0625 -1.21875 28.609375 -1.21875 
Q 17.625 -1.21875 10.6875 6.859375 
Q 3.765625 14.9375 3.765625 33.5 
Q 3.765625 54.25 11.421875 63.671875 
Q 18.109375 71.875 29.4375 71.875 
Q 37.890625 71.875 43.28125 67.140625 
Q 48.6875 62.40625 49.75 54.046875 
z
M 13.875 23.1875 
Q 13.875 18.65625 15.796875 14.5 
Q 17.71875 10.359375 21.1875 8.171875 
Q 24.65625 6 28.46875 6 
Q 34.03125 6 38.03125 10.484375 
Q 42.046875 14.984375 42.046875 22.703125 
Q 42.046875 30.125 38.078125 34.390625 
Q 34.125 38.671875 28.125 38.671875 
Q 22.171875 38.671875 18.015625 34.390625 
Q 13.875 30.125 13.875 23.1875 
z
" id="ArialMT-54"/>
     <path d="M 54.6875 71.578125 
L 64.15625 71.578125 
L 64.15625 30.21875 
Q 64.15625 19.4375 61.71875 13.078125 
Q 59.28125 6.734375 52.90625 2.75 
Q 46.53125 -1.21875 36.1875 -1.21875 
Q 26.125 -1.21875 19.71875 2.25 
Q 13.328125 5.71875 10.59375 12.28125 
Q 7.859375 18.84375 7.859375 30.21875 
L 7.859375 71.578125 
L 17.328125 71.578125 
L 17.328125 30.28125 
Q 17.328125 20.953125 19.0625 16.53125 
Q 20.796875 12.109375 25.015625 9.71875 
Q 29.25 7.328125 35.359375 7.328125 
Q 45.796875 7.328125 50.234375 12.0625 
Q 54.6875 16.796875 54.6875 30.28125 
z
" id="ArialMT-85"/>
    </defs>
    <g style="fill:#262626;" transform="translate(462.061719 118.241453)scale(0.11 -0.11)">
     <use xlink:href="#ArialMT-54"/>
     <use x="55.615234" xlink:href="#ArialMT-50"/>
     <use x="111.230469" xlink:href="#ArialMT-49"/>
     <use x="166.845703" xlink:href="#ArialMT-50"/>
     <use x="222.460938" xlink:href="#ArialMT-85"/>
    </g>
   </g>
   <g id="PathCollection_12">
    <g>
     <use style="fill:#c44e52;stroke:#ffffff;stroke-width:0.75;" x="442.261719" xlink:href="#mf4476bdee0" y="130.913797"/>
    </g>
   </g>
   <g id="text_21">
    <!-- 6338N -->
    <defs>
     <path d="M 4.203125 18.890625 
L 12.984375 20.0625 
Q 14.5 12.59375 18.140625 9.296875 
Q 21.78125 6 27 6 
Q 33.203125 6 37.46875 10.296875 
Q 41.75 14.59375 41.75 20.953125 
Q 41.75 27 37.796875 30.921875 
Q 33.84375 34.859375 27.734375 34.859375 
Q 25.25 34.859375 21.53125 33.890625 
L 22.515625 41.609375 
Q 23.390625 41.5 23.921875 41.5 
Q 29.546875 41.5 34.03125 44.421875 
Q 38.53125 47.359375 38.53125 53.46875 
Q 38.53125 58.296875 35.25 61.46875 
Q 31.984375 64.65625 26.8125 64.65625 
Q 21.6875 64.65625 18.265625 61.421875 
Q 14.84375 58.203125 13.875 51.765625 
L 5.078125 53.328125 
Q 6.6875 62.15625 12.390625 67.015625 
Q 18.109375 71.875 26.609375 71.875 
Q 32.46875 71.875 37.390625 69.359375 
Q 42.328125 66.84375 44.9375 62.5 
Q 47.5625 58.15625 47.5625 53.265625 
Q 47.5625 48.640625 45.0625 44.828125 
Q 42.578125 41.015625 37.703125 38.765625 
Q 44.046875 37.3125 47.5625 32.6875 
Q 51.078125 28.078125 51.078125 21.140625 
Q 51.078125 11.765625 44.234375 5.25 
Q 37.40625 -1.265625 26.953125 -1.265625 
Q 17.53125 -1.265625 11.296875 4.34375 
Q 5.078125 9.96875 4.203125 18.890625 
z
" id="ArialMT-51"/>
     <path d="M 17.671875 38.8125 
Q 12.203125 40.828125 9.5625 44.53125 
Q 6.9375 48.25 6.9375 53.421875 
Q 6.9375 61.234375 12.546875 66.546875 
Q 18.171875 71.875 27.484375 71.875 
Q 36.859375 71.875 42.578125 66.421875 
Q 48.296875 60.984375 48.296875 53.171875 
Q 48.296875 48.1875 45.671875 44.5 
Q 43.0625 40.828125 37.75 38.8125 
Q 44.34375 36.671875 47.78125 31.875 
Q 51.21875 27.09375 51.21875 20.453125 
Q 51.21875 11.28125 44.71875 5.03125 
Q 38.234375 -1.21875 27.640625 -1.21875 
Q 17.046875 -1.21875 10.546875 5.046875 
Q 4.046875 11.328125 4.046875 20.703125 
Q 4.046875 27.6875 7.59375 32.390625 
Q 11.140625 37.109375 17.671875 38.8125 
z
M 15.921875 53.71875 
Q 15.921875 48.640625 19.1875 45.40625 
Q 22.46875 42.1875 27.6875 42.1875 
Q 32.765625 42.1875 36.015625 45.375 
Q 39.265625 48.578125 39.265625 53.21875 
Q 39.265625 58.0625 35.90625 61.359375 
Q 32.5625 64.65625 27.59375 64.65625 
Q 22.5625 64.65625 19.234375 61.421875 
Q 15.921875 58.203125 15.921875 53.71875 
z
M 13.09375 20.65625 
Q 13.09375 16.890625 14.875 13.375 
Q 16.65625 9.859375 20.171875 7.921875 
Q 23.6875 6 27.734375 6 
Q 34.03125 6 38.125 10.046875 
Q 42.234375 14.109375 42.234375 20.359375 
Q 42.234375 26.703125 38.015625 30.859375 
Q 33.796875 35.015625 27.4375 35.015625 
Q 21.234375 35.015625 17.15625 30.90625 
Q 13.09375 26.8125 13.09375 20.65625 
z
" id="ArialMT-56"/>
     <path d="M 7.625 0 
L 7.625 71.578125 
L 17.328125 71.578125 
L 54.9375 15.375 
L 54.9375 71.578125 
L 64.015625 71.578125 
L 64.015625 0 
L 54.296875 0 
L 16.703125 56.25 
L 16.703125 0 
z
" id="ArialMT-78"/>
    </defs>
    <g style="fill:#262626;" transform="translate(462.061719 133.801297)scale(0.11 -0.11)">
     <use xlink:href="#ArialMT-54"/>
     <use x="55.615234" xlink:href="#ArialMT-51"/>
     <use x="111.230469" xlink:href="#ArialMT-51"/>
     <use x="166.845703" xlink:href="#ArialMT-56"/>
     <use x="222.460938" xlink:href="#ArialMT-78"/>
    </g>
   </g>
   <g id="PathCollection_13">
    <g>
     <use style="fill:#8172b3;stroke:#ffffff;stroke-width:0.75;" x="442.261719" xlink:href="#mccb16a1b6a" y="146.506297"/>
    </g>
   </g>
   <g id="text_22">
    <!-- i9_12900 -->
    <defs>
     <path d="M 5.46875 16.546875 
L 13.921875 17.328125 
Q 14.984375 11.375 18.015625 8.6875 
Q 21.046875 6 25.78125 6 
Q 29.828125 6 32.875 7.859375 
Q 35.9375 9.71875 37.890625 12.8125 
Q 39.84375 15.921875 41.15625 21.1875 
Q 42.484375 26.46875 42.484375 31.9375 
Q 42.484375 32.515625 42.4375 33.6875 
Q 39.796875 29.5 35.234375 26.875 
Q 30.671875 24.265625 25.34375 24.265625 
Q 16.453125 24.265625 10.296875 30.703125 
Q 4.15625 37.15625 4.15625 47.703125 
Q 4.15625 58.59375 10.578125 65.234375 
Q 17 71.875 26.65625 71.875 
Q 33.640625 71.875 39.421875 68.109375 
Q 45.21875 64.359375 48.21875 57.390625 
Q 51.21875 50.4375 51.21875 37.25 
Q 51.21875 23.53125 48.234375 15.40625 
Q 45.265625 7.28125 39.375 3.03125 
Q 33.5 -1.21875 25.59375 -1.21875 
Q 17.1875 -1.21875 11.859375 3.4375 
Q 6.546875 8.109375 5.46875 16.546875 
z
M 41.453125 48.140625 
Q 41.453125 55.71875 37.421875 60.15625 
Q 33.40625 64.59375 27.734375 64.59375 
Q 21.875 64.59375 17.53125 59.8125 
Q 13.1875 55.03125 13.1875 47.40625 
Q 13.1875 40.578125 17.3125 36.296875 
Q 21.4375 32.03125 27.484375 32.03125 
Q 33.59375 32.03125 37.515625 36.296875 
Q 41.453125 40.578125 41.453125 48.140625 
z
" id="ArialMT-57"/>
    </defs>
    <g style="fill:#262626;" transform="translate(462.061719 149.393797)scale(0.11 -0.11)">
     <use xlink:href="#ArialMT-105"/>
     <use x="22.216797" xlink:href="#ArialMT-57"/>
     <use x="77.832031" xlink:href="#ArialMT-95"/>
     <use x="133.447266" xlink:href="#ArialMT-49"/>
     <use x="189.0625" xlink:href="#ArialMT-50"/>
     <use x="244.677734" xlink:href="#ArialMT-57"/>
     <use x="300.292969" xlink:href="#ArialMT-48"/>
     <use x="355.908203" xlink:href="#ArialMT-48"/>
    </g>
   </g>
  </g>
 </g>
 <defs>
  <clipPath id="ped054dcc7a">
   <rect height="142.58" width="160.72642" x="80.375658" y="26.96"/>
  </clipPath>
  <clipPath id="p5c5742da24">
   <rect height="142.58" width="160.72642" x="266.10133" y="26.96"/>
  </clipPath>
 </defs>
</svg>
