<?xml version="1.0" encoding="utf-8" standalone="no"?>
<!DOCTYPE svg PUBLIC "-//W3C//DTD SVG 1.1//EN"
  "http://www.w3.org/Graphics/SVG/1.1/DTD/svg11.dtd">
<!-- Created with matplotlib (https://matplotlib.org/) -->
<svg height="360pt" version="1.1" viewBox="0 0 360 360" width="360pt" xmlns="http://www.w3.org/2000/svg" xmlns:xlink="http://www.w3.org/1999/xlink">
 <defs>
  <style type="text/css">
*{stroke-linecap:butt;stroke-linejoin:round;}
  </style>
 </defs>
 <g id="figure_1">
  <g id="patch_1">
   <path d="M 0 360 
L 360 360 
L 360 0 
L 0 0 
z
" style="fill:#ffffff;"/>
  </g>
  <g id="axes_1">
   <g id="patch_2">
    <path d="M 79.21 313.493125 
L 341.04 313.493125 
L 341.04 18.96 
L 79.21 18.96 
z
" style="fill:#eaeaf2;"/>
   </g>
   <g id="matplotlib.axis_1">
    <g id="xtick_1">
     <g id="line2d_1">
      <path clip-path="url(#p414770ea5c)" d="M 93.021489 313.493125 
L 93.021489 18.96 
" style="fill:none;stroke:#ffffff;stroke-linecap:round;"/>
     </g>
     <g id="text_1">
      <!-- 0 -->
      <defs>
       <path d="M 4.15625 35.296875 
Q 4.15625 48 6.765625 55.734375 
Q 9.375 63.484375 14.515625 67.671875 
Q 19.671875 71.875 27.484375 71.875 
Q 33.25 71.875 37.59375 69.546875 
Q 41.9375 67.234375 44.765625 62.859375 
Q 47.609375 58.5 49.21875 52.21875 
Q 50.828125 45.953125 50.828125 35.296875 
Q 50.828125 22.703125 48.234375 14.96875 
Q 45.65625 7.234375 40.5 3 
Q 35.359375 -1.21875 27.484375 -1.21875 
Q 17.140625 -1.21875 11.234375 6.203125 
Q 4.15625 15.140625 4.15625 35.296875 
z
M 13.1875 35.296875 
Q 13.1875 17.671875 17.3125 11.828125 
Q 21.4375 6 27.484375 6 
Q 33.546875 6 37.671875 11.859375 
Q 41.796875 17.71875 41.796875 35.296875 
Q 41.796875 52.984375 37.671875 58.78125 
Q 33.546875 64.59375 27.390625 64.59375 
Q 21.34375 64.59375 17.71875 59.46875 
Q 13.1875 52.9375 13.1875 35.296875 
z
" id="ArialMT-48"/>
      </defs>
      <g style="fill:#262626;" transform="translate(89.962973 330.866719)scale(0.11 -0.11)">
       <use xlink:href="#ArialMT-48"/>
      </g>
     </g>
    </g>
    <g id="xtick_2">
     <g id="line2d_2">
      <path clip-path="url(#p414770ea5c)" d="M 135.765599 313.493125 
L 135.765599 18.96 
" style="fill:none;stroke:#ffffff;stroke-linecap:round;"/>
     </g>
     <g id="text_2">
      <!-- 2000 -->
      <defs>
       <path d="M 50.34375 8.453125 
L 50.34375 0 
L 3.03125 0 
Q 2.9375 3.171875 4.046875 6.109375 
Q 5.859375 10.9375 9.828125 15.625 
Q 13.8125 20.3125 21.34375 26.46875 
Q 33.015625 36.03125 37.109375 41.625 
Q 41.21875 47.21875 41.21875 52.203125 
Q 41.21875 57.421875 37.46875 61 
Q 33.734375 64.59375 27.734375 64.59375 
Q 21.390625 64.59375 17.578125 60.78125 
Q 13.765625 56.984375 13.71875 50.25 
L 4.6875 51.171875 
Q 5.609375 61.28125 11.65625 66.578125 
Q 17.71875 71.875 27.9375 71.875 
Q 38.234375 71.875 44.234375 66.15625 
Q 50.25 60.453125 50.25 52 
Q 50.25 47.703125 48.484375 43.546875 
Q 46.734375 39.40625 42.65625 34.8125 
Q 38.578125 30.21875 29.109375 22.21875 
Q 21.1875 15.578125 18.9375 13.203125 
Q 16.703125 10.84375 15.234375 8.453125 
z
" id="ArialMT-50"/>
      </defs>
      <g style="fill:#262626;" transform="translate(123.531537 330.866719)scale(0.11 -0.11)">
       <use xlink:href="#ArialMT-50"/>
       <use x="55.615234" xlink:href="#ArialMT-48"/>
       <use x="111.230469" xlink:href="#ArialMT-48"/>
       <use x="166.845703" xlink:href="#ArialMT-48"/>
      </g>
     </g>
    </g>
    <g id="xtick_3">
     <g id="line2d_3">
      <path clip-path="url(#p414770ea5c)" d="M 178.50971 313.493125 
L 178.50971 18.96 
" style="fill:none;stroke:#ffffff;stroke-linecap:round;"/>
     </g>
     <g id="text_3">
      <!-- 4000 -->
      <defs>
       <path d="M 32.328125 0 
L 32.328125 17.140625 
L 1.265625 17.140625 
L 1.265625 25.203125 
L 33.9375 71.578125 
L 41.109375 71.578125 
L 41.109375 25.203125 
L 50.78125 25.203125 
L 50.78125 17.140625 
L 41.109375 17.140625 
L 41.109375 0 
z
M 32.328125 25.203125 
L 32.328125 57.46875 
L 9.90625 25.203125 
z
" id="ArialMT-52"/>
      </defs>
      <g style="fill:#262626;" transform="translate(166.275647 330.866719)scale(0.11 -0.11)">
       <use xlink:href="#ArialMT-52"/>
       <use x="55.615234" xlink:href="#ArialMT-48"/>
       <use x="111.230469" xlink:href="#ArialMT-48"/>
       <use x="166.845703" xlink:href="#ArialMT-48"/>
      </g>
     </g>
    </g>
    <g id="xtick_4">
     <g id="line2d_4">
      <path clip-path="url(#p414770ea5c)" d="M 221.25382 313.493125 
L 221.25382 18.96 
" style="fill:none;stroke:#ffffff;stroke-linecap:round;"/>
     </g>
     <g id="text_4">
      <!-- 6000 -->
      <defs>
       <path d="M 49.75 54.046875 
L 41.015625 53.375 
Q 39.84375 58.546875 37.703125 60.890625 
Q 34.125 64.65625 28.90625 64.65625 
Q 24.703125 64.65625 21.53125 62.3125 
Q 17.390625 59.28125 14.984375 53.46875 
Q 12.59375 47.65625 12.5 36.921875 
Q 15.671875 41.75 20.265625 44.09375 
Q 24.859375 46.4375 29.890625 46.4375 
Q 38.671875 46.4375 44.84375 39.96875 
Q 51.03125 33.5 51.03125 23.25 
Q 51.03125 16.5 48.125 10.71875 
Q 45.21875 4.9375 40.140625 1.859375 
Q 35.0625 -1.21875 28.609375 -1.21875 
Q 17.625 -1.21875 10.6875 6.859375 
Q 3.765625 14.9375 3.765625 33.5 
Q 3.765625 54.25 11.421875 63.671875 
Q 18.109375 71.875 29.4375 71.875 
Q 37.890625 71.875 43.28125 67.140625 
Q 48.6875 62.40625 49.75 54.046875 
z
M 13.875 23.1875 
Q 13.875 18.65625 15.796875 14.5 
Q 17.71875 10.359375 21.1875 8.171875 
Q 24.65625 6 28.46875 6 
Q 34.03125 6 38.03125 10.484375 
Q 42.046875 14.984375 42.046875 22.703125 
Q 42.046875 30.125 38.078125 34.390625 
Q 34.125 38.671875 28.125 38.671875 
Q 22.171875 38.671875 18.015625 34.390625 
Q 13.875 30.125 13.875 23.1875 
z
" id="ArialMT-54"/>
      </defs>
      <g style="fill:#262626;" transform="translate(209.019758 330.866719)scale(0.11 -0.11)">
       <use xlink:href="#ArialMT-54"/>
       <use x="55.615234" xlink:href="#ArialMT-48"/>
       <use x="111.230469" xlink:href="#ArialMT-48"/>
       <use x="166.845703" xlink:href="#ArialMT-48"/>
      </g>
     </g>
    </g>
    <g id="xtick_5">
     <g id="line2d_5">
      <path clip-path="url(#p414770ea5c)" d="M 263.997931 313.493125 
L 263.997931 18.96 
" style="fill:none;stroke:#ffffff;stroke-linecap:round;"/>
     </g>
     <g id="text_5">
      <!-- 8000 -->
      <defs>
       <path d="M 17.671875 38.8125 
Q 12.203125 40.828125 9.5625 44.53125 
Q 6.9375 48.25 6.9375 53.421875 
Q 6.9375 61.234375 12.546875 66.546875 
Q 18.171875 71.875 27.484375 71.875 
Q 36.859375 71.875 42.578125 66.421875 
Q 48.296875 60.984375 48.296875 53.171875 
Q 48.296875 48.1875 45.671875 44.5 
Q 43.0625 40.828125 37.75 38.8125 
Q 44.34375 36.671875 47.78125 31.875 
Q 51.21875 27.09375 51.21875 20.453125 
Q 51.21875 11.28125 44.71875 5.03125 
Q 38.234375 -1.21875 27.640625 -1.21875 
Q 17.046875 -1.21875 10.546875 5.046875 
Q 4.046875 11.328125 4.046875 20.703125 
Q 4.046875 27.6875 7.59375 32.390625 
Q 11.140625 37.109375 17.671875 38.8125 
z
M 15.921875 53.71875 
Q 15.921875 48.640625 19.1875 45.40625 
Q 22.46875 42.1875 27.6875 42.1875 
Q 32.765625 42.1875 36.015625 45.375 
Q 39.265625 48.578125 39.265625 53.21875 
Q 39.265625 58.0625 35.90625 61.359375 
Q 32.5625 64.65625 27.59375 64.65625 
Q 22.5625 64.65625 19.234375 61.421875 
Q 15.921875 58.203125 15.921875 53.71875 
z
M 13.09375 20.65625 
Q 13.09375 16.890625 14.875 13.375 
Q 16.65625 9.859375 20.171875 7.921875 
Q 23.6875 6 27.734375 6 
Q 34.03125 6 38.125 10.046875 
Q 42.234375 14.109375 42.234375 20.359375 
Q 42.234375 26.703125 38.015625 30.859375 
Q 33.796875 35.015625 27.4375 35.015625 
Q 21.234375 35.015625 17.15625 30.90625 
Q 13.09375 26.8125 13.09375 20.65625 
z
" id="ArialMT-56"/>
      </defs>
      <g style="fill:#262626;" transform="translate(251.763868 330.866719)scale(0.11 -0.11)">
       <use xlink:href="#ArialMT-56"/>
       <use x="55.615234" xlink:href="#ArialMT-48"/>
       <use x="111.230469" xlink:href="#ArialMT-48"/>
       <use x="166.845703" xlink:href="#ArialMT-48"/>
      </g>
     </g>
    </g>
    <g id="xtick_6">
     <g id="line2d_6">
      <path clip-path="url(#p414770ea5c)" d="M 306.742041 313.493125 
L 306.742041 18.96 
" style="fill:none;stroke:#ffffff;stroke-linecap:round;"/>
     </g>
     <g id="text_6">
      <!-- 10000 -->
      <defs>
       <path d="M 37.25 0 
L 28.46875 0 
L 28.46875 56 
Q 25.296875 52.984375 20.140625 49.953125 
Q 14.984375 46.921875 10.890625 45.40625 
L 10.890625 53.90625 
Q 18.265625 57.375 23.78125 62.296875 
Q 29.296875 67.234375 31.59375 71.875 
L 37.25 71.875 
z
" id="ArialMT-49"/>
      </defs>
      <g style="fill:#262626;" transform="translate(291.449463 330.866719)scale(0.11 -0.11)">
       <use xlink:href="#ArialMT-49"/>
       <use x="55.615234" xlink:href="#ArialMT-48"/>
       <use x="111.230469" xlink:href="#ArialMT-48"/>
       <use x="166.845703" xlink:href="#ArialMT-48"/>
       <use x="222.460938" xlink:href="#ArialMT-48"/>
      </g>
     </g>
    </g>
    <g id="text_7">
     <!-- latency -->
     <defs>
      <path d="M 6.390625 0 
L 6.390625 71.578125 
L 15.1875 71.578125 
L 15.1875 0 
z
" id="ArialMT-108"/>
      <path d="M 40.4375 6.390625 
Q 35.546875 2.25 31.03125 0.53125 
Q 26.515625 -1.171875 21.34375 -1.171875 
Q 12.796875 -1.171875 8.203125 3 
Q 3.609375 7.171875 3.609375 13.671875 
Q 3.609375 17.484375 5.34375 20.625 
Q 7.078125 23.78125 9.890625 25.6875 
Q 12.703125 27.59375 16.21875 28.5625 
Q 18.796875 29.25 24.03125 29.890625 
Q 34.671875 31.15625 39.703125 32.90625 
Q 39.75 34.71875 39.75 35.203125 
Q 39.75 40.578125 37.25 42.78125 
Q 33.890625 45.75 27.25 45.75 
Q 21.046875 45.75 18.09375 43.578125 
Q 15.140625 41.40625 13.71875 35.890625 
L 5.125 37.0625 
Q 6.296875 42.578125 8.984375 45.96875 
Q 11.671875 49.359375 16.75 51.1875 
Q 21.828125 53.03125 28.515625 53.03125 
Q 35.15625 53.03125 39.296875 51.46875 
Q 43.453125 49.90625 45.40625 47.53125 
Q 47.359375 45.171875 48.140625 41.546875 
Q 48.578125 39.3125 48.578125 33.453125 
L 48.578125 21.734375 
Q 48.578125 9.46875 49.140625 6.21875 
Q 49.703125 2.984375 51.375 0 
L 42.1875 0 
Q 40.828125 2.734375 40.4375 6.390625 
z
M 39.703125 26.03125 
Q 34.90625 24.078125 25.34375 22.703125 
Q 19.921875 21.921875 17.671875 20.9375 
Q 15.4375 19.96875 14.203125 18.09375 
Q 12.984375 16.21875 12.984375 13.921875 
Q 12.984375 10.40625 15.640625 8.0625 
Q 18.3125 5.71875 23.4375 5.71875 
Q 28.515625 5.71875 32.46875 7.9375 
Q 36.421875 10.15625 38.28125 14.015625 
Q 39.703125 17 39.703125 22.796875 
z
" id="ArialMT-97"/>
      <path d="M 25.78125 7.859375 
L 27.046875 0.09375 
Q 23.34375 -0.6875 20.40625 -0.6875 
Q 15.625 -0.6875 12.984375 0.828125 
Q 10.359375 2.34375 9.28125 4.8125 
Q 8.203125 7.28125 8.203125 15.1875 
L 8.203125 45.015625 
L 1.765625 45.015625 
L 1.765625 51.859375 
L 8.203125 51.859375 
L 8.203125 64.703125 
L 16.9375 69.96875 
L 16.9375 51.859375 
L 25.78125 51.859375 
L 25.78125 45.015625 
L 16.9375 45.015625 
L 16.9375 14.703125 
Q 16.9375 10.9375 17.40625 9.859375 
Q 17.875 8.796875 18.921875 8.15625 
Q 19.96875 7.515625 21.921875 7.515625 
Q 23.390625 7.515625 25.78125 7.859375 
z
" id="ArialMT-116"/>
      <path d="M 42.09375 16.703125 
L 51.171875 15.578125 
Q 49.03125 7.625 43.21875 3.21875 
Q 37.40625 -1.171875 28.375 -1.171875 
Q 17 -1.171875 10.328125 5.828125 
Q 3.65625 12.84375 3.65625 25.484375 
Q 3.65625 38.578125 10.390625 45.796875 
Q 17.140625 53.03125 27.875 53.03125 
Q 38.28125 53.03125 44.875 45.953125 
Q 51.46875 38.875 51.46875 26.03125 
Q 51.46875 25.25 51.421875 23.6875 
L 12.75 23.6875 
Q 13.234375 15.140625 17.578125 10.59375 
Q 21.921875 6.0625 28.421875 6.0625 
Q 33.25 6.0625 36.671875 8.59375 
Q 40.09375 11.140625 42.09375 16.703125 
z
M 13.234375 30.90625 
L 42.1875 30.90625 
Q 41.609375 37.453125 38.875 40.71875 
Q 34.671875 45.796875 27.984375 45.796875 
Q 21.921875 45.796875 17.796875 41.75 
Q 13.671875 37.703125 13.234375 30.90625 
z
" id="ArialMT-101"/>
      <path d="M 6.59375 0 
L 6.59375 51.859375 
L 14.5 51.859375 
L 14.5 44.484375 
Q 20.21875 53.03125 31 53.03125 
Q 35.6875 53.03125 39.625 51.34375 
Q 43.5625 49.65625 45.515625 46.921875 
Q 47.46875 44.1875 48.25 40.4375 
Q 48.734375 37.984375 48.734375 31.890625 
L 48.734375 0 
L 39.9375 0 
L 39.9375 31.546875 
Q 39.9375 36.921875 38.90625 39.578125 
Q 37.890625 42.234375 35.28125 43.8125 
Q 32.671875 45.40625 29.15625 45.40625 
Q 23.53125 45.40625 19.453125 41.84375 
Q 15.375 38.28125 15.375 28.328125 
L 15.375 0 
z
" id="ArialMT-110"/>
      <path d="M 40.4375 19 
L 49.078125 17.875 
Q 47.65625 8.9375 41.8125 3.875 
Q 35.984375 -1.171875 27.484375 -1.171875 
Q 16.84375 -1.171875 10.375 5.78125 
Q 3.90625 12.75 3.90625 25.734375 
Q 3.90625 34.125 6.6875 40.421875 
Q 9.46875 46.734375 15.15625 49.875 
Q 20.84375 53.03125 27.546875 53.03125 
Q 35.984375 53.03125 41.359375 48.75 
Q 46.734375 44.484375 48.25 36.625 
L 39.703125 35.296875 
Q 38.484375 40.53125 35.375 43.15625 
Q 32.28125 45.796875 27.875 45.796875 
Q 21.234375 45.796875 17.078125 41.03125 
Q 12.9375 36.28125 12.9375 25.984375 
Q 12.9375 15.53125 16.9375 10.796875 
Q 20.953125 6.0625 27.390625 6.0625 
Q 32.5625 6.0625 36.03125 9.234375 
Q 39.5 12.40625 40.4375 19 
z
" id="ArialMT-99"/>
      <path d="M 6.203125 -19.96875 
L 5.21875 -11.71875 
Q 8.109375 -12.5 10.25 -12.5 
Q 13.1875 -12.5 14.9375 -11.515625 
Q 16.703125 -10.546875 17.828125 -8.796875 
Q 18.65625 -7.46875 20.515625 -2.25 
Q 20.75 -1.515625 21.296875 -0.09375 
L 1.609375 51.859375 
L 11.078125 51.859375 
L 21.875 21.828125 
Q 23.96875 16.109375 25.640625 9.8125 
Q 27.15625 15.875 29.25 21.625 
L 40.328125 51.859375 
L 49.125 51.859375 
L 29.390625 -0.875 
Q 26.21875 -9.421875 24.46875 -12.640625 
Q 22.125 -17 19.09375 -19.015625 
Q 16.0625 -21.046875 11.859375 -21.046875 
Q 9.328125 -21.046875 6.203125 -19.96875 
z
" id="ArialMT-121"/>
     </defs>
     <g style="fill:#262626;" transform="translate(191.115313 345.642344)scale(0.12 -0.12)">
      <use xlink:href="#ArialMT-108"/>
      <use x="22.216797" xlink:href="#ArialMT-97"/>
      <use x="77.832031" xlink:href="#ArialMT-116"/>
      <use x="105.615234" xlink:href="#ArialMT-101"/>
      <use x="161.230469" xlink:href="#ArialMT-110"/>
      <use x="216.845703" xlink:href="#ArialMT-99"/>
      <use x="266.845703" xlink:href="#ArialMT-121"/>
     </g>
    </g>
   </g>
   <g id="matplotlib.axis_2">
    <g id="ytick_1">
     <g id="text_8">
      <!-- vit_b_16 -->
      <defs>
       <path d="M 21 0 
L 1.265625 51.859375 
L 10.546875 51.859375 
L 21.6875 20.796875 
Q 23.484375 15.765625 25 10.359375 
Q 26.171875 14.453125 28.265625 20.21875 
L 39.796875 51.859375 
L 48.828125 51.859375 
L 29.203125 0 
z
" id="ArialMT-118"/>
       <path d="M 6.640625 61.46875 
L 6.640625 71.578125 
L 15.4375 71.578125 
L 15.4375 61.46875 
z
M 6.640625 0 
L 6.640625 51.859375 
L 15.4375 51.859375 
L 15.4375 0 
z
" id="ArialMT-105"/>
       <path d="M -1.515625 -19.875 
L -1.515625 -13.53125 
L 56.734375 -13.53125 
L 56.734375 -19.875 
z
" id="ArialMT-95"/>
       <path d="M 14.703125 0 
L 6.546875 0 
L 6.546875 71.578125 
L 15.328125 71.578125 
L 15.328125 46.046875 
Q 20.90625 53.03125 29.546875 53.03125 
Q 34.328125 53.03125 38.59375 51.09375 
Q 42.875 49.171875 45.625 45.671875 
Q 48.390625 42.1875 49.953125 37.25 
Q 51.515625 32.328125 51.515625 26.703125 
Q 51.515625 13.375 44.921875 6.09375 
Q 38.328125 -1.171875 29.109375 -1.171875 
Q 19.921875 -1.171875 14.703125 6.5 
z
M 14.59375 26.3125 
Q 14.59375 17 17.140625 12.84375 
Q 21.296875 6.0625 28.375 6.0625 
Q 34.125 6.0625 38.328125 11.0625 
Q 42.53125 16.0625 42.53125 25.984375 
Q 42.53125 36.140625 38.5 40.96875 
Q 34.46875 45.796875 28.765625 45.796875 
Q 23 45.796875 18.796875 40.796875 
Q 14.59375 35.796875 14.59375 26.3125 
z
" id="ArialMT-98"/>
      </defs>
      <g style="fill:#262626;" transform="translate(28.124844 72.001979)scale(0.11 -0.11)">
       <use xlink:href="#ArialMT-118"/>
       <use x="50" xlink:href="#ArialMT-105"/>
       <use x="72.216797" xlink:href="#ArialMT-116"/>
       <use x="100" xlink:href="#ArialMT-95"/>
       <use x="155.615234" xlink:href="#ArialMT-98"/>
       <use x="211.230469" xlink:href="#ArialMT-95"/>
       <use x="266.845703" xlink:href="#ArialMT-49"/>
       <use x="322.460938" xlink:href="#ArialMT-54"/>
      </g>
     </g>
    </g>
    <g id="ytick_2">
     <g id="text_9">
      <!-- vgg11 -->
      <defs>
       <path d="M 4.984375 -4.296875 
L 13.53125 -5.5625 
Q 14.0625 -9.515625 16.5 -11.328125 
Q 19.78125 -13.765625 25.4375 -13.765625 
Q 31.546875 -13.765625 34.859375 -11.328125 
Q 38.1875 -8.890625 39.359375 -4.5 
Q 40.046875 -1.8125 39.984375 6.78125 
Q 34.234375 0 25.640625 0 
Q 14.9375 0 9.078125 7.71875 
Q 3.21875 15.4375 3.21875 26.21875 
Q 3.21875 33.640625 5.90625 39.90625 
Q 8.59375 46.1875 13.6875 49.609375 
Q 18.796875 53.03125 25.6875 53.03125 
Q 34.859375 53.03125 40.828125 45.609375 
L 40.828125 51.859375 
L 48.921875 51.859375 
L 48.921875 7.03125 
Q 48.921875 -5.078125 46.453125 -10.125 
Q 44 -15.1875 38.640625 -18.109375 
Q 33.296875 -21.046875 25.484375 -21.046875 
Q 16.21875 -21.046875 10.5 -16.875 
Q 4.78125 -12.703125 4.984375 -4.296875 
z
M 12.25 26.859375 
Q 12.25 16.65625 16.296875 11.96875 
Q 20.359375 7.28125 26.46875 7.28125 
Q 32.515625 7.28125 36.609375 11.9375 
Q 40.71875 16.609375 40.71875 26.5625 
Q 40.71875 36.078125 36.5 40.90625 
Q 32.28125 45.75 26.3125 45.75 
Q 20.453125 45.75 16.34375 40.984375 
Q 12.25 36.234375 12.25 26.859375 
z
" id="ArialMT-103"/>
      </defs>
      <g style="fill:#262626;" transform="translate(39.753906 170.179688)scale(0.11 -0.11)">
       <use xlink:href="#ArialMT-118"/>
       <use x="50" xlink:href="#ArialMT-103"/>
       <use x="105.615234" xlink:href="#ArialMT-103"/>
       <use x="161.230469" xlink:href="#ArialMT-49"/>
       <use x="216.736328" xlink:href="#ArialMT-49"/>
      </g>
     </g>
    </g>
    <g id="ytick_3">
     <g id="text_10">
      <!-- resnet50 -->
      <defs>
       <path d="M 6.5 0 
L 6.5 51.859375 
L 14.40625 51.859375 
L 14.40625 44 
Q 17.4375 49.515625 20 51.265625 
Q 22.5625 53.03125 25.640625 53.03125 
Q 30.078125 53.03125 34.671875 50.203125 
L 31.640625 42.046875 
Q 28.421875 43.953125 25.203125 43.953125 
Q 22.3125 43.953125 20.015625 42.21875 
Q 17.71875 40.484375 16.75 37.40625 
Q 15.28125 32.71875 15.28125 27.15625 
L 15.28125 0 
z
" id="ArialMT-114"/>
       <path d="M 3.078125 15.484375 
L 11.765625 16.84375 
Q 12.5 11.625 15.84375 8.84375 
Q 19.1875 6.0625 25.203125 6.0625 
Q 31.25 6.0625 34.171875 8.515625 
Q 37.109375 10.984375 37.109375 14.3125 
Q 37.109375 17.28125 34.515625 19 
Q 32.71875 20.171875 25.53125 21.96875 
Q 15.875 24.421875 12.140625 26.203125 
Q 8.40625 27.984375 6.46875 31.125 
Q 4.546875 34.28125 4.546875 38.09375 
Q 4.546875 41.546875 6.125 44.5 
Q 7.71875 47.46875 10.453125 49.421875 
Q 12.5 50.921875 16.03125 51.96875 
Q 19.578125 53.03125 23.640625 53.03125 
Q 29.734375 53.03125 34.34375 51.265625 
Q 38.96875 49.515625 41.15625 46.5 
Q 43.359375 43.5 44.1875 38.484375 
L 35.59375 37.3125 
Q 35.015625 41.3125 32.203125 43.546875 
Q 29.390625 45.796875 24.265625 45.796875 
Q 18.21875 45.796875 15.625 43.796875 
Q 13.03125 41.796875 13.03125 39.109375 
Q 13.03125 37.40625 14.109375 36.03125 
Q 15.1875 34.625 17.484375 33.6875 
Q 18.796875 33.203125 25.25 31.453125 
Q 34.578125 28.953125 38.25 27.359375 
Q 41.9375 25.78125 44.03125 22.75 
Q 46.140625 19.734375 46.140625 15.234375 
Q 46.140625 10.84375 43.578125 6.953125 
Q 41.015625 3.078125 36.171875 0.953125 
Q 31.34375 -1.171875 25.25 -1.171875 
Q 15.140625 -1.171875 9.84375 3.03125 
Q 4.546875 7.234375 3.078125 15.484375 
z
" id="ArialMT-115"/>
       <path d="M 4.15625 18.75 
L 13.375 19.53125 
Q 14.40625 12.796875 18.140625 9.390625 
Q 21.875 6 27.15625 6 
Q 33.5 6 37.890625 10.78125 
Q 42.28125 15.578125 42.28125 23.484375 
Q 42.28125 31 38.0625 35.34375 
Q 33.84375 39.703125 27 39.703125 
Q 22.75 39.703125 19.328125 37.765625 
Q 15.921875 35.84375 13.96875 32.765625 
L 5.71875 33.84375 
L 12.640625 70.609375 
L 48.25 70.609375 
L 48.25 62.203125 
L 19.671875 62.203125 
L 15.828125 42.96875 
Q 22.265625 47.46875 29.34375 47.46875 
Q 38.71875 47.46875 45.15625 40.96875 
Q 51.609375 34.46875 51.609375 24.265625 
Q 51.609375 14.546875 45.953125 7.46875 
Q 39.0625 -1.21875 27.15625 -1.21875 
Q 17.390625 -1.21875 11.203125 4.25 
Q 5.03125 9.71875 4.15625 18.75 
z
" id="ArialMT-53"/>
      </defs>
      <g style="fill:#262626;" transform="translate(26.90625 268.341068)scale(0.11 -0.11)">
       <use xlink:href="#ArialMT-114"/>
       <use x="33.300781" xlink:href="#ArialMT-101"/>
       <use x="88.916016" xlink:href="#ArialMT-115"/>
       <use x="138.916016" xlink:href="#ArialMT-110"/>
       <use x="194.53125" xlink:href="#ArialMT-101"/>
       <use x="250.146484" xlink:href="#ArialMT-116"/>
       <use x="277.929688" xlink:href="#ArialMT-53"/>
       <use x="333.544922" xlink:href="#ArialMT-48"/>
      </g>
     </g>
    </g>
    <g id="text_11">
     <!-- model -->
     <defs>
      <path d="M 6.59375 0 
L 6.59375 51.859375 
L 14.453125 51.859375 
L 14.453125 44.578125 
Q 16.890625 48.390625 20.9375 50.703125 
Q 25 53.03125 30.171875 53.03125 
Q 35.9375 53.03125 39.625 50.640625 
Q 43.3125 48.25 44.828125 43.953125 
Q 50.984375 53.03125 60.84375 53.03125 
Q 68.5625 53.03125 72.703125 48.75 
Q 76.859375 44.484375 76.859375 35.59375 
L 76.859375 0 
L 68.109375 0 
L 68.109375 32.671875 
Q 68.109375 37.9375 67.25 40.25 
Q 66.40625 42.578125 64.15625 43.984375 
Q 61.921875 45.40625 58.890625 45.40625 
Q 53.421875 45.40625 49.796875 41.765625 
Q 46.1875 38.140625 46.1875 30.125 
L 46.1875 0 
L 37.40625 0 
L 37.40625 33.6875 
Q 37.40625 39.546875 35.25 42.46875 
Q 33.109375 45.40625 28.21875 45.40625 
Q 24.515625 45.40625 21.359375 43.453125 
Q 18.21875 41.5 16.796875 37.734375 
Q 15.375 33.984375 15.375 26.90625 
L 15.375 0 
z
" id="ArialMT-109"/>
      <path d="M 3.328125 25.921875 
Q 3.328125 40.328125 11.328125 47.265625 
Q 18.015625 53.03125 27.640625 53.03125 
Q 38.328125 53.03125 45.109375 46.015625 
Q 51.90625 39.015625 51.90625 26.65625 
Q 51.90625 16.65625 48.90625 10.90625 
Q 45.90625 5.171875 40.15625 2 
Q 34.421875 -1.171875 27.640625 -1.171875 
Q 16.75 -1.171875 10.03125 5.8125 
Q 3.328125 12.796875 3.328125 25.921875 
z
M 12.359375 25.921875 
Q 12.359375 15.96875 16.703125 11.015625 
Q 21.046875 6.0625 27.640625 6.0625 
Q 34.1875 6.0625 38.53125 11.03125 
Q 42.875 16.015625 42.875 26.21875 
Q 42.875 35.84375 38.5 40.796875 
Q 34.125 45.75 27.640625 45.75 
Q 21.046875 45.75 16.703125 40.8125 
Q 12.359375 35.890625 12.359375 25.921875 
z
" id="ArialMT-111"/>
      <path d="M 40.234375 0 
L 40.234375 6.546875 
Q 35.296875 -1.171875 25.734375 -1.171875 
Q 19.53125 -1.171875 14.328125 2.25 
Q 9.125 5.671875 6.265625 11.796875 
Q 3.421875 17.921875 3.421875 25.875 
Q 3.421875 33.640625 6 39.96875 
Q 8.59375 46.296875 13.765625 49.65625 
Q 18.953125 53.03125 25.34375 53.03125 
Q 30.03125 53.03125 33.6875 51.046875 
Q 37.359375 49.078125 39.65625 45.90625 
L 39.65625 71.578125 
L 48.390625 71.578125 
L 48.390625 0 
z
M 12.453125 25.875 
Q 12.453125 15.921875 16.640625 10.984375 
Q 20.84375 6.0625 26.5625 6.0625 
Q 32.328125 6.0625 36.34375 10.765625 
Q 40.375 15.484375 40.375 25.140625 
Q 40.375 35.796875 36.265625 40.765625 
Q 32.171875 45.75 26.171875 45.75 
Q 20.3125 45.75 16.375 40.96875 
Q 12.453125 36.1875 12.453125 25.875 
z
" id="ArialMT-100"/>
     </defs>
     <g style="fill:#262626;" transform="translate(20.52125 182.567188)rotate(-90)scale(0.12 -0.12)">
      <use xlink:href="#ArialMT-109"/>
      <use x="83.300781" xlink:href="#ArialMT-111"/>
      <use x="138.916016" xlink:href="#ArialMT-100"/>
      <use x="194.53125" xlink:href="#ArialMT-101"/>
      <use x="250.146484" xlink:href="#ArialMT-108"/>
     </g>
    </g>
   </g>
   <g id="patch_3">
    <path d="M 79.21 313.493125 
L 79.21 18.96 
" style="fill:none;stroke:#ffffff;stroke-linecap:square;stroke-linejoin:miter;stroke-width:1.25;"/>
   </g>
   <g id="patch_4">
    <path d="M 79.21 313.493125 
L 341.04 313.493125 
" style="fill:none;stroke:#ffffff;stroke-linecap:square;stroke-linejoin:miter;stroke-width:1.25;"/>
   </g>
   <g id="PathCollection_1">
    <defs>
     <path d="M 0 2.5 
C 0.663008 2.5 1.29895 2.236584 1.767767 1.767767 
C 2.236584 1.29895 2.5 0.663008 2.5 0 
C 2.5 -0.663008 2.236584 -1.29895 1.767767 -1.767767 
C 1.29895 -2.236584 0.663008 -2.5 0 -2.5 
C -0.663008 -2.5 -1.29895 -2.236584 -1.767767 -1.767767 
C -2.236584 -1.29895 -2.5 -0.663008 -2.5 0 
C -2.5 0.663008 -2.236584 1.29895 -1.767767 1.767767 
C -1.29895 2.236584 -0.663008 2.5 0 2.5 
z
" id="C0_0_067ff8dcaf"/>
    </defs>
    <g clip-path="url(#p414770ea5c)">
     <use style="fill:#4c72b0;" x="94.171733" xlink:href="#C0_0_067ff8dcaf" y="58.786479"/>
    </g>
    <g clip-path="url(#p414770ea5c)">
     <use style="fill:#4c72b0;" x="99.062942" xlink:href="#C0_0_067ff8dcaf" y="64.700508"/>
    </g>
    <g clip-path="url(#p414770ea5c)">
     <use style="fill:#4c72b0;" x="96.282223" xlink:href="#C0_0_067ff8dcaf" y="75.168799"/>
    </g>
    <g clip-path="url(#p414770ea5c)">
     <use style="fill:#4c72b0;" x="99.584633" xlink:href="#C0_0_067ff8dcaf" y="63.848239"/>
    </g>
    <g clip-path="url(#p414770ea5c)">
     <use style="fill:#4c72b0;" x="99.196517" xlink:href="#C0_0_067ff8dcaf" y="75.057048"/>
    </g>
    <g clip-path="url(#p414770ea5c)">
     <use style="fill:#4c72b0;" x="100.621606" xlink:href="#C0_0_067ff8dcaf" y="72.783725"/>
    </g>
    <g clip-path="url(#p414770ea5c)">
     <use style="fill:#4c72b0;" x="99.940264" xlink:href="#C0_0_067ff8dcaf" y="59.586311"/>
    </g>
    <g clip-path="url(#p414770ea5c)">
     <use style="fill:#4c72b0;" x="101.707306" xlink:href="#C0_0_067ff8dcaf" y="62.402619"/>
    </g>
    <g clip-path="url(#p414770ea5c)">
     <use style="fill:#4c72b0;" x="103.048616" xlink:href="#C0_0_067ff8dcaf" y="74.201284"/>
    </g>
    <g clip-path="url(#p414770ea5c)">
     <use style="fill:#4c72b0;" x="102.830194" xlink:href="#C0_0_067ff8dcaf" y="66.026298"/>
    </g>
    <g clip-path="url(#p414770ea5c)">
     <use style="fill:#4c72b0;" x="108.704303" xlink:href="#C0_0_067ff8dcaf" y="74.806067"/>
    </g>
    <g clip-path="url(#p414770ea5c)">
     <use style="fill:#4c72b0;" x="110.534392" xlink:href="#C0_0_067ff8dcaf" y="74.744201"/>
    </g>
    <g clip-path="url(#p414770ea5c)">
     <use style="fill:#4c72b0;" x="124.583526" xlink:href="#C0_0_067ff8dcaf" y="67.837966"/>
    </g>
    <g clip-path="url(#p414770ea5c)">
     <use style="fill:#4c72b0;" x="123.728858" xlink:href="#C0_0_067ff8dcaf" y="69.827686"/>
    </g>
    <g clip-path="url(#p414770ea5c)">
     <use style="fill:#4c72b0;" x="171.201108" xlink:href="#C0_0_067ff8dcaf" y="60.122483"/>
    </g>
    <g clip-path="url(#p414770ea5c)">
     <use style="fill:#4c72b0;" x="167.148539" xlink:href="#C0_0_067ff8dcaf" y="70.742841"/>
    </g>
    <g clip-path="url(#p414770ea5c)">
     <use style="fill:#4c72b0;" x="208.216012" xlink:href="#C0_0_067ff8dcaf" y="75.897383"/>
    </g>
    <g clip-path="url(#p414770ea5c)">
     <use style="fill:#4c72b0;" x="241.129618" xlink:href="#C0_0_067ff8dcaf" y="58.480484"/>
    </g>
    <g clip-path="url(#p414770ea5c)">
     <use style="fill:#4c72b0;" x="94.784042" xlink:href="#C0_0_067ff8dcaf" y="70.492056"/>
    </g>
    <g clip-path="url(#p414770ea5c)">
     <use style="fill:#4c72b0;" x="104.426473" xlink:href="#C0_0_067ff8dcaf" y="75.4846"/>
    </g>
    <g clip-path="url(#p414770ea5c)">
     <use style="fill:#4c72b0;" x="94.773997" xlink:href="#C0_0_067ff8dcaf" y="71.583525"/>
    </g>
    <g clip-path="url(#p414770ea5c)">
     <use style="fill:#4c72b0;" x="105.065924" xlink:href="#C0_0_067ff8dcaf" y="64.492617"/>
    </g>
    <g clip-path="url(#p414770ea5c)">
     <use style="fill:#4c72b0;" x="98.794509" xlink:href="#C0_0_067ff8dcaf" y="63.771388"/>
    </g>
    <g clip-path="url(#p414770ea5c)">
     <use style="fill:#4c72b0;" x="106.056733" xlink:href="#C0_0_067ff8dcaf" y="60.897254"/>
    </g>
    <g clip-path="url(#p414770ea5c)">
     <use style="fill:#4c72b0;" x="98.049265" xlink:href="#C0_0_067ff8dcaf" y="61.506841"/>
    </g>
    <g clip-path="url(#p414770ea5c)">
     <use style="fill:#4c72b0;" x="107.187956" xlink:href="#C0_0_067ff8dcaf" y="76.469949"/>
    </g>
    <g clip-path="url(#p414770ea5c)">
     <use style="fill:#4c72b0;" x="101.826776" xlink:href="#C0_0_067ff8dcaf" y="67.956336"/>
    </g>
    <g clip-path="url(#p414770ea5c)">
     <use style="fill:#4c72b0;" x="108.188382" xlink:href="#C0_0_067ff8dcaf" y="71.857773"/>
    </g>
    <g clip-path="url(#p414770ea5c)">
     <use style="fill:#4c72b0;" x="101.679095" xlink:href="#C0_0_067ff8dcaf" y="76.582474"/>
    </g>
    <g clip-path="url(#p414770ea5c)">
     <use style="fill:#4c72b0;" x="122.230036" xlink:href="#C0_0_067ff8dcaf" y="66.699862"/>
    </g>
    <g clip-path="url(#p414770ea5c)">
     <use style="fill:#4c72b0;" x="114.1888" xlink:href="#C0_0_067ff8dcaf" y="67.780326"/>
    </g>
    <g clip-path="url(#p414770ea5c)">
     <use style="fill:#4c72b0;" x="142.525794" xlink:href="#C0_0_067ff8dcaf" y="75.3419"/>
    </g>
    <g clip-path="url(#p414770ea5c)">
     <use style="fill:#4c72b0;" x="148.228072" xlink:href="#C0_0_067ff8dcaf" y="75.528785"/>
    </g>
    <g clip-path="url(#p414770ea5c)">
     <use style="fill:#4c72b0;" x="211.254904" xlink:href="#C0_0_067ff8dcaf" y="76.372737"/>
    </g>
    <g clip-path="url(#p414770ea5c)">
     <use style="fill:#4c72b0;" x="194.93157" xlink:href="#C0_0_067ff8dcaf" y="77.154546"/>
    </g>
    <g clip-path="url(#p414770ea5c)">
     <use style="fill:#4c72b0;" x="329.138459" xlink:href="#C0_0_067ff8dcaf" y="67.359172"/>
    </g>
    <g clip-path="url(#p414770ea5c)">
     <use style="fill:#4c72b0;" x="96.183698" xlink:href="#C0_0_067ff8dcaf" y="76.291372"/>
    </g>
    <g clip-path="url(#p414770ea5c)">
     <use style="fill:#4c72b0;" x="98.315561" xlink:href="#C0_0_067ff8dcaf" y="70.554556"/>
    </g>
    <g clip-path="url(#p414770ea5c)">
     <use style="fill:#4c72b0;" x="100.813954" xlink:href="#C0_0_067ff8dcaf" y="64.650164"/>
    </g>
    <g clip-path="url(#p414770ea5c)">
     <use style="fill:#4c72b0;" x="98.901155" xlink:href="#C0_0_067ff8dcaf" y="68.382067"/>
    </g>
    <g clip-path="url(#p414770ea5c)">
     <use style="fill:#4c72b0;" x="105.509822" xlink:href="#C0_0_067ff8dcaf" y="61.800192"/>
    </g>
    <g clip-path="url(#p414770ea5c)">
     <use style="fill:#4c72b0;" x="100.161893" xlink:href="#C0_0_067ff8dcaf" y="62.606587"/>
    </g>
    <g clip-path="url(#p414770ea5c)">
     <use style="fill:#4c72b0;" x="110.790857" xlink:href="#C0_0_067ff8dcaf" y="64.068663"/>
    </g>
    <g clip-path="url(#p414770ea5c)">
     <use style="fill:#4c72b0;" x="101.483541" xlink:href="#C0_0_067ff8dcaf" y="69.995922"/>
    </g>
    <g clip-path="url(#p414770ea5c)">
     <use style="fill:#4c72b0;" x="126.635244" xlink:href="#C0_0_067ff8dcaf" y="67.435157"/>
    </g>
    <g clip-path="url(#p414770ea5c)">
     <use style="fill:#4c72b0;" x="108.537174" xlink:href="#C0_0_067ff8dcaf" y="67.407793"/>
    </g>
    <g clip-path="url(#p414770ea5c)">
     <use style="fill:#4c72b0;" x="159.049385" xlink:href="#C0_0_067ff8dcaf" y="64.151598"/>
    </g>
    <g clip-path="url(#p414770ea5c)">
     <use style="fill:#4c72b0;" x="122.106078" xlink:href="#C0_0_067ff8dcaf" y="58.803234"/>
    </g>
    <g clip-path="url(#p414770ea5c)">
     <use style="fill:#4c72b0;" x="191.884769" xlink:href="#C0_0_067ff8dcaf" y="70.143335"/>
    </g>
    <g clip-path="url(#p414770ea5c)">
     <use style="fill:#4c72b0;" x="131.318288" xlink:href="#C0_0_067ff8dcaf" y="73.600778"/>
    </g>
    <g clip-path="url(#p414770ea5c)">
     <use style="fill:#4c72b0;" x="266.533511" xlink:href="#C0_0_067ff8dcaf" y="67.817723"/>
    </g>
    <g clip-path="url(#p414770ea5c)">
     <use style="fill:#4c72b0;" x="160.52769" xlink:href="#C0_0_067ff8dcaf" y="70.843194"/>
    </g>
    <g clip-path="url(#p414770ea5c)">
     <use style="fill:#4c72b0;" x="96.170234" xlink:href="#C0_0_067ff8dcaf" y="66.558321"/>
    </g>
    <g clip-path="url(#p414770ea5c)">
     <use style="fill:#4c72b0;" x="106.186889" xlink:href="#C0_0_067ff8dcaf" y="76.491156"/>
    </g>
    <g clip-path="url(#p414770ea5c)">
     <use style="fill:#4c72b0;" x="100.897946" xlink:href="#C0_0_067ff8dcaf" y="71.48384"/>
    </g>
    <g clip-path="url(#p414770ea5c)">
     <use style="fill:#4c72b0;" x="107.268956" xlink:href="#C0_0_067ff8dcaf" y="70.036859"/>
    </g>
    <g clip-path="url(#p414770ea5c)">
     <use style="fill:#4c72b0;" x="105.561756" xlink:href="#C0_0_067ff8dcaf" y="72.045061"/>
    </g>
    <g clip-path="url(#p414770ea5c)">
     <use style="fill:#4c72b0;" x="109.870362" xlink:href="#C0_0_067ff8dcaf" y="69.489475"/>
    </g>
    <g clip-path="url(#p414770ea5c)">
     <use style="fill:#4c72b0;" x="110.952002" xlink:href="#C0_0_067ff8dcaf" y="65.54355"/>
    </g>
    <g clip-path="url(#p414770ea5c)">
     <use style="fill:#4c72b0;" x="111.824623" xlink:href="#C0_0_067ff8dcaf" y="68.992551"/>
    </g>
    <g clip-path="url(#p414770ea5c)">
     <use style="fill:#4c72b0;" x="129.561292" xlink:href="#C0_0_067ff8dcaf" y="74.99164"/>
    </g>
    <g clip-path="url(#p414770ea5c)">
     <use style="fill:#4c72b0;" x="127.331973" xlink:href="#C0_0_067ff8dcaf" y="74.075831"/>
    </g>
    <g clip-path="url(#p414770ea5c)">
     <use style="fill:#4c72b0;" x="159.324657" xlink:href="#C0_0_067ff8dcaf" y="60.055604"/>
    </g>
    <g clip-path="url(#p414770ea5c)">
     <use style="fill:#4c72b0;" x="153.971171" xlink:href="#C0_0_067ff8dcaf" y="61.893067"/>
    </g>
    <g clip-path="url(#p414770ea5c)">
     <use style="fill:#4c72b0;" x="193.245742" xlink:href="#C0_0_067ff8dcaf" y="61.385199"/>
    </g>
    <g clip-path="url(#p414770ea5c)">
     <use style="fill:#4c72b0;" x="169.328275" xlink:href="#C0_0_067ff8dcaf" y="60.210087"/>
    </g>
    <g clip-path="url(#p414770ea5c)">
     <use style="fill:#4c72b0;" x="267.234729" xlink:href="#C0_0_067ff8dcaf" y="61.796121"/>
    </g>
    <g clip-path="url(#p414770ea5c)">
     <use style="fill:#4c72b0;" x="214.724444" xlink:href="#C0_0_067ff8dcaf" y="65.265415"/>
    </g>
   </g>
   <g id="PathCollection_2">
    <defs>
     <path d="M 0 2.5 
C 0.663008 2.5 1.29895 2.236584 1.767767 1.767767 
C 2.236584 1.29895 2.5 0.663008 2.5 0 
C 2.5 -0.663008 2.236584 -1.29895 1.767767 -1.767767 
C 1.29895 -2.236584 0.663008 -2.5 0 -2.5 
C -0.663008 -2.5 -1.29895 -2.236584 -1.767767 -1.767767 
C -2.236584 -1.29895 -2.5 -0.663008 -2.5 0 
C -2.5 0.663008 -2.236584 1.29895 -1.767767 1.767767 
C -1.29895 2.236584 -0.663008 2.5 0 2.5 
z
" id="C1_0_4d449de41a"/>
    </defs>
    <g clip-path="url(#p414770ea5c)">
     <use style="fill:#dd8452;" x="93.828498" xlink:href="#C1_0_4d449de41a" y="172.282568"/>
    </g>
    <g clip-path="url(#p414770ea5c)">
     <use style="fill:#dd8452;" x="93.361732" xlink:href="#C1_0_4d449de41a" y="170.939002"/>
    </g>
    <g clip-path="url(#p414770ea5c)">
     <use style="fill:#dd8452;" x="94.500863" xlink:href="#C1_0_4d449de41a" y="163.069758"/>
    </g>
    <g clip-path="url(#p414770ea5c)">
     <use style="fill:#dd8452;" x="94.525227" xlink:href="#C1_0_4d449de41a" y="163.660929"/>
    </g>
    <g clip-path="url(#p414770ea5c)">
     <use style="fill:#dd8452;" x="95.804985" xlink:href="#C1_0_4d449de41a" y="170.9244"/>
    </g>
    <g clip-path="url(#p414770ea5c)">
     <use style="fill:#dd8452;" x="95.320481" xlink:href="#C1_0_4d449de41a" y="163.212828"/>
    </g>
    <g clip-path="url(#p414770ea5c)">
     <use style="fill:#dd8452;" x="96.682308" xlink:href="#C1_0_4d449de41a" y="171.822135"/>
    </g>
    <g clip-path="url(#p414770ea5c)">
     <use style="fill:#dd8452;" x="95.182631" xlink:href="#C1_0_4d449de41a" y="168.34634"/>
    </g>
    <g clip-path="url(#p414770ea5c)">
     <use style="fill:#dd8452;" x="98.181985" xlink:href="#C1_0_4d449de41a" y="174.670506"/>
    </g>
    <g clip-path="url(#p414770ea5c)">
     <use style="fill:#dd8452;" x="96.182202" xlink:href="#C1_0_4d449de41a" y="166.270099"/>
    </g>
    <g clip-path="url(#p414770ea5c)">
     <use style="fill:#dd8452;" x="99.081535" xlink:href="#C1_0_4d449de41a" y="172.249295"/>
    </g>
    <g clip-path="url(#p414770ea5c)">
     <use style="fill:#dd8452;" x="96.629947" xlink:href="#C1_0_4d449de41a" y="162.510359"/>
    </g>
    <g clip-path="url(#p414770ea5c)">
     <use style="fill:#dd8452;" x="105.117004" xlink:href="#C1_0_4d449de41a" y="166.611395"/>
    </g>
    <g clip-path="url(#p414770ea5c)">
     <use style="fill:#dd8452;" x="100.121927" xlink:href="#C1_0_4d449de41a" y="158.862861"/>
    </g>
    <g clip-path="url(#p414770ea5c)">
     <use style="fill:#dd8452;" x="114.461507" xlink:href="#C1_0_4d449de41a" y="169.192821"/>
    </g>
    <g clip-path="url(#p414770ea5c)">
     <use style="fill:#dd8452;" x="110.585044" xlink:href="#C1_0_4d449de41a" y="173.135771"/>
    </g>
    <g clip-path="url(#p414770ea5c)">
     <use style="fill:#dd8452;" x="130.266356" xlink:href="#C1_0_4d449de41a" y="161.994969"/>
    </g>
    <g clip-path="url(#p414770ea5c)">
     <use style="fill:#dd8452;" x="127.921841" xlink:href="#C1_0_4d449de41a" y="165.198595"/>
    </g>
    <g clip-path="url(#p414770ea5c)">
     <use style="fill:#dd8452;" x="93.694281" xlink:href="#C1_0_4d449de41a" y="164.209262"/>
    </g>
    <g clip-path="url(#p414770ea5c)">
     <use style="fill:#dd8452;" x="93.812041" xlink:href="#C1_0_4d449de41a" y="164.063818"/>
    </g>
    <g clip-path="url(#p414770ea5c)">
     <use style="fill:#dd8452;" x="93.893896" xlink:href="#C1_0_4d449de41a" y="174.395263"/>
    </g>
    <g clip-path="url(#p414770ea5c)">
     <use style="fill:#dd8452;" x="94.47714" xlink:href="#C1_0_4d449de41a" y="162.082405"/>
    </g>
    <g clip-path="url(#p414770ea5c)">
     <use style="fill:#dd8452;" x="95.67312" xlink:href="#C1_0_4d449de41a" y="172.198685"/>
    </g>
    <g clip-path="url(#p414770ea5c)">
     <use style="fill:#dd8452;" x="95.73574" xlink:href="#C1_0_4d449de41a" y="170.897778"/>
    </g>
    <g clip-path="url(#p414770ea5c)">
     <use style="fill:#dd8452;" x="95.267051" xlink:href="#C1_0_4d449de41a" y="174.056741"/>
    </g>
    <g clip-path="url(#p414770ea5c)">
     <use style="fill:#dd8452;" x="96.672477" xlink:href="#C1_0_4d449de41a" y="171.745091"/>
    </g>
    <g clip-path="url(#p414770ea5c)">
     <use style="fill:#dd8452;" x="95.950315" xlink:href="#C1_0_4d449de41a" y="159.0828"/>
    </g>
    <g clip-path="url(#p414770ea5c)">
     <use style="fill:#dd8452;" x="98.161468" xlink:href="#C1_0_4d449de41a" y="172.480065"/>
    </g>
    <g clip-path="url(#p414770ea5c)">
     <use style="fill:#dd8452;" x="96.969549" xlink:href="#C1_0_4d449de41a" y="169.584088"/>
    </g>
    <g clip-path="url(#p414770ea5c)">
     <use style="fill:#dd8452;" x="99.502137" xlink:href="#C1_0_4d449de41a" y="175.86831"/>
    </g>
    <g clip-path="url(#p414770ea5c)">
     <use style="fill:#dd8452;" x="101.735303" xlink:href="#C1_0_4d449de41a" y="168.191162"/>
    </g>
    <g clip-path="url(#p414770ea5c)">
     <use style="fill:#dd8452;" x="105.033653" xlink:href="#C1_0_4d449de41a" y="161.764628"/>
    </g>
    <g clip-path="url(#p414770ea5c)">
     <use style="fill:#dd8452;" x="111.112293" xlink:href="#C1_0_4d449de41a" y="157.490971"/>
    </g>
    <g clip-path="url(#p414770ea5c)">
     <use style="fill:#dd8452;" x="122.728646" xlink:href="#C1_0_4d449de41a" y="171.320307"/>
    </g>
    <g clip-path="url(#p414770ea5c)">
     <use style="fill:#dd8452;" x="128.619853" xlink:href="#C1_0_4d449de41a" y="166.813342"/>
    </g>
    <g clip-path="url(#p414770ea5c)">
     <use style="fill:#dd8452;" x="152.370618" xlink:href="#C1_0_4d449de41a" y="162.386305"/>
    </g>
    <g clip-path="url(#p414770ea5c)">
     <use style="fill:#dd8452;" x="94.720995" xlink:href="#C1_0_4d449de41a" y="173.127959"/>
    </g>
    <g clip-path="url(#p414770ea5c)">
     <use style="fill:#dd8452;" x="93.411315" xlink:href="#C1_0_4d449de41a" y="164.67106"/>
    </g>
    <g clip-path="url(#p414770ea5c)">
     <use style="fill:#dd8452;" x="95.742579" xlink:href="#C1_0_4d449de41a" y="158.517496"/>
    </g>
    <g clip-path="url(#p414770ea5c)">
     <use style="fill:#dd8452;" x="94.720354" xlink:href="#C1_0_4d449de41a" y="170.641576"/>
    </g>
    <g clip-path="url(#p414770ea5c)">
     <use style="fill:#dd8452;" x="98.312569" xlink:href="#C1_0_4d449de41a" y="164.655903"/>
    </g>
    <g clip-path="url(#p414770ea5c)">
     <use style="fill:#dd8452;" x="95.386521" xlink:href="#C1_0_4d449de41a" y="163.921812"/>
    </g>
    <g clip-path="url(#p414770ea5c)">
     <use style="fill:#dd8452;" x="100.475207" xlink:href="#C1_0_4d449de41a" y="162.08804"/>
    </g>
    <g clip-path="url(#p414770ea5c)">
     <use style="fill:#dd8452;" x="95.243328" xlink:href="#C1_0_4d449de41a" y="163.494436"/>
    </g>
    <g clip-path="url(#p414770ea5c)">
     <use style="fill:#dd8452;" x="105.583128" xlink:href="#C1_0_4d449de41a" y="162.481011"/>
    </g>
    <g clip-path="url(#p414770ea5c)">
     <use style="fill:#dd8452;" x="96.412593" xlink:href="#C1_0_4d449de41a" y="167.711089"/>
    </g>
    <g clip-path="url(#p414770ea5c)">
     <use style="fill:#dd8452;" x="115.804314" xlink:href="#C1_0_4d449de41a" y="158.319354"/>
    </g>
    <g clip-path="url(#p414770ea5c)">
     <use style="fill:#dd8452;" x="99.254221" xlink:href="#C1_0_4d449de41a" y="172.225456"/>
    </g>
    <g clip-path="url(#p414770ea5c)">
     <use style="fill:#dd8452;" x="126.515133" xlink:href="#C1_0_4d449de41a" y="168.047225"/>
    </g>
    <g clip-path="url(#p414770ea5c)">
     <use style="fill:#dd8452;" x="102.056098" xlink:href="#C1_0_4d449de41a" y="163.552644"/>
    </g>
    <g clip-path="url(#p414770ea5c)">
     <use style="fill:#dd8452;" x="151.032513" xlink:href="#C1_0_4d449de41a" y="165.983246"/>
    </g>
    <g clip-path="url(#p414770ea5c)">
     <use style="fill:#dd8452;" x="107.675239" xlink:href="#C1_0_4d449de41a" y="161.241384"/>
    </g>
    <g clip-path="url(#p414770ea5c)">
     <use style="fill:#dd8452;" x="94.705179" xlink:href="#C1_0_4d449de41a" y="169.046851"/>
    </g>
    <g clip-path="url(#p414770ea5c)">
     <use style="fill:#dd8452;" x="94.348052" xlink:href="#C1_0_4d449de41a" y="172.246085"/>
    </g>
    <g clip-path="url(#p414770ea5c)">
     <use style="fill:#dd8452;" x="95.776561" xlink:href="#C1_0_4d449de41a" y="167.197061"/>
    </g>
    <g clip-path="url(#p414770ea5c)">
     <use style="fill:#dd8452;" x="95.595539" xlink:href="#C1_0_4d449de41a" y="172.19132"/>
    </g>
    <g clip-path="url(#p414770ea5c)">
     <use style="fill:#dd8452;" x="98.295685" xlink:href="#C1_0_4d449de41a" y="166.413638"/>
    </g>
    <g clip-path="url(#p414770ea5c)">
     <use style="fill:#dd8452;" x="97.389937" xlink:href="#C1_0_4d449de41a" y="175.543503"/>
    </g>
    <g clip-path="url(#p414770ea5c)">
     <use style="fill:#dd8452;" x="100.453835" xlink:href="#C1_0_4d449de41a" y="171.46836"/>
    </g>
    <g clip-path="url(#p414770ea5c)">
     <use style="fill:#dd8452;" x="96.648968" xlink:href="#C1_0_4d449de41a" y="170.461668"/>
    </g>
    <g clip-path="url(#p414770ea5c)">
     <use style="fill:#dd8452;" x="105.617751" xlink:href="#C1_0_4d449de41a" y="175.520295"/>
    </g>
    <g clip-path="url(#p414770ea5c)">
     <use style="fill:#dd8452;" x="102.97531" xlink:href="#C1_0_4d449de41a" y="161.559521"/>
    </g>
    <g clip-path="url(#p414770ea5c)">
     <use style="fill:#dd8452;" x="115.848554" xlink:href="#C1_0_4d449de41a" y="156.774302"/>
    </g>
    <g clip-path="url(#p414770ea5c)">
     <use style="fill:#dd8452;" x="103.615403" xlink:href="#C1_0_4d449de41a" y="159.395419"/>
    </g>
    <g clip-path="url(#p414770ea5c)">
     <use style="fill:#dd8452;" x="126.464481" xlink:href="#C1_0_4d449de41a" y="159.071876"/>
    </g>
    <g clip-path="url(#p414770ea5c)">
     <use style="fill:#dd8452;" x="108.773335" xlink:href="#C1_0_4d449de41a" y="171.025563"/>
    </g>
    <g clip-path="url(#p414770ea5c)">
     <use style="fill:#dd8452;" x="152.18233" xlink:href="#C1_0_4d449de41a" y="170.800032"/>
    </g>
    <g clip-path="url(#p414770ea5c)">
     <use style="fill:#dd8452;" x="117.949213" xlink:href="#C1_0_4d449de41a" y="159.413544"/>
    </g>
   </g>
   <g id="PathCollection_3">
    <defs>
     <path d="M 0 2.5 
C 0.663008 2.5 1.29895 2.236584 1.767767 1.767767 
C 2.236584 1.29895 2.5 0.663008 2.5 0 
C 2.5 -0.663008 2.236584 -1.29895 1.767767 -1.767767 
C 1.29895 -2.236584 0.663008 -2.5 0 -2.5 
C -0.663008 -2.5 -1.29895 -2.236584 -1.767767 -1.767767 
C -2.236584 -1.29895 -2.5 -0.663008 -2.5 0 
C -2.5 0.663008 -2.236584 1.29895 -1.767767 1.767767 
C -1.29895 2.236584 -0.663008 2.5 0 2.5 
z
" id="C2_0_eec6dc2d3f"/>
    </defs>
    <g clip-path="url(#p414770ea5c)">
     <use style="fill:#55a868;" x="93.408537" xlink:href="#C2_0_eec6dc2d3f" y="267.160352"/>
    </g>
    <g clip-path="url(#p414770ea5c)">
     <use style="fill:#55a868;" x="93.311935" xlink:href="#C2_0_eec6dc2d3f" y="261.518073"/>
    </g>
    <g clip-path="url(#p414770ea5c)">
     <use style="fill:#55a868;" x="93.675046" xlink:href="#C2_0_eec6dc2d3f" y="270.337933"/>
    </g>
    <g clip-path="url(#p414770ea5c)">
     <use style="fill:#55a868;" x="93.534205" xlink:href="#C2_0_eec6dc2d3f" y="254.756312"/>
    </g>
    <g clip-path="url(#p414770ea5c)">
     <use style="fill:#55a868;" x="94.111036" xlink:href="#C2_0_eec6dc2d3f" y="257.295313"/>
    </g>
    <g clip-path="url(#p414770ea5c)">
     <use style="fill:#55a868;" x="93.920825" xlink:href="#C2_0_eec6dc2d3f" y="266.987645"/>
    </g>
    <g clip-path="url(#p414770ea5c)">
     <use style="fill:#55a868;" x="95.132834" xlink:href="#C2_0_eec6dc2d3f" y="267.563038"/>
    </g>
    <g clip-path="url(#p414770ea5c)">
     <use style="fill:#55a868;" x="94.358952" xlink:href="#C2_0_eec6dc2d3f" y="270.207441"/>
    </g>
    <g clip-path="url(#p414770ea5c)">
     <use style="fill:#55a868;" x="95.701117" xlink:href="#C2_0_eec6dc2d3f" y="261.734084"/>
    </g>
    <g clip-path="url(#p414770ea5c)">
     <use style="fill:#55a868;" x="94.744931" xlink:href="#C2_0_eec6dc2d3f" y="267.638534"/>
    </g>
    <g clip-path="url(#p414770ea5c)">
     <use style="fill:#55a868;" x="96.454055" xlink:href="#C2_0_eec6dc2d3f" y="263.60343"/>
    </g>
    <g clip-path="url(#p414770ea5c)">
     <use style="fill:#55a868;" x="95.416869" xlink:href="#C2_0_eec6dc2d3f" y="255.330591"/>
    </g>
    <g clip-path="url(#p414770ea5c)">
     <use style="fill:#55a868;" x="100.121713" xlink:href="#C2_0_eec6dc2d3f" y="270.756729"/>
    </g>
    <g clip-path="url(#p414770ea5c)">
     <use style="fill:#55a868;" x="97.286924" xlink:href="#C2_0_eec6dc2d3f" y="264.080666"/>
    </g>
    <g clip-path="url(#p414770ea5c)">
     <use style="fill:#55a868;" x="109.897505" xlink:href="#C2_0_eec6dc2d3f" y="270.49905"/>
    </g>
    <g clip-path="url(#p414770ea5c)">
     <use style="fill:#55a868;" x="103.513458" xlink:href="#C2_0_eec6dc2d3f" y="265.080374"/>
    </g>
    <g clip-path="url(#p414770ea5c)">
     <use style="fill:#55a868;" x="116.602346" xlink:href="#C2_0_eec6dc2d3f" y="257.340659"/>
    </g>
    <g clip-path="url(#p414770ea5c)">
     <use style="fill:#55a868;" x="113.980422" xlink:href="#C2_0_eec6dc2d3f" y="258.958344"/>
    </g>
    <g clip-path="url(#p414770ea5c)">
     <use style="fill:#55a868;" x="93.282228" xlink:href="#C2_0_eec6dc2d3f" y="264.927446"/>
    </g>
    <g clip-path="url(#p414770ea5c)">
     <use style="fill:#55a868;" x="93.483767" xlink:href="#C2_0_eec6dc2d3f" y="258.385038"/>
    </g>
    <g clip-path="url(#p414770ea5c)">
     <use style="fill:#55a868;" x="93.490606" xlink:href="#C2_0_eec6dc2d3f" y="256.724492"/>
    </g>
    <g clip-path="url(#p414770ea5c)">
     <use style="fill:#55a868;" x="93.902445" xlink:href="#C2_0_eec6dc2d3f" y="270.061022"/>
    </g>
    <g clip-path="url(#p414770ea5c)">
     <use style="fill:#55a868;" x="93.944975" xlink:href="#C2_0_eec6dc2d3f" y="260.698447"/>
    </g>
    <g clip-path="url(#p414770ea5c)">
     <use style="fill:#55a868;" x="94.724842" xlink:href="#C2_0_eec6dc2d3f" y="256.78005"/>
    </g>
    <g clip-path="url(#p414770ea5c)">
     <use style="fill:#55a868;" x="94.298683" xlink:href="#C2_0_eec6dc2d3f" y="267.978758"/>
    </g>
    <g clip-path="url(#p414770ea5c)">
     <use style="fill:#55a868;" x="95.536552" xlink:href="#C2_0_eec6dc2d3f" y="274.18627"/>
    </g>
    <g clip-path="url(#p414770ea5c)">
     <use style="fill:#55a868;" x="94.692784" xlink:href="#C2_0_eec6dc2d3f" y="273.803998"/>
    </g>
    <g clip-path="url(#p414770ea5c)">
     <use style="fill:#55a868;" x="96.369849" xlink:href="#C2_0_eec6dc2d3f" y="271.479045"/>
    </g>
    <g clip-path="url(#p414770ea5c)">
     <use style="fill:#55a868;" x="95.095219" xlink:href="#C2_0_eec6dc2d3f" y="259.858229"/>
    </g>
    <g clip-path="url(#p414770ea5c)">
     <use style="fill:#55a868;" x="97.192459" xlink:href="#C2_0_eec6dc2d3f" y="272.306367"/>
    </g>
    <g clip-path="url(#p414770ea5c)">
     <use style="fill:#55a868;" x="98.286708" xlink:href="#C2_0_eec6dc2d3f" y="272.370883"/>
    </g>
    <g clip-path="url(#p414770ea5c)">
     <use style="fill:#55a868;" x="101.358087" xlink:href="#C2_0_eec6dc2d3f" y="268.987435"/>
    </g>
    <g clip-path="url(#p414770ea5c)">
     <use style="fill:#55a868;" x="104.369409" xlink:href="#C2_0_eec6dc2d3f" y="269.573066"/>
    </g>
    <g clip-path="url(#p414770ea5c)">
     <use style="fill:#55a868;" x="113.72695" xlink:href="#C2_0_eec6dc2d3f" y="273.191922"/>
    </g>
    <g clip-path="url(#p414770ea5c)">
     <use style="fill:#55a868;" x="117.22641" xlink:href="#C2_0_eec6dc2d3f" y="271.783487"/>
    </g>
    <g clip-path="url(#p414770ea5c)">
     <use style="fill:#55a868;" x="134.230445" xlink:href="#C2_0_eec6dc2d3f" y="262.538309"/>
    </g>
    <g clip-path="url(#p414770ea5c)">
     <use style="fill:#55a868;" x="93.819949" xlink:href="#C2_0_eec6dc2d3f" y="260.288174"/>
    </g>
    <g clip-path="url(#p414770ea5c)">
     <use style="fill:#55a868;" x="93.396782" xlink:href="#C2_0_eec6dc2d3f" y="260.35715"/>
    </g>
    <g clip-path="url(#p414770ea5c)">
     <use style="fill:#55a868;" x="94.410886" xlink:href="#C2_0_eec6dc2d3f" y="262.422964"/>
    </g>
    <g clip-path="url(#p414770ea5c)">
     <use style="fill:#55a868;" x="93.61093" xlink:href="#C2_0_eec6dc2d3f" y="273.099535"/>
    </g>
    <g clip-path="url(#p414770ea5c)">
     <use style="fill:#55a868;" x="95.695133" xlink:href="#C2_0_eec6dc2d3f" y="266.79758"/>
    </g>
    <g clip-path="url(#p414770ea5c)">
     <use style="fill:#55a868;" x="94.016786" xlink:href="#C2_0_eec6dc2d3f" y="268.422241"/>
    </g>
    <g clip-path="url(#p414770ea5c)">
     <use style="fill:#55a868;" x="96.912058" xlink:href="#C2_0_eec6dc2d3f" y="267.982054"/>
    </g>
    <g clip-path="url(#p414770ea5c)">
     <use style="fill:#55a868;" x="94.497016" xlink:href="#C2_0_eec6dc2d3f" y="269.714801"/>
    </g>
    <g clip-path="url(#p414770ea5c)">
     <use style="fill:#55a868;" x="99.441654" xlink:href="#C2_0_eec6dc2d3f" y="258.919263"/>
    </g>
    <g clip-path="url(#p414770ea5c)">
     <use style="fill:#55a868;" x="95.565832" xlink:href="#C2_0_eec6dc2d3f" y="264.01478"/>
    </g>
    <g clip-path="url(#p414770ea5c)">
     <use style="fill:#55a868;" x="105.753036" xlink:href="#C2_0_eec6dc2d3f" y="273.903669"/>
    </g>
    <g clip-path="url(#p414770ea5c)">
     <use style="fill:#55a868;" x="97.84965" xlink:href="#C2_0_eec6dc2d3f" y="258.825354"/>
    </g>
    <g clip-path="url(#p414770ea5c)">
     <use style="fill:#55a868;" x="111.788718" xlink:href="#C2_0_eec6dc2d3f" y="273.40069"/>
    </g>
    <g clip-path="url(#p414770ea5c)">
     <use style="fill:#55a868;" x="100.515814" xlink:href="#C2_0_eec6dc2d3f" y="268.105344"/>
    </g>
    <g clip-path="url(#p414770ea5c)">
     <use style="fill:#55a868;" x="127.333255" xlink:href="#C2_0_eec6dc2d3f" y="259.232808"/>
    </g>
    <g clip-path="url(#p414770ea5c)">
     <use style="fill:#55a868;" x="106.227282" xlink:href="#C2_0_eec6dc2d3f" y="268.699233"/>
    </g>
    <g clip-path="url(#p414770ea5c)">
     <use style="fill:#55a868;" x="93.821231" xlink:href="#C2_0_eec6dc2d3f" y="261.512067"/>
    </g>
    <g clip-path="url(#p414770ea5c)">
     <use style="fill:#55a868;" x="93.569041" xlink:href="#C2_0_eec6dc2d3f" y="261.548002"/>
    </g>
    <g clip-path="url(#p414770ea5c)">
     <use style="fill:#55a868;" x="94.402124" xlink:href="#C2_0_eec6dc2d3f" y="272.108607"/>
    </g>
    <g clip-path="url(#p414770ea5c)">
     <use style="fill:#55a868;" x="93.946044" xlink:href="#C2_0_eec6dc2d3f" y="262.768851"/>
    </g>
    <g clip-path="url(#p414770ea5c)">
     <use style="fill:#55a868;" x="95.878933" xlink:href="#C2_0_eec6dc2d3f" y="262.038023"/>
    </g>
    <g clip-path="url(#p414770ea5c)">
     <use style="fill:#55a868;" x="94.927021" xlink:href="#C2_0_eec6dc2d3f" y="260.537977"/>
    </g>
    <g clip-path="url(#p414770ea5c)">
     <use style="fill:#55a868;" x="96.922316" xlink:href="#C2_0_eec6dc2d3f" y="258.958627"/>
    </g>
    <g clip-path="url(#p414770ea5c)">
     <use style="fill:#55a868;" x="95.723772" xlink:href="#C2_0_eec6dc2d3f" y="263.847565"/>
    </g>
    <g clip-path="url(#p414770ea5c)">
     <use style="fill:#55a868;" x="99.445288" xlink:href="#C2_0_eec6dc2d3f" y="254.833816"/>
    </g>
    <g clip-path="url(#p414770ea5c)">
     <use style="fill:#55a868;" x="97.271322" xlink:href="#C2_0_eec6dc2d3f" y="268.32051"/>
    </g>
    <g clip-path="url(#p414770ea5c)">
     <use style="fill:#55a868;" x="105.714139" xlink:href="#C2_0_eec6dc2d3f" y="254.672421"/>
    </g>
    <g clip-path="url(#p414770ea5c)">
     <use style="fill:#55a868;" x="101.267469" xlink:href="#C2_0_eec6dc2d3f" y="259.293216"/>
    </g>
    <g clip-path="url(#p414770ea5c)">
     <use style="fill:#55a868;" x="111.79171" xlink:href="#C2_0_eec6dc2d3f" y="262.529286"/>
    </g>
    <g clip-path="url(#p414770ea5c)">
     <use style="fill:#55a868;" x="105.252075" xlink:href="#C2_0_eec6dc2d3f" y="266.235233"/>
    </g>
    <g clip-path="url(#p414770ea5c)">
     <use style="fill:#55a868;" x="127.96715" xlink:href="#C2_0_eec6dc2d3f" y="262.389024"/>
    </g>
    <g clip-path="url(#p414770ea5c)">
     <use style="fill:#55a868;" x="112.822698" xlink:href="#C2_0_eec6dc2d3f" y="268.586406"/>
    </g>
   </g>
   <g id="text_12">
    <!-- Latency and Model -->
    <defs>
     <path d="M 7.328125 0 
L 7.328125 71.578125 
L 16.796875 71.578125 
L 16.796875 8.453125 
L 52.046875 8.453125 
L 52.046875 0 
z
" id="ArialMT-76"/>
     <path id="ArialMT-32"/>
     <path d="M 7.421875 0 
L 7.421875 71.578125 
L 21.6875 71.578125 
L 38.625 20.90625 
Q 40.96875 13.8125 42.046875 10.296875 
Q 43.265625 14.203125 45.84375 21.78125 
L 62.984375 71.578125 
L 75.734375 71.578125 
L 75.734375 0 
L 66.609375 0 
L 66.609375 59.90625 
L 45.796875 0 
L 37.25 0 
L 16.546875 60.9375 
L 16.546875 0 
z
" id="ArialMT-77"/>
    </defs>
    <g style="fill:#262626;" transform="translate(159.427813 12.96)scale(0.12 -0.12)">
     <use xlink:href="#ArialMT-76"/>
     <use x="55.615234" xlink:href="#ArialMT-97"/>
     <use x="111.230469" xlink:href="#ArialMT-116"/>
     <use x="139.013672" xlink:href="#ArialMT-101"/>
     <use x="194.628906" xlink:href="#ArialMT-110"/>
     <use x="250.244141" xlink:href="#ArialMT-99"/>
     <use x="300.244141" xlink:href="#ArialMT-121"/>
     <use x="350.244141" xlink:href="#ArialMT-32"/>
     <use x="378.027344" xlink:href="#ArialMT-97"/>
     <use x="433.642578" xlink:href="#ArialMT-110"/>
     <use x="489.257812" xlink:href="#ArialMT-100"/>
     <use x="544.873047" xlink:href="#ArialMT-32"/>
     <use x="572.65625" xlink:href="#ArialMT-77"/>
     <use x="655.957031" xlink:href="#ArialMT-111"/>
     <use x="711.572266" xlink:href="#ArialMT-100"/>
     <use x="767.1875" xlink:href="#ArialMT-101"/>
     <use x="822.802734" xlink:href="#ArialMT-108"/>
    </g>
   </g>
  </g>
 </g>
 <defs>
  <clipPath id="p414770ea5c">
   <rect height="294.533125" width="261.83" x="79.21" y="18.96"/>
  </clipPath>
 </defs>
</svg>
