<?xml version="1.0" encoding="utf-8" standalone="no"?>
<!DOCTYPE svg PUBLIC "-//W3C//DTD SVG 1.1//EN"
  "http://www.w3.org/Graphics/SVG/1.1/DTD/svg11.dtd">
<!-- Created with matplotlib (https://matplotlib.org/) -->
<svg height="360pt" version="1.1" viewBox="0 0 360 360" width="360pt" xmlns="http://www.w3.org/2000/svg" xmlns:xlink="http://www.w3.org/1999/xlink">
 <defs>
  <style type="text/css">
*{stroke-linecap:butt;stroke-linejoin:round;}
  </style>
 </defs>
 <g id="figure_1">
  <g id="patch_1">
   <path d="M 0 360 
L 360 360 
L 360 0 
L 0 0 
z
" style="fill:#ffffff;"/>
  </g>
  <g id="axes_1">
   <g id="patch_2">
    <path d="M 62.71 313.493125 
L 341.04 313.493125 
L 341.04 18.96 
L 62.71 18.96 
z
" style="fill:#eaeaf2;"/>
   </g>
   <g id="matplotlib.axis_1">
    <g id="xtick_1">
     <g id="line2d_1">
      <path clip-path="url(#pe1953bf734)" d="M 73.592411 313.493125 
L 73.592411 18.96 
" style="fill:none;stroke:#ffffff;stroke-linecap:round;"/>
     </g>
     <g id="text_1">
      <!-- 0 -->
      <defs>
       <path d="M 4.15625 35.296875 
Q 4.15625 48 6.765625 55.734375 
Q 9.375 63.484375 14.515625 67.671875 
Q 19.671875 71.875 27.484375 71.875 
Q 33.25 71.875 37.59375 69.546875 
Q 41.9375 67.234375 44.765625 62.859375 
Q 47.609375 58.5 49.21875 52.21875 
Q 50.828125 45.953125 50.828125 35.296875 
Q 50.828125 22.703125 48.234375 14.96875 
Q 45.65625 7.234375 40.5 3 
Q 35.359375 -1.21875 27.484375 -1.21875 
Q 17.140625 -1.21875 11.234375 6.203125 
Q 4.15625 15.140625 4.15625 35.296875 
z
M 13.1875 35.296875 
Q 13.1875 17.671875 17.3125 11.828125 
Q 21.4375 6 27.484375 6 
Q 33.546875 6 37.671875 11.859375 
Q 41.796875 17.71875 41.796875 35.296875 
Q 41.796875 52.984375 37.671875 58.78125 
Q 33.546875 64.59375 27.390625 64.59375 
Q 21.34375 64.59375 17.71875 59.46875 
Q 13.1875 52.9375 13.1875 35.296875 
z
" id="ArialMT-48"/>
      </defs>
      <g style="fill:#262626;" transform="translate(70.533895 330.866719)scale(0.11 -0.11)">
       <use xlink:href="#ArialMT-48"/>
      </g>
     </g>
    </g>
    <g id="xtick_2">
     <g id="line2d_2">
      <path clip-path="url(#pe1953bf734)" d="M 122.61136 313.493125 
L 122.61136 18.96 
" style="fill:none;stroke:#ffffff;stroke-linecap:round;"/>
     </g>
     <g id="text_2">
      <!-- 20 -->
      <defs>
       <path d="M 50.34375 8.453125 
L 50.34375 0 
L 3.03125 0 
Q 2.9375 3.171875 4.046875 6.109375 
Q 5.859375 10.9375 9.828125 15.625 
Q 13.8125 20.3125 21.34375 26.46875 
Q 33.015625 36.03125 37.109375 41.625 
Q 41.21875 47.21875 41.21875 52.203125 
Q 41.21875 57.421875 37.46875 61 
Q 33.734375 64.59375 27.734375 64.59375 
Q 21.390625 64.59375 17.578125 60.78125 
Q 13.765625 56.984375 13.71875 50.25 
L 4.6875 51.171875 
Q 5.609375 61.28125 11.65625 66.578125 
Q 17.71875 71.875 27.9375 71.875 
Q 38.234375 71.875 44.234375 66.15625 
Q 50.25 60.453125 50.25 52 
Q 50.25 47.703125 48.484375 43.546875 
Q 46.734375 39.40625 42.65625 34.8125 
Q 38.578125 30.21875 29.109375 22.21875 
Q 21.1875 15.578125 18.9375 13.203125 
Q 16.703125 10.84375 15.234375 8.453125 
z
" id="ArialMT-50"/>
      </defs>
      <g style="fill:#262626;" transform="translate(116.494329 330.866719)scale(0.11 -0.11)">
       <use xlink:href="#ArialMT-50"/>
       <use x="55.615234" xlink:href="#ArialMT-48"/>
      </g>
     </g>
    </g>
    <g id="xtick_3">
     <g id="line2d_3">
      <path clip-path="url(#pe1953bf734)" d="M 171.630309 313.493125 
L 171.630309 18.96 
" style="fill:none;stroke:#ffffff;stroke-linecap:round;"/>
     </g>
     <g id="text_3">
      <!-- 40 -->
      <defs>
       <path d="M 32.328125 0 
L 32.328125 17.140625 
L 1.265625 17.140625 
L 1.265625 25.203125 
L 33.9375 71.578125 
L 41.109375 71.578125 
L 41.109375 25.203125 
L 50.78125 25.203125 
L 50.78125 17.140625 
L 41.109375 17.140625 
L 41.109375 0 
z
M 32.328125 25.203125 
L 32.328125 57.46875 
L 9.90625 25.203125 
z
" id="ArialMT-52"/>
      </defs>
      <g style="fill:#262626;" transform="translate(165.513277 330.866719)scale(0.11 -0.11)">
       <use xlink:href="#ArialMT-52"/>
       <use x="55.615234" xlink:href="#ArialMT-48"/>
      </g>
     </g>
    </g>
    <g id="xtick_4">
     <g id="line2d_4">
      <path clip-path="url(#pe1953bf734)" d="M 220.649257 313.493125 
L 220.649257 18.96 
" style="fill:none;stroke:#ffffff;stroke-linecap:round;"/>
     </g>
     <g id="text_4">
      <!-- 60 -->
      <defs>
       <path d="M 49.75 54.046875 
L 41.015625 53.375 
Q 39.84375 58.546875 37.703125 60.890625 
Q 34.125 64.65625 28.90625 64.65625 
Q 24.703125 64.65625 21.53125 62.3125 
Q 17.390625 59.28125 14.984375 53.46875 
Q 12.59375 47.65625 12.5 36.921875 
Q 15.671875 41.75 20.265625 44.09375 
Q 24.859375 46.4375 29.890625 46.4375 
Q 38.671875 46.4375 44.84375 39.96875 
Q 51.03125 33.5 51.03125 23.25 
Q 51.03125 16.5 48.125 10.71875 
Q 45.21875 4.9375 40.140625 1.859375 
Q 35.0625 -1.21875 28.609375 -1.21875 
Q 17.625 -1.21875 10.6875 6.859375 
Q 3.765625 14.9375 3.765625 33.5 
Q 3.765625 54.25 11.421875 63.671875 
Q 18.109375 71.875 29.4375 71.875 
Q 37.890625 71.875 43.28125 67.140625 
Q 48.6875 62.40625 49.75 54.046875 
z
M 13.875 23.1875 
Q 13.875 18.65625 15.796875 14.5 
Q 17.71875 10.359375 21.1875 8.171875 
Q 24.65625 6 28.46875 6 
Q 34.03125 6 38.03125 10.484375 
Q 42.046875 14.984375 42.046875 22.703125 
Q 42.046875 30.125 38.078125 34.390625 
Q 34.125 38.671875 28.125 38.671875 
Q 22.171875 38.671875 18.015625 34.390625 
Q 13.875 30.125 13.875 23.1875 
z
" id="ArialMT-54"/>
      </defs>
      <g style="fill:#262626;" transform="translate(214.532226 330.866719)scale(0.11 -0.11)">
       <use xlink:href="#ArialMT-54"/>
       <use x="55.615234" xlink:href="#ArialMT-48"/>
      </g>
     </g>
    </g>
    <g id="xtick_5">
     <g id="line2d_5">
      <path clip-path="url(#pe1953bf734)" d="M 269.668206 313.493125 
L 269.668206 18.96 
" style="fill:none;stroke:#ffffff;stroke-linecap:round;"/>
     </g>
     <g id="text_5">
      <!-- 80 -->
      <defs>
       <path d="M 17.671875 38.8125 
Q 12.203125 40.828125 9.5625 44.53125 
Q 6.9375 48.25 6.9375 53.421875 
Q 6.9375 61.234375 12.546875 66.546875 
Q 18.171875 71.875 27.484375 71.875 
Q 36.859375 71.875 42.578125 66.421875 
Q 48.296875 60.984375 48.296875 53.171875 
Q 48.296875 48.1875 45.671875 44.5 
Q 43.0625 40.828125 37.75 38.8125 
Q 44.34375 36.671875 47.78125 31.875 
Q 51.21875 27.09375 51.21875 20.453125 
Q 51.21875 11.28125 44.71875 5.03125 
Q 38.234375 -1.21875 27.640625 -1.21875 
Q 17.046875 -1.21875 10.546875 5.046875 
Q 4.046875 11.328125 4.046875 20.703125 
Q 4.046875 27.6875 7.59375 32.390625 
Q 11.140625 37.109375 17.671875 38.8125 
z
M 15.921875 53.71875 
Q 15.921875 48.640625 19.1875 45.40625 
Q 22.46875 42.1875 27.6875 42.1875 
Q 32.765625 42.1875 36.015625 45.375 
Q 39.265625 48.578125 39.265625 53.21875 
Q 39.265625 58.0625 35.90625 61.359375 
Q 32.5625 64.65625 27.59375 64.65625 
Q 22.5625 64.65625 19.234375 61.421875 
Q 15.921875 58.203125 15.921875 53.71875 
z
M 13.09375 20.65625 
Q 13.09375 16.890625 14.875 13.375 
Q 16.65625 9.859375 20.171875 7.921875 
Q 23.6875 6 27.734375 6 
Q 34.03125 6 38.125 10.046875 
Q 42.234375 14.109375 42.234375 20.359375 
Q 42.234375 26.703125 38.015625 30.859375 
Q 33.796875 35.015625 27.4375 35.015625 
Q 21.234375 35.015625 17.15625 30.90625 
Q 13.09375 26.8125 13.09375 20.65625 
z
" id="ArialMT-56"/>
      </defs>
      <g style="fill:#262626;" transform="translate(263.551175 330.866719)scale(0.11 -0.11)">
       <use xlink:href="#ArialMT-56"/>
       <use x="55.615234" xlink:href="#ArialMT-48"/>
      </g>
     </g>
    </g>
    <g id="xtick_6">
     <g id="line2d_6">
      <path clip-path="url(#pe1953bf734)" d="M 318.687155 313.493125 
L 318.687155 18.96 
" style="fill:none;stroke:#ffffff;stroke-linecap:round;"/>
     </g>
     <g id="text_6">
      <!-- 100 -->
      <defs>
       <path d="M 37.25 0 
L 28.46875 0 
L 28.46875 56 
Q 25.296875 52.984375 20.140625 49.953125 
Q 14.984375 46.921875 10.890625 45.40625 
L 10.890625 53.90625 
Q 18.265625 57.375 23.78125 62.296875 
Q 29.296875 67.234375 31.59375 71.875 
L 37.25 71.875 
z
" id="ArialMT-49"/>
      </defs>
      <g style="fill:#262626;" transform="translate(309.511608 330.866719)scale(0.11 -0.11)">
       <use xlink:href="#ArialMT-49"/>
       <use x="55.615234" xlink:href="#ArialMT-48"/>
       <use x="111.230469" xlink:href="#ArialMT-48"/>
      </g>
     </g>
    </g>
    <g id="text_7">
     <!-- throughput -->
     <defs>
      <path d="M 25.78125 7.859375 
L 27.046875 0.09375 
Q 23.34375 -0.6875 20.40625 -0.6875 
Q 15.625 -0.6875 12.984375 0.828125 
Q 10.359375 2.34375 9.28125 4.8125 
Q 8.203125 7.28125 8.203125 15.1875 
L 8.203125 45.015625 
L 1.765625 45.015625 
L 1.765625 51.859375 
L 8.203125 51.859375 
L 8.203125 64.703125 
L 16.9375 69.96875 
L 16.9375 51.859375 
L 25.78125 51.859375 
L 25.78125 45.015625 
L 16.9375 45.015625 
L 16.9375 14.703125 
Q 16.9375 10.9375 17.40625 9.859375 
Q 17.875 8.796875 18.921875 8.15625 
Q 19.96875 7.515625 21.921875 7.515625 
Q 23.390625 7.515625 25.78125 7.859375 
z
" id="ArialMT-116"/>
      <path d="M 6.59375 0 
L 6.59375 71.578125 
L 15.375 71.578125 
L 15.375 45.90625 
Q 21.53125 53.03125 30.90625 53.03125 
Q 36.671875 53.03125 40.921875 50.75 
Q 45.171875 48.484375 47 44.484375 
Q 48.828125 40.484375 48.828125 32.859375 
L 48.828125 0 
L 40.046875 0 
L 40.046875 32.859375 
Q 40.046875 39.453125 37.1875 42.453125 
Q 34.328125 45.453125 29.109375 45.453125 
Q 25.203125 45.453125 21.75 43.421875 
Q 18.3125 41.40625 16.84375 37.9375 
Q 15.375 34.46875 15.375 28.375 
L 15.375 0 
z
" id="ArialMT-104"/>
      <path d="M 6.5 0 
L 6.5 51.859375 
L 14.40625 51.859375 
L 14.40625 44 
Q 17.4375 49.515625 20 51.265625 
Q 22.5625 53.03125 25.640625 53.03125 
Q 30.078125 53.03125 34.671875 50.203125 
L 31.640625 42.046875 
Q 28.421875 43.953125 25.203125 43.953125 
Q 22.3125 43.953125 20.015625 42.21875 
Q 17.71875 40.484375 16.75 37.40625 
Q 15.28125 32.71875 15.28125 27.15625 
L 15.28125 0 
z
" id="ArialMT-114"/>
      <path d="M 3.328125 25.921875 
Q 3.328125 40.328125 11.328125 47.265625 
Q 18.015625 53.03125 27.640625 53.03125 
Q 38.328125 53.03125 45.109375 46.015625 
Q 51.90625 39.015625 51.90625 26.65625 
Q 51.90625 16.65625 48.90625 10.90625 
Q 45.90625 5.171875 40.15625 2 
Q 34.421875 -1.171875 27.640625 -1.171875 
Q 16.75 -1.171875 10.03125 5.8125 
Q 3.328125 12.796875 3.328125 25.921875 
z
M 12.359375 25.921875 
Q 12.359375 15.96875 16.703125 11.015625 
Q 21.046875 6.0625 27.640625 6.0625 
Q 34.1875 6.0625 38.53125 11.03125 
Q 42.875 16.015625 42.875 26.21875 
Q 42.875 35.84375 38.5 40.796875 
Q 34.125 45.75 27.640625 45.75 
Q 21.046875 45.75 16.703125 40.8125 
Q 12.359375 35.890625 12.359375 25.921875 
z
" id="ArialMT-111"/>
      <path d="M 40.578125 0 
L 40.578125 7.625 
Q 34.515625 -1.171875 24.125 -1.171875 
Q 19.53125 -1.171875 15.546875 0.578125 
Q 11.578125 2.34375 9.640625 5 
Q 7.71875 7.671875 6.9375 11.53125 
Q 6.390625 14.109375 6.390625 19.734375 
L 6.390625 51.859375 
L 15.1875 51.859375 
L 15.1875 23.09375 
Q 15.1875 16.21875 15.71875 13.8125 
Q 16.546875 10.359375 19.234375 8.375 
Q 21.921875 6.390625 25.875 6.390625 
Q 29.828125 6.390625 33.296875 8.421875 
Q 36.765625 10.453125 38.203125 13.9375 
Q 39.65625 17.4375 39.65625 24.078125 
L 39.65625 51.859375 
L 48.4375 51.859375 
L 48.4375 0 
z
" id="ArialMT-117"/>
      <path d="M 4.984375 -4.296875 
L 13.53125 -5.5625 
Q 14.0625 -9.515625 16.5 -11.328125 
Q 19.78125 -13.765625 25.4375 -13.765625 
Q 31.546875 -13.765625 34.859375 -11.328125 
Q 38.1875 -8.890625 39.359375 -4.5 
Q 40.046875 -1.8125 39.984375 6.78125 
Q 34.234375 0 25.640625 0 
Q 14.9375 0 9.078125 7.71875 
Q 3.21875 15.4375 3.21875 26.21875 
Q 3.21875 33.640625 5.90625 39.90625 
Q 8.59375 46.1875 13.6875 49.609375 
Q 18.796875 53.03125 25.6875 53.03125 
Q 34.859375 53.03125 40.828125 45.609375 
L 40.828125 51.859375 
L 48.921875 51.859375 
L 48.921875 7.03125 
Q 48.921875 -5.078125 46.453125 -10.125 
Q 44 -15.1875 38.640625 -18.109375 
Q 33.296875 -21.046875 25.484375 -21.046875 
Q 16.21875 -21.046875 10.5 -16.875 
Q 4.78125 -12.703125 4.984375 -4.296875 
z
M 12.25 26.859375 
Q 12.25 16.65625 16.296875 11.96875 
Q 20.359375 7.28125 26.46875 7.28125 
Q 32.515625 7.28125 36.609375 11.9375 
Q 40.71875 16.609375 40.71875 26.5625 
Q 40.71875 36.078125 36.5 40.90625 
Q 32.28125 45.75 26.3125 45.75 
Q 20.453125 45.75 16.34375 40.984375 
Q 12.25 36.234375 12.25 26.859375 
z
" id="ArialMT-103"/>
      <path d="M 6.59375 -19.875 
L 6.59375 51.859375 
L 14.59375 51.859375 
L 14.59375 45.125 
Q 17.4375 49.078125 21 51.046875 
Q 24.5625 53.03125 29.640625 53.03125 
Q 36.28125 53.03125 41.359375 49.609375 
Q 46.4375 46.1875 49.015625 39.953125 
Q 51.609375 33.734375 51.609375 26.3125 
Q 51.609375 18.359375 48.75 11.984375 
Q 45.90625 5.609375 40.453125 2.21875 
Q 35.015625 -1.171875 29 -1.171875 
Q 24.609375 -1.171875 21.109375 0.6875 
Q 17.625 2.546875 15.375 5.375 
L 15.375 -19.875 
z
M 14.546875 25.640625 
Q 14.546875 15.625 18.59375 10.84375 
Q 22.65625 6.0625 28.421875 6.0625 
Q 34.28125 6.0625 38.453125 11.015625 
Q 42.625 15.96875 42.625 26.375 
Q 42.625 36.28125 38.546875 41.203125 
Q 34.46875 46.140625 28.8125 46.140625 
Q 23.1875 46.140625 18.859375 40.890625 
Q 14.546875 35.640625 14.546875 25.640625 
z
" id="ArialMT-112"/>
     </defs>
     <g style="fill:#262626;" transform="translate(173.1875 345.642344)scale(0.12 -0.12)">
      <use xlink:href="#ArialMT-116"/>
      <use x="27.783203" xlink:href="#ArialMT-104"/>
      <use x="83.398438" xlink:href="#ArialMT-114"/>
      <use x="116.699219" xlink:href="#ArialMT-111"/>
      <use x="172.314453" xlink:href="#ArialMT-117"/>
      <use x="227.929688" xlink:href="#ArialMT-103"/>
      <use x="283.544922" xlink:href="#ArialMT-104"/>
      <use x="339.160156" xlink:href="#ArialMT-112"/>
      <use x="394.775391" xlink:href="#ArialMT-117"/>
      <use x="450.390625" xlink:href="#ArialMT-116"/>
     </g>
    </g>
   </g>
   <g id="matplotlib.axis_2">
    <g id="ytick_1">
     <g id="text_8">
      <!-- FP16 -->
      <defs>
       <path d="M 8.203125 0 
L 8.203125 71.578125 
L 56.5 71.578125 
L 56.5 63.140625 
L 17.671875 63.140625 
L 17.671875 40.96875 
L 51.265625 40.96875 
L 51.265625 32.515625 
L 17.671875 32.515625 
L 17.671875 0 
z
" id="ArialMT-70"/>
       <path d="M 7.71875 0 
L 7.71875 71.578125 
L 34.71875 71.578125 
Q 41.84375 71.578125 45.609375 70.90625 
Q 50.875 70.015625 54.4375 67.546875 
Q 58.015625 65.09375 60.1875 60.640625 
Q 62.359375 56.203125 62.359375 50.875 
Q 62.359375 41.75 56.546875 35.421875 
Q 50.734375 29.109375 35.546875 29.109375 
L 17.1875 29.109375 
L 17.1875 0 
z
M 17.1875 37.546875 
L 35.6875 37.546875 
Q 44.875 37.546875 48.734375 40.96875 
Q 52.59375 44.390625 52.59375 50.59375 
Q 52.59375 55.078125 50.3125 58.265625 
Q 48.046875 61.46875 44.34375 62.5 
Q 41.9375 63.140625 35.5 63.140625 
L 17.1875 63.140625 
z
" id="ArialMT-80"/>
      </defs>
      <g style="fill:#262626;" transform="translate(26.92 96.530078)scale(0.11 -0.11)">
       <use xlink:href="#ArialMT-70"/>
       <use x="61.083984" xlink:href="#ArialMT-80"/>
       <use x="127.783203" xlink:href="#ArialMT-49"/>
       <use x="183.398438" xlink:href="#ArialMT-54"/>
      </g>
     </g>
    </g>
    <g id="ytick_2">
     <g id="text_9">
      <!-- FP32 -->
      <defs>
       <path d="M 4.203125 18.890625 
L 12.984375 20.0625 
Q 14.5 12.59375 18.140625 9.296875 
Q 21.78125 6 27 6 
Q 33.203125 6 37.46875 10.296875 
Q 41.75 14.59375 41.75 20.953125 
Q 41.75 27 37.796875 30.921875 
Q 33.84375 34.859375 27.734375 34.859375 
Q 25.25 34.859375 21.53125 33.890625 
L 22.515625 41.609375 
Q 23.390625 41.5 23.921875 41.5 
Q 29.546875 41.5 34.03125 44.421875 
Q 38.53125 47.359375 38.53125 53.46875 
Q 38.53125 58.296875 35.25 61.46875 
Q 31.984375 64.65625 26.8125 64.65625 
Q 21.6875 64.65625 18.265625 61.421875 
Q 14.84375 58.203125 13.875 51.765625 
L 5.078125 53.328125 
Q 6.6875 62.15625 12.390625 67.015625 
Q 18.109375 71.875 26.609375 71.875 
Q 32.46875 71.875 37.390625 69.359375 
Q 42.328125 66.84375 44.9375 62.5 
Q 47.5625 58.15625 47.5625 53.265625 
Q 47.5625 48.640625 45.0625 44.828125 
Q 42.578125 41.015625 37.703125 38.765625 
Q 44.046875 37.3125 47.5625 32.6875 
Q 51.078125 28.078125 51.078125 21.140625 
Q 51.078125 11.765625 44.234375 5.25 
Q 37.40625 -1.265625 26.953125 -1.265625 
Q 17.53125 -1.265625 11.296875 4.34375 
Q 5.078125 9.96875 4.203125 18.890625 
z
" id="ArialMT-51"/>
      </defs>
      <g style="fill:#262626;" transform="translate(26.92 243.796641)scale(0.11 -0.11)">
       <use xlink:href="#ArialMT-70"/>
       <use x="61.083984" xlink:href="#ArialMT-80"/>
       <use x="127.783203" xlink:href="#ArialMT-51"/>
       <use x="183.398438" xlink:href="#ArialMT-50"/>
      </g>
     </g>
    </g>
    <g id="text_10">
     <!-- precision -->
     <defs>
      <path d="M 42.09375 16.703125 
L 51.171875 15.578125 
Q 49.03125 7.625 43.21875 3.21875 
Q 37.40625 -1.171875 28.375 -1.171875 
Q 17 -1.171875 10.328125 5.828125 
Q 3.65625 12.84375 3.65625 25.484375 
Q 3.65625 38.578125 10.390625 45.796875 
Q 17.140625 53.03125 27.875 53.03125 
Q 38.28125 53.03125 44.875 45.953125 
Q 51.46875 38.875 51.46875 26.03125 
Q 51.46875 25.25 51.421875 23.6875 
L 12.75 23.6875 
Q 13.234375 15.140625 17.578125 10.59375 
Q 21.921875 6.0625 28.421875 6.0625 
Q 33.25 6.0625 36.671875 8.59375 
Q 40.09375 11.140625 42.09375 16.703125 
z
M 13.234375 30.90625 
L 42.1875 30.90625 
Q 41.609375 37.453125 38.875 40.71875 
Q 34.671875 45.796875 27.984375 45.796875 
Q 21.921875 45.796875 17.796875 41.75 
Q 13.671875 37.703125 13.234375 30.90625 
z
" id="ArialMT-101"/>
      <path d="M 40.4375 19 
L 49.078125 17.875 
Q 47.65625 8.9375 41.8125 3.875 
Q 35.984375 -1.171875 27.484375 -1.171875 
Q 16.84375 -1.171875 10.375 5.78125 
Q 3.90625 12.75 3.90625 25.734375 
Q 3.90625 34.125 6.6875 40.421875 
Q 9.46875 46.734375 15.15625 49.875 
Q 20.84375 53.03125 27.546875 53.03125 
Q 35.984375 53.03125 41.359375 48.75 
Q 46.734375 44.484375 48.25 36.625 
L 39.703125 35.296875 
Q 38.484375 40.53125 35.375 43.15625 
Q 32.28125 45.796875 27.875 45.796875 
Q 21.234375 45.796875 17.078125 41.03125 
Q 12.9375 36.28125 12.9375 25.984375 
Q 12.9375 15.53125 16.9375 10.796875 
Q 20.953125 6.0625 27.390625 6.0625 
Q 32.5625 6.0625 36.03125 9.234375 
Q 39.5 12.40625 40.4375 19 
z
" id="ArialMT-99"/>
      <path d="M 6.640625 61.46875 
L 6.640625 71.578125 
L 15.4375 71.578125 
L 15.4375 61.46875 
z
M 6.640625 0 
L 6.640625 51.859375 
L 15.4375 51.859375 
L 15.4375 0 
z
" id="ArialMT-105"/>
      <path d="M 3.078125 15.484375 
L 11.765625 16.84375 
Q 12.5 11.625 15.84375 8.84375 
Q 19.1875 6.0625 25.203125 6.0625 
Q 31.25 6.0625 34.171875 8.515625 
Q 37.109375 10.984375 37.109375 14.3125 
Q 37.109375 17.28125 34.515625 19 
Q 32.71875 20.171875 25.53125 21.96875 
Q 15.875 24.421875 12.140625 26.203125 
Q 8.40625 27.984375 6.46875 31.125 
Q 4.546875 34.28125 4.546875 38.09375 
Q 4.546875 41.546875 6.125 44.5 
Q 7.71875 47.46875 10.453125 49.421875 
Q 12.5 50.921875 16.03125 51.96875 
Q 19.578125 53.03125 23.640625 53.03125 
Q 29.734375 53.03125 34.34375 51.265625 
Q 38.96875 49.515625 41.15625 46.5 
Q 43.359375 43.5 44.1875 38.484375 
L 35.59375 37.3125 
Q 35.015625 41.3125 32.203125 43.546875 
Q 29.390625 45.796875 24.265625 45.796875 
Q 18.21875 45.796875 15.625 43.796875 
Q 13.03125 41.796875 13.03125 39.109375 
Q 13.03125 37.40625 14.109375 36.03125 
Q 15.1875 34.625 17.484375 33.6875 
Q 18.796875 33.203125 25.25 31.453125 
Q 34.578125 28.953125 38.25 27.359375 
Q 41.9375 25.78125 44.03125 22.75 
Q 46.140625 19.734375 46.140625 15.234375 
Q 46.140625 10.84375 43.578125 6.953125 
Q 41.015625 3.078125 36.171875 0.953125 
Q 31.34375 -1.171875 25.25 -1.171875 
Q 15.140625 -1.171875 9.84375 3.03125 
Q 4.546875 7.234375 3.078125 15.484375 
z
" id="ArialMT-115"/>
      <path d="M 6.59375 0 
L 6.59375 51.859375 
L 14.5 51.859375 
L 14.5 44.484375 
Q 20.21875 53.03125 31 53.03125 
Q 35.6875 53.03125 39.625 51.34375 
Q 43.5625 49.65625 45.515625 46.921875 
Q 47.46875 44.1875 48.25 40.4375 
Q 48.734375 37.984375 48.734375 31.890625 
L 48.734375 0 
L 39.9375 0 
L 39.9375 31.546875 
Q 39.9375 36.921875 38.90625 39.578125 
Q 37.890625 42.234375 35.28125 43.8125 
Q 32.671875 45.40625 29.15625 45.40625 
Q 23.53125 45.40625 19.453125 41.84375 
Q 15.375 38.28125 15.375 28.328125 
L 15.375 0 
z
" id="ArialMT-110"/>
     </defs>
     <g style="fill:#262626;" transform="translate(20.535 190.236875)rotate(-90)scale(0.12 -0.12)">
      <use xlink:href="#ArialMT-112"/>
      <use x="55.615234" xlink:href="#ArialMT-114"/>
      <use x="88.916016" xlink:href="#ArialMT-101"/>
      <use x="144.53125" xlink:href="#ArialMT-99"/>
      <use x="194.53125" xlink:href="#ArialMT-105"/>
      <use x="216.748047" xlink:href="#ArialMT-115"/>
      <use x="266.748047" xlink:href="#ArialMT-105"/>
      <use x="288.964844" xlink:href="#ArialMT-111"/>
      <use x="344.580078" xlink:href="#ArialMT-110"/>
     </g>
    </g>
   </g>
   <g id="patch_3">
    <path d="M 62.71 313.493125 
L 62.71 18.96 
" style="fill:none;stroke:#ffffff;stroke-linecap:square;stroke-linejoin:miter;stroke-width:1.25;"/>
   </g>
   <g id="patch_4">
    <path d="M 62.71 313.493125 
L 341.04 313.493125 
" style="fill:none;stroke:#ffffff;stroke-linecap:square;stroke-linejoin:miter;stroke-width:1.25;"/>
   </g>
   <g id="PathCollection_1">
    <defs>
     <path d="M 0 2.5 
C 0.663008 2.5 1.29895 2.236584 1.767767 1.767767 
C 2.236584 1.29895 2.5 0.663008 2.5 0 
C 2.5 -0.663008 2.236584 -1.29895 1.767767 -1.767767 
C 1.29895 -2.236584 0.663008 -2.5 0 -2.5 
C -0.663008 -2.5 -1.29895 -2.236584 -1.767767 -1.767767 
C -2.236584 -1.29895 -2.5 -0.663008 -2.5 0 
C -2.5 0.663008 -2.236584 1.29895 -1.767767 1.767767 
C -1.29895 2.236584 -0.663008 2.5 0 2.5 
z
" id="C0_0_3379c0cd5a"/>
    </defs>
    <g clip-path="url(#pe1953bf734)">
     <use style="fill:#4c72b0;" x="119.131014" xlink:href="#C0_0_3379c0cd5a" y="107.016118"/>
    </g>
    <g clip-path="url(#pe1953bf734)">
     <use style="fill:#4c72b0;" x="82.268765" xlink:href="#C0_0_3379c0cd5a" y="93.630164"/>
    </g>
    <g clip-path="url(#pe1953bf734)">
     <use style="fill:#4c72b0;" x="138.493499" xlink:href="#C0_0_3379c0cd5a" y="88.861477"/>
    </g>
    <g clip-path="url(#pe1953bf734)">
     <use style="fill:#4c72b0;" x="227.585439" xlink:href="#C0_0_3379c0cd5a" y="78.756209"/>
    </g>
    <g clip-path="url(#pe1953bf734)">
     <use style="fill:#4c72b0;" x="208.88471" xlink:href="#C0_0_3379c0cd5a" y="103.08471"/>
    </g>
    <g clip-path="url(#pe1953bf734)">
     <use style="fill:#4c72b0;" x="253.884105" xlink:href="#C0_0_3379c0cd5a" y="104.183567"/>
    </g>
    <g clip-path="url(#pe1953bf734)">
     <use style="fill:#4c72b0;" x="105.724332" xlink:href="#C0_0_3379c0cd5a" y="104.289115"/>
    </g>
    <g clip-path="url(#pe1953bf734)">
     <use style="fill:#4c72b0;" x="89.548079" xlink:href="#C0_0_3379c0cd5a" y="80.109784"/>
    </g>
    <g clip-path="url(#pe1953bf734)">
     <use style="fill:#4c72b0;" x="144.400283" xlink:href="#C0_0_3379c0cd5a" y="90.056869"/>
    </g>
    <g clip-path="url(#pe1953bf734)">
     <use style="fill:#4c72b0;" x="143.272847" xlink:href="#C0_0_3379c0cd5a" y="106.856009"/>
    </g>
    <g clip-path="url(#pe1953bf734)">
     <use style="fill:#4c72b0;" x="233.884374" xlink:href="#C0_0_3379c0cd5a" y="84.58434"/>
    </g>
    <g clip-path="url(#pe1953bf734)">
     <use style="fill:#4c72b0;" x="277.952408" xlink:href="#C0_0_3379c0cd5a" y="105.287376"/>
    </g>
    <g clip-path="url(#pe1953bf734)">
     <use style="fill:#4c72b0;" x="107.513524" xlink:href="#C0_0_3379c0cd5a" y="106.122373"/>
    </g>
    <g clip-path="url(#pe1953bf734)">
     <use style="fill:#4c72b0;" x="101.16557" xlink:href="#C0_0_3379c0cd5a" y="99.50443"/>
    </g>
    <g clip-path="url(#pe1953bf734)">
     <use style="fill:#4c72b0;" x="148.861007" xlink:href="#C0_0_3379c0cd5a" y="95.555606"/>
    </g>
    <g clip-path="url(#pe1953bf734)">
     <use style="fill:#4c72b0;" x="164.743146" xlink:href="#C0_0_3379c0cd5a" y="106.733355"/>
    </g>
    <g clip-path="url(#pe1953bf734)">
     <use style="fill:#4c72b0;" x="265.918257" xlink:href="#C0_0_3379c0cd5a" y="98.823515"/>
    </g>
    <g clip-path="url(#pe1953bf734)">
     <use style="fill:#4c72b0;" x="306.579475" xlink:href="#C0_0_3379c0cd5a" y="87.290313"/>
    </g>
    <g clip-path="url(#pe1953bf734)">
     <use style="fill:#4c72b0;" x="119.008467" xlink:href="#C0_0_3379c0cd5a" y="104.82016"/>
    </g>
    <g clip-path="url(#pe1953bf734)">
     <use style="fill:#4c72b0;" x="109.768395" xlink:href="#C0_0_3379c0cd5a" y="93.243298"/>
    </g>
    <g clip-path="url(#pe1953bf734)">
     <use style="fill:#4c72b0;" x="159.4491" xlink:href="#C0_0_3379c0cd5a" y="81.491829"/>
    </g>
    <g clip-path="url(#pe1953bf734)">
     <use style="fill:#4c72b0;" x="219.007123" xlink:href="#C0_0_3379c0cd5a" y="106.55493"/>
    </g>
    <g clip-path="url(#pe1953bf734)">
     <use style="fill:#4c72b0;" x="222.462958" xlink:href="#C0_0_3379c0cd5a" y="86.980094"/>
    </g>
    <g clip-path="url(#pe1953bf734)">
     <use style="fill:#4c72b0;" x="308.589251" xlink:href="#C0_0_3379c0cd5a" y="88.316159"/>
    </g>
    <g clip-path="url(#pe1953bf734)">
     <use style="fill:#4c72b0;" x="115.381065" xlink:href="#C0_0_3379c0cd5a" y="104.461743"/>
    </g>
    <g clip-path="url(#pe1953bf734)">
     <use style="fill:#4c72b0;" x="116.312425" xlink:href="#C0_0_3379c0cd5a" y="86.57039"/>
    </g>
    <g clip-path="url(#pe1953bf734)">
     <use style="fill:#4c72b0;" x="154.7923" xlink:href="#C0_0_3379c0cd5a" y="88.020767"/>
    </g>
    <g clip-path="url(#pe1953bf734)">
     <use style="fill:#4c72b0;" x="206.188667" xlink:href="#C0_0_3379c0cd5a" y="85.196884"/>
    </g>
    <g clip-path="url(#pe1953bf734)">
     <use style="fill:#4c72b0;" x="229.987367" xlink:href="#C0_0_3379c0cd5a" y="79.588652"/>
    </g>
    <g clip-path="url(#pe1953bf734)">
     <use style="fill:#4c72b0;" x="316.750906" xlink:href="#C0_0_3379c0cd5a" y="97.617449"/>
    </g>
    <g clip-path="url(#pe1953bf734)">
     <use style="fill:#4c72b0;" x="106.998825" xlink:href="#C0_0_3379c0cd5a" y="88.909109"/>
    </g>
    <g clip-path="url(#pe1953bf734)">
     <use style="fill:#4c72b0;" x="103.49397" xlink:href="#C0_0_3379c0cd5a" y="92.305566"/>
    </g>
    <g clip-path="url(#pe1953bf734)">
     <use style="fill:#4c72b0;" x="160.037327" xlink:href="#C0_0_3379c0cd5a" y="85.80853"/>
    </g>
    <g clip-path="url(#pe1953bf734)">
     <use style="fill:#4c72b0;" x="218.762028" xlink:href="#C0_0_3379c0cd5a" y="102.444821"/>
    </g>
    <g clip-path="url(#pe1953bf734)">
     <use style="fill:#4c72b0;" x="226.188399" xlink:href="#C0_0_3379c0cd5a" y="101.129986"/>
    </g>
    <g clip-path="url(#pe1953bf734)">
     <use style="fill:#4c72b0;" x="292.265942" xlink:href="#C0_0_3379c0cd5a" y="83.28772"/>
    </g>
    <g clip-path="url(#pe1953bf734)">
     <use style="fill:#4c72b0;" x="106.778239" xlink:href="#C0_0_3379c0cd5a" y="99.669918"/>
    </g>
    <g clip-path="url(#pe1953bf734)">
     <use style="fill:#4c72b0;" x="107.709599" xlink:href="#C0_0_3379c0cd5a" y="90.925878"/>
    </g>
    <g clip-path="url(#pe1953bf734)">
     <use style="fill:#4c72b0;" x="160.208894" xlink:href="#C0_0_3379c0cd5a" y="83.839931"/>
    </g>
    <g clip-path="url(#pe1953bf734)">
     <use style="fill:#4c72b0;" x="221.139447" xlink:href="#C0_0_3379c0cd5a" y="89.075834"/>
    </g>
    <g clip-path="url(#pe1953bf734)">
     <use style="fill:#4c72b0;" x="221.139447" xlink:href="#C0_0_3379c0cd5a" y="85.459345"/>
    </g>
    <g clip-path="url(#pe1953bf734)">
     <use style="fill:#4c72b0;" x="319.201854" xlink:href="#C0_0_3379c0cd5a" y="98.296424"/>
    </g>
    <g clip-path="url(#pe1953bf734)">
     <use style="fill:#4c72b0;" x="107.096863" xlink:href="#C0_0_3379c0cd5a" y="98.923126"/>
    </g>
    <g clip-path="url(#pe1953bf734)">
     <use style="fill:#4c72b0;" x="108.935073" xlink:href="#C0_0_3379c0cd5a" y="98.152429"/>
    </g>
    <g clip-path="url(#pe1953bf734)">
     <use style="fill:#4c72b0;" x="195.747631" xlink:href="#C0_0_3379c0cd5a" y="91.689176"/>
    </g>
    <g clip-path="url(#pe1953bf734)">
     <use style="fill:#4c72b0;" x="222.708053" xlink:href="#C0_0_3379c0cd5a" y="101.048581"/>
    </g>
    <g clip-path="url(#pe1953bf734)">
     <use style="fill:#4c72b0;" x="228.786403" xlink:href="#C0_0_3379c0cd5a" y="91.359007"/>
    </g>
    <g clip-path="url(#pe1953bf734)">
     <use style="fill:#4c72b0;" x="323.221408" xlink:href="#C0_0_3379c0cd5a" y="104.97809"/>
    </g>
    <g clip-path="url(#pe1953bf734)">
     <use style="fill:#4c72b0;" x="119.057486" xlink:href="#C0_0_3379c0cd5a" y="95.874354"/>
    </g>
    <g clip-path="url(#pe1953bf734)">
     <use style="fill:#4c72b0;" x="108.959583" xlink:href="#C0_0_3379c0cd5a" y="98.593458"/>
    </g>
    <g clip-path="url(#pe1953bf734)">
     <use style="fill:#4c72b0;" x="214.227775" xlink:href="#C0_0_3379c0cd5a" y="99.049695"/>
    </g>
    <g clip-path="url(#pe1953bf734)">
     <use style="fill:#4c72b0;" x="223.688432" xlink:href="#C0_0_3379c0cd5a" y="88.790591"/>
    </g>
    <g clip-path="url(#pe1953bf734)">
     <use style="fill:#4c72b0;" x="295.721777" xlink:href="#C0_0_3379c0cd5a" y="95.963423"/>
    </g>
    <g clip-path="url(#pe1953bf734)">
     <use style="fill:#4c72b0;" x="323.515521" xlink:href="#C0_0_3379c0cd5a" y="81.02843"/>
    </g>
    <g clip-path="url(#pe1953bf734)">
     <use style="fill:#4c72b0;" x="90.160816" xlink:href="#C0_0_3379c0cd5a" y="86.070028"/>
    </g>
    <g clip-path="url(#pe1953bf734)">
     <use style="fill:#4c72b0;" x="83.494239" xlink:href="#C0_0_3379c0cd5a" y="91.031322"/>
    </g>
    <g clip-path="url(#pe1953bf734)">
     <use style="fill:#4c72b0;" x="104.42533" xlink:href="#C0_0_3379c0cd5a" y="103.284637"/>
    </g>
    <g clip-path="url(#pe1953bf734)">
     <use style="fill:#4c72b0;" x="207.92884" xlink:href="#C0_0_3379c0cd5a" y="89.211528"/>
    </g>
    <g clip-path="url(#pe1953bf734)">
     <use style="fill:#4c72b0;" x="139.204274" xlink:href="#C0_0_3379c0cd5a" y="85.00097"/>
    </g>
    <g clip-path="url(#pe1953bf734)">
     <use style="fill:#4c72b0;" x="213.149358" xlink:href="#C0_0_3379c0cd5a" y="91.523078"/>
    </g>
    <g clip-path="url(#pe1953bf734)">
     <use style="fill:#4c72b0;" x="87.048113" xlink:href="#C0_0_3379c0cd5a" y="90.495361"/>
    </g>
    <g clip-path="url(#pe1953bf734)">
     <use style="fill:#4c72b0;" x="91.410799" xlink:href="#C0_0_3379c0cd5a" y="99.45627"/>
    </g>
    <g clip-path="url(#pe1953bf734)">
     <use style="fill:#4c72b0;" x="112.096795" xlink:href="#C0_0_3379c0cd5a" y="84.406033"/>
    </g>
    <g clip-path="url(#pe1953bf734)">
     <use style="fill:#4c72b0;" x="135.258249" xlink:href="#C0_0_3379c0cd5a" y="78.789754"/>
    </g>
    <g clip-path="url(#pe1953bf734)">
     <use style="fill:#4c72b0;" x="148.983554" xlink:href="#C0_0_3379c0cd5a" y="82.477"/>
    </g>
    <g clip-path="url(#pe1953bf734)">
     <use style="fill:#4c72b0;" x="251.31061" xlink:href="#C0_0_3379c0cd5a" y="97.06534"/>
    </g>
    <g clip-path="url(#pe1953bf734)">
     <use style="fill:#4c72b0;" x="90.381401" xlink:href="#C0_0_3379c0cd5a" y="92.633566"/>
    </g>
    <g clip-path="url(#pe1953bf734)">
     <use style="fill:#4c72b0;" x="102.930252" xlink:href="#C0_0_3379c0cd5a" y="85.068322"/>
    </g>
    <g clip-path="url(#pe1953bf734)">
     <use style="fill:#4c72b0;" x="113.199722" xlink:href="#C0_0_3379c0cd5a" y="83.285755"/>
    </g>
    <g clip-path="url(#pe1953bf734)">
     <use style="fill:#4c72b0;" x="162.194161" xlink:href="#C0_0_3379c0cd5a" y="92.719024"/>
    </g>
    <g clip-path="url(#pe1953bf734)">
     <use style="fill:#4c72b0;" x="151.949201" xlink:href="#C0_0_3379c0cd5a" y="96.490239"/>
    </g>
    <g clip-path="url(#pe1953bf734)">
     <use style="fill:#4c72b0;" x="284.128796" xlink:href="#C0_0_3379c0cd5a" y="92.149939"/>
    </g>
    <g clip-path="url(#pe1953bf734)">
     <use style="fill:#4c72b0;" x="91.288252" xlink:href="#C0_0_3379c0cd5a" y="91.422137"/>
    </g>
    <g clip-path="url(#pe1953bf734)">
     <use style="fill:#4c72b0;" x="110.724265" xlink:href="#C0_0_3379c0cd5a" y="96.294477"/>
    </g>
    <g clip-path="url(#pe1953bf734)">
     <use style="fill:#4c72b0;" x="115.748707" xlink:href="#C0_0_3379c0cd5a" y="82.422609"/>
    </g>
    <g clip-path="url(#pe1953bf734)">
     <use style="fill:#4c72b0;" x="215.036588" xlink:href="#C0_0_3379c0cd5a" y="105.622081"/>
    </g>
    <g clip-path="url(#pe1953bf734)">
     <use style="fill:#4c72b0;" x="154.375639" xlink:href="#C0_0_3379c0cd5a" y="81.124429"/>
    </g>
    <g clip-path="url(#pe1953bf734)">
     <use style="fill:#4c72b0;" x="286.604253" xlink:href="#C0_0_3379c0cd5a" y="80.205719"/>
    </g>
    <g clip-path="url(#pe1953bf734)">
     <use style="fill:#4c72b0;" x="89.180437" xlink:href="#C0_0_3379c0cd5a" y="82.57187"/>
    </g>
    <g clip-path="url(#pe1953bf734)">
     <use style="fill:#4c72b0;" x="107.341957" xlink:href="#C0_0_3379c0cd5a" y="88.636083"/>
    </g>
    <g clip-path="url(#pe1953bf734)">
     <use style="fill:#4c72b0;" x="115.283027" xlink:href="#C0_0_3379c0cd5a" y="92.153355"/>
    </g>
    <g clip-path="url(#pe1953bf734)">
     <use style="fill:#4c72b0;" x="228.051119" xlink:href="#C0_0_3379c0cd5a" y="88.147298"/>
    </g>
    <g clip-path="url(#pe1953bf734)">
     <use style="fill:#4c72b0;" x="155.184451" xlink:href="#C0_0_3379c0cd5a" y="83.288501"/>
    </g>
    <g clip-path="url(#pe1953bf734)">
     <use style="fill:#4c72b0;" x="279.471996" xlink:href="#C0_0_3379c0cd5a" y="91.616669"/>
    </g>
    <g clip-path="url(#pe1953bf734)">
     <use style="fill:#4c72b0;" x="89.450041" xlink:href="#C0_0_3379c0cd5a" y="91.01705"/>
    </g>
    <g clip-path="url(#pe1953bf734)">
     <use style="fill:#4c72b0;" x="109.621338" xlink:href="#C0_0_3379c0cd5a" y="83.980273"/>
    </g>
    <g clip-path="url(#pe1953bf734)">
     <use style="fill:#4c72b0;" x="119.572185" xlink:href="#C0_0_3379c0cd5a" y="91.784208"/>
    </g>
    <g clip-path="url(#pe1953bf734)">
     <use style="fill:#4c72b0;" x="241.678386" xlink:href="#C0_0_3379c0cd5a" y="96.424372"/>
    </g>
    <g clip-path="url(#pe1953bf734)">
     <use style="fill:#4c72b0;" x="155.870717" xlink:href="#C0_0_3379c0cd5a" y="100.489861"/>
    </g>
    <g clip-path="url(#pe1953bf734)">
     <use style="fill:#4c72b0;" x="290.574788" xlink:href="#C0_0_3379c0cd5a" y="84.681148"/>
    </g>
    <g clip-path="url(#pe1953bf734)">
     <use style="fill:#4c72b0;" x="89.49906" xlink:href="#C0_0_3379c0cd5a" y="105.123986"/>
    </g>
    <g clip-path="url(#pe1953bf734)">
     <use style="fill:#4c72b0;" x="114.621271" xlink:href="#C0_0_3379c0cd5a" y="107.092058"/>
    </g>
    <g clip-path="url(#pe1953bf734)">
     <use style="fill:#4c72b0;" x="120.503545" xlink:href="#C0_0_3379c0cd5a" y="107.212967"/>
    </g>
    <g clip-path="url(#pe1953bf734)">
     <use style="fill:#4c72b0;" x="247.536151" xlink:href="#C0_0_3379c0cd5a" y="90.541267"/>
    </g>
    <g clip-path="url(#pe1953bf734)">
     <use style="fill:#4c72b0;" x="157.316776" xlink:href="#C0_0_3379c0cd5a" y="92.513049"/>
    </g>
    <g clip-path="url(#pe1953bf734)">
     <use style="fill:#4c72b0;" x="283.270964" xlink:href="#C0_0_3379c0cd5a" y="104.783105"/>
    </g>
    <g clip-path="url(#pe1953bf734)">
     <use style="fill:#4c72b0;" x="88.690247" xlink:href="#C0_0_3379c0cd5a" y="101.888911"/>
    </g>
    <g clip-path="url(#pe1953bf734)">
     <use style="fill:#4c72b0;" x="112.390909" xlink:href="#C0_0_3379c0cd5a" y="89.874479"/>
    </g>
    <g clip-path="url(#pe1953bf734)">
     <use style="fill:#4c72b0;" x="118.738863" xlink:href="#C0_0_3379c0cd5a" y="97.528873"/>
    </g>
    <g clip-path="url(#pe1953bf734)">
     <use style="fill:#4c72b0;" x="252.315498" xlink:href="#C0_0_3379c0cd5a" y="102.912423"/>
    </g>
    <g clip-path="url(#pe1953bf734)">
     <use style="fill:#4c72b0;" x="149.914914" xlink:href="#C0_0_3379c0cd5a" y="83.163411"/>
    </g>
    <g clip-path="url(#pe1953bf734)">
     <use style="fill:#4c72b0;" x="271.923078" xlink:href="#C0_0_3379c0cd5a" y="81.492655"/>
    </g>
   </g>
   <g id="PathCollection_2">
    <defs>
     <path d="M 0 2.5 
C 0.663008 2.5 1.29895 2.236584 1.767767 1.767767 
C 2.236584 1.29895 2.5 0.663008 2.5 0 
C 2.5 -0.663008 2.236584 -1.29895 1.767767 -1.767767 
C 1.29895 -2.236584 0.663008 -2.5 0 -2.5 
C -0.663008 -2.5 -1.29895 -2.236584 -1.767767 -1.767767 
C -2.236584 -1.29895 -2.5 -0.663008 -2.5 0 
C -2.5 0.663008 -2.236584 1.29895 -1.767767 1.767767 
C -1.29895 2.236584 -0.663008 2.5 0 2.5 
z
" id="C1_0_49ec4e7eec"/>
    </defs>
    <g clip-path="url(#pe1953bf734)">
     <use style="fill:#dd8452;" x="103.322404" xlink:href="#C1_0_49ec4e7eec" y="240.854445"/>
    </g>
    <g clip-path="url(#pe1953bf734)">
     <use style="fill:#dd8452;" x="78.175683" xlink:href="#C1_0_49ec4e7eec" y="243.55228"/>
    </g>
    <g clip-path="url(#pe1953bf734)">
     <use style="fill:#dd8452;" x="151.434502" xlink:href="#C1_0_49ec4e7eec" y="253.461977"/>
    </g>
    <g clip-path="url(#pe1953bf734)">
     <use style="fill:#dd8452;" x="139.86603" xlink:href="#C1_0_49ec4e7eec" y="232.497307"/>
    </g>
    <g clip-path="url(#pe1953bf734)">
     <use style="fill:#dd8452;" x="274.521082" xlink:href="#C1_0_49ec4e7eec" y="229.883178"/>
    </g>
    <g clip-path="url(#pe1953bf734)">
     <use style="fill:#dd8452;" x="186.924221" xlink:href="#C1_0_49ec4e7eec" y="243.426365"/>
    </g>
    <g clip-path="url(#pe1953bf734)">
     <use style="fill:#dd8452;" x="133.371019" xlink:href="#C1_0_49ec4e7eec" y="236.916833"/>
    </g>
    <g clip-path="url(#pe1953bf734)">
     <use style="fill:#dd8452;" x="82.293275" xlink:href="#C1_0_49ec4e7eec" y="247.090699"/>
    </g>
    <g clip-path="url(#pe1953bf734)">
     <use style="fill:#dd8452;" x="193.688836" xlink:href="#C1_0_49ec4e7eec" y="233.809118"/>
    </g>
    <g clip-path="url(#pe1953bf734)">
     <use style="fill:#dd8452;" x="145.576737" xlink:href="#C1_0_49ec4e7eec" y="247.018316"/>
    </g>
    <g clip-path="url(#pe1953bf734)">
     <use style="fill:#dd8452;" x="296.898232" xlink:href="#C1_0_49ec4e7eec" y="246.022108"/>
    </g>
    <g clip-path="url(#pe1953bf734)">
     <use style="fill:#dd8452;" x="192.53689" xlink:href="#C1_0_49ec4e7eec" y="244.070172"/>
    </g>
    <g clip-path="url(#pe1953bf734)">
     <use style="fill:#dd8452;" x="109.890943" xlink:href="#C1_0_49ec4e7eec" y="227.023086"/>
    </g>
    <g clip-path="url(#pe1953bf734)">
     <use style="fill:#dd8452;" x="89.670626" xlink:href="#C1_0_49ec4e7eec" y="238.639708"/>
    </g>
    <g clip-path="url(#pe1953bf734)">
     <use style="fill:#dd8452;" x="152.610956" xlink:href="#C1_0_49ec4e7eec" y="252.309957"/>
    </g>
    <g clip-path="url(#pe1953bf734)">
     <use style="fill:#dd8452;" x="150.797255" xlink:href="#C1_0_49ec4e7eec" y="249.936587"/>
    </g>
    <g clip-path="url(#pe1953bf734)">
     <use style="fill:#dd8452;" x="300.476615" xlink:href="#C1_0_49ec4e7eec" y="250.783203"/>
    </g>
    <g clip-path="url(#pe1953bf734)">
     <use style="fill:#dd8452;" x="196.605463" xlink:href="#C1_0_49ec4e7eec" y="234.916734"/>
    </g>
    <g clip-path="url(#pe1953bf734)">
     <use style="fill:#dd8452;" x="136.091571" xlink:href="#C1_0_49ec4e7eec" y="229.176597"/>
    </g>
    <g clip-path="url(#pe1953bf734)">
     <use style="fill:#dd8452;" x="95.773485" xlink:href="#C1_0_49ec4e7eec" y="254.376375"/>
    </g>
    <g clip-path="url(#pe1953bf734)">
     <use style="fill:#dd8452;" x="213.566019" xlink:href="#C1_0_49ec4e7eec" y="238.426518"/>
    </g>
    <g clip-path="url(#pe1953bf734)">
     <use style="fill:#dd8452;" x="159.669685" xlink:href="#C1_0_49ec4e7eec" y="248.256796"/>
    </g>
    <g clip-path="url(#pe1953bf734)">
     <use style="fill:#dd8452;" x="319.667534" xlink:href="#C1_0_49ec4e7eec" y="226.139955"/>
    </g>
    <g clip-path="url(#pe1953bf734)">
     <use style="fill:#dd8452;" x="198.566221" xlink:href="#C1_0_49ec4e7eec" y="230.410713"/>
    </g>
    <g clip-path="url(#pe1953bf734)">
     <use style="fill:#dd8452;" x="121.18981" xlink:href="#C1_0_49ec4e7eec" y="245.018296"/>
    </g>
    <g clip-path="url(#pe1953bf734)">
     <use style="fill:#dd8452;" x="101.214589" xlink:href="#C1_0_49ec4e7eec" y="225.749504"/>
    </g>
    <g clip-path="url(#pe1953bf734)">
     <use style="fill:#dd8452;" x="216.678723" xlink:href="#C1_0_49ec4e7eec" y="229.664049"/>
    </g>
    <g clip-path="url(#pe1953bf734)">
     <use style="fill:#dd8452;" x="155.110923" xlink:href="#C1_0_49ec4e7eec" y="253.711435"/>
    </g>
    <g clip-path="url(#pe1953bf734)">
     <use style="fill:#dd8452;" x="324.348843" xlink:href="#C1_0_49ec4e7eec" y="238.544229"/>
    </g>
    <g clip-path="url(#pe1953bf734)">
     <use style="fill:#dd8452;" x="198.737787" xlink:href="#C1_0_49ec4e7eec" y="253.960544"/>
    </g>
    <g clip-path="url(#pe1953bf734)">
     <use style="fill:#dd8452;" x="134.106303" xlink:href="#C1_0_49ec4e7eec" y="247.397187"/>
    </g>
    <g clip-path="url(#pe1953bf734)">
     <use style="fill:#dd8452;" x="91.533346" xlink:href="#C1_0_49ec4e7eec" y="235.873612"/>
    </g>
    <g clip-path="url(#pe1953bf734)">
     <use style="fill:#dd8452;" x="206.262196" xlink:href="#C1_0_49ec4e7eec" y="243.251688"/>
    </g>
    <g clip-path="url(#pe1953bf734)">
     <use style="fill:#dd8452;" x="154.424658" xlink:href="#C1_0_49ec4e7eec" y="242.131384"/>
    </g>
    <g clip-path="url(#pe1953bf734)">
     <use style="fill:#dd8452;" x="326.187054" xlink:href="#C1_0_49ec4e7eec" y="232.79678"/>
    </g>
    <g clip-path="url(#pe1953bf734)">
     <use style="fill:#dd8452;" x="199.178958" xlink:href="#C1_0_49ec4e7eec" y="225.165254"/>
    </g>
    <g clip-path="url(#pe1953bf734)">
     <use style="fill:#dd8452;" x="123.07704" xlink:href="#C1_0_49ec4e7eec" y="249.862419"/>
    </g>
    <g clip-path="url(#pe1953bf734)">
     <use style="fill:#dd8452;" x="94.744087" xlink:href="#C1_0_49ec4e7eec" y="247.700215"/>
    </g>
    <g clip-path="url(#pe1953bf734)">
     <use style="fill:#dd8452;" x="193.811383" xlink:href="#C1_0_49ec4e7eec" y="248.095751"/>
    </g>
    <g clip-path="url(#pe1953bf734)">
     <use style="fill:#dd8452;" x="160.797121" xlink:href="#C1_0_49ec4e7eec" y="252.980872"/>
    </g>
    <g clip-path="url(#pe1953bf734)">
     <use style="fill:#dd8452;" x="272.560324" xlink:href="#C1_0_49ec4e7eec" y="250.160636"/>
    </g>
    <g clip-path="url(#pe1953bf734)">
     <use style="fill:#dd8452;" x="199.252486" xlink:href="#C1_0_49ec4e7eec" y="238.657699"/>
    </g>
    <g clip-path="url(#pe1953bf734)">
     <use style="fill:#dd8452;" x="121.042753" xlink:href="#C1_0_49ec4e7eec" y="236.247452"/>
    </g>
    <g clip-path="url(#pe1953bf734)">
     <use style="fill:#dd8452;" x="95.748976" xlink:href="#C1_0_49ec4e7eec" y="247.200404"/>
    </g>
    <g clip-path="url(#pe1953bf734)">
     <use style="fill:#dd8452;" x="218.369876" xlink:href="#C1_0_49ec4e7eec" y="234.03561"/>
    </g>
    <g clip-path="url(#pe1953bf734)">
     <use style="fill:#dd8452;" x="161.75299" xlink:href="#C1_0_49ec4e7eec" y="250.191191"/>
    </g>
    <g clip-path="url(#pe1953bf734)">
     <use style="fill:#dd8452;" x="304.398131" xlink:href="#C1_0_49ec4e7eec" y="251.058017"/>
    </g>
    <g clip-path="url(#pe1953bf734)">
     <use style="fill:#dd8452;" x="200.085808" xlink:href="#C1_0_49ec4e7eec" y="235.524869"/>
    </g>
    <g clip-path="url(#pe1953bf734)">
     <use style="fill:#dd8452;" x="124.988779" xlink:href="#C1_0_49ec4e7eec" y="238.393271"/>
    </g>
    <g clip-path="url(#pe1953bf734)">
     <use style="fill:#dd8452;" x="95.773485" xlink:href="#C1_0_49ec4e7eec" y="230.624979"/>
    </g>
    <g clip-path="url(#pe1953bf734)">
     <use style="fill:#dd8452;" x="220.747295" xlink:href="#C1_0_49ec4e7eec" y="232.667615"/>
    </g>
    <g clip-path="url(#pe1953bf734)">
     <use style="fill:#dd8452;" x="161.851028" xlink:href="#C1_0_49ec4e7eec" y="237.648141"/>
    </g>
    <g clip-path="url(#pe1953bf734)">
     <use style="fill:#dd8452;" x="290.01107" xlink:href="#C1_0_49ec4e7eec" y="236.288155"/>
    </g>
    <g clip-path="url(#pe1953bf734)">
     <use style="fill:#dd8452;" x="200.698545" xlink:href="#C1_0_49ec4e7eec" y="229.579905"/>
    </g>
    <g clip-path="url(#pe1953bf734)">
     <use style="fill:#dd8452;" x="90.234344" xlink:href="#C1_0_49ec4e7eec" y="251.137965"/>
    </g>
    <g clip-path="url(#pe1953bf734)">
     <use style="fill:#dd8452;" x="77.562946" xlink:href="#C1_0_49ec4e7eec" y="233.730698"/>
    </g>
    <g clip-path="url(#pe1953bf734)">
     <use style="fill:#dd8452;" x="104.694934" xlink:href="#C1_0_49ec4e7eec" y="247.483739"/>
    </g>
    <g clip-path="url(#pe1953bf734)">
     <use style="fill:#dd8452;" x="113.077174" xlink:href="#C1_0_49ec4e7eec" y="227.838246"/>
    </g>
    <g clip-path="url(#pe1953bf734)">
     <use style="fill:#dd8452;" x="139.081727" xlink:href="#C1_0_49ec4e7eec" y="227.248577"/>
    </g>
    <g clip-path="url(#pe1953bf734)">
     <use style="fill:#dd8452;" x="169.25289" xlink:href="#C1_0_49ec4e7eec" y="241.895111"/>
    </g>
    <g clip-path="url(#pe1953bf734)">
     <use style="fill:#dd8452;" x="86.901056" xlink:href="#C1_0_49ec4e7eec" y="246.050682"/>
    </g>
    <g clip-path="url(#pe1953bf734)">
     <use style="fill:#dd8452;" x="80.945253" xlink:href="#C1_0_49ec4e7eec" y="246.543337"/>
    </g>
    <g clip-path="url(#pe1953bf734)">
     <use style="fill:#dd8452;" x="111.606606" xlink:href="#C1_0_49ec4e7eec" y="226.143162"/>
    </g>
    <g clip-path="url(#pe1953bf734)">
     <use style="fill:#dd8452;" x="114.302648" xlink:href="#C1_0_49ec4e7eec" y="246.711086"/>
    </g>
    <g clip-path="url(#pe1953bf734)">
     <use style="fill:#dd8452;" x="149.473744" xlink:href="#C1_0_49ec4e7eec" y="247.042971"/>
    </g>
    <g clip-path="url(#pe1953bf734)">
     <use style="fill:#dd8452;" x="186.899711" xlink:href="#C1_0_49ec4e7eec" y="233.13502"/>
    </g>
    <g clip-path="url(#pe1953bf734)">
     <use style="fill:#dd8452;" x="90.307873" xlink:href="#C1_0_49ec4e7eec" y="251.754168"/>
    </g>
    <g clip-path="url(#pe1953bf734)">
     <use style="fill:#dd8452;" x="86.018715" xlink:href="#C1_0_49ec4e7eec" y="241.037858"/>
    </g>
    <g clip-path="url(#pe1953bf734)">
     <use style="fill:#dd8452;" x="113.322269" xlink:href="#C1_0_49ec4e7eec" y="249.742189"/>
    </g>
    <g clip-path="url(#pe1953bf734)">
     <use style="fill:#dd8452;" x="121.557452" xlink:href="#C1_0_49ec4e7eec" y="233.582266"/>
    </g>
    <g clip-path="url(#pe1953bf734)">
     <use style="fill:#dd8452;" x="146.924758" xlink:href="#C1_0_49ec4e7eec" y="234.510729"/>
    </g>
    <g clip-path="url(#pe1953bf734)">
     <use style="fill:#dd8452;" x="183.541913" xlink:href="#C1_0_49ec4e7eec" y="240.355447"/>
    </g>
    <g clip-path="url(#pe1953bf734)">
     <use style="fill:#dd8452;" x="91.116685" xlink:href="#C1_0_49ec4e7eec" y="242.100139"/>
    </g>
    <g clip-path="url(#pe1953bf734)">
     <use style="fill:#dd8452;" x="90.307873" xlink:href="#C1_0_49ec4e7eec" y="242.287514"/>
    </g>
    <g clip-path="url(#pe1953bf734)">
     <use style="fill:#dd8452;" x="115.871254" xlink:href="#C1_0_49ec4e7eec" y="239.208839"/>
    </g>
    <g clip-path="url(#pe1953bf734)">
     <use style="fill:#dd8452;" x="160.233403" xlink:href="#C1_0_49ec4e7eec" y="226.060078"/>
    </g>
    <g clip-path="url(#pe1953bf734)">
     <use style="fill:#dd8452;" x="154.155053" xlink:href="#C1_0_49ec4e7eec" y="239.226181"/>
    </g>
    <g clip-path="url(#pe1953bf734)">
     <use style="fill:#dd8452;" x="189.889867" xlink:href="#C1_0_49ec4e7eec" y="237.336996"/>
    </g>
    <g clip-path="url(#pe1953bf734)">
     <use style="fill:#dd8452;" x="87.930454" xlink:href="#C1_0_49ec4e7eec" y="246.353298"/>
    </g>
    <g clip-path="url(#pe1953bf734)">
     <use style="fill:#dd8452;" x="88.861814" xlink:href="#C1_0_49ec4e7eec" y="235.925561"/>
    </g>
    <g clip-path="url(#pe1953bf734)">
     <use style="fill:#dd8452;" x="115.184989" xlink:href="#C1_0_49ec4e7eec" y="231.696672"/>
    </g>
    <g clip-path="url(#pe1953bf734)">
     <use style="fill:#dd8452;" x="126.214253" xlink:href="#C1_0_49ec4e7eec" y="247.930478"/>
    </g>
    <g clip-path="url(#pe1953bf734)">
     <use style="fill:#dd8452;" x="155.135432" xlink:href="#C1_0_49ec4e7eec" y="232.237539"/>
    </g>
    <g clip-path="url(#pe1953bf734)">
     <use style="fill:#dd8452;" x="196.850558" xlink:href="#C1_0_49ec4e7eec" y="237.207269"/>
    </g>
    <g clip-path="url(#pe1953bf734)">
     <use style="fill:#dd8452;" x="89.401022" xlink:href="#C1_0_49ec4e7eec" y="231.67456"/>
    </g>
    <g clip-path="url(#pe1953bf734)">
     <use style="fill:#dd8452;" x="90.773553" xlink:href="#C1_0_49ec4e7eec" y="229.723108"/>
    </g>
    <g clip-path="url(#pe1953bf734)">
     <use style="fill:#dd8452;" x="119.498657" xlink:href="#C1_0_49ec4e7eec" y="237.757892"/>
    </g>
    <g clip-path="url(#pe1953bf734)">
     <use style="fill:#dd8452;" x="172.48814" xlink:href="#C1_0_49ec4e7eec" y="238.58342"/>
    </g>
    <g clip-path="url(#pe1953bf734)">
     <use style="fill:#dd8452;" x="156.140321" xlink:href="#C1_0_49ec4e7eec" y="226.053258"/>
    </g>
    <g clip-path="url(#pe1953bf734)">
     <use style="fill:#dd8452;" x="200.649526" xlink:href="#C1_0_49ec4e7eec" y="235.020614"/>
    </g>
    <g clip-path="url(#pe1953bf734)">
     <use style="fill:#dd8452;" x="89.278475" xlink:href="#C1_0_49ec4e7eec" y="231.206955"/>
    </g>
    <g clip-path="url(#pe1953bf734)">
     <use style="fill:#dd8452;" x="94.18037" xlink:href="#C1_0_49ec4e7eec" y="228.328089"/>
    </g>
    <g clip-path="url(#pe1953bf734)">
     <use style="fill:#dd8452;" x="120.577073" xlink:href="#C1_0_49ec4e7eec" y="233.269453"/>
    </g>
    <g clip-path="url(#pe1953bf734)">
     <use style="fill:#dd8452;" x="173.345972" xlink:href="#C1_0_49ec4e7eec" y="241.96315"/>
    </g>
    <g clip-path="url(#pe1953bf734)">
     <use style="fill:#dd8452;" x="157.316776" xlink:href="#C1_0_49ec4e7eec" y="244.058782"/>
    </g>
    <g clip-path="url(#pe1953bf734)">
     <use style="fill:#dd8452;" x="202.071076" xlink:href="#C1_0_49ec4e7eec" y="226.733505"/>
    </g>
    <g clip-path="url(#pe1953bf734)">
     <use style="fill:#dd8452;" x="88.616719" xlink:href="#C1_0_49ec4e7eec" y="243.812356"/>
    </g>
    <g clip-path="url(#pe1953bf734)">
     <use style="fill:#dd8452;" x="95.11173" xlink:href="#C1_0_49ec4e7eec" y="251.133791"/>
    </g>
    <g clip-path="url(#pe1953bf734)">
     <use style="fill:#dd8452;" x="117.856522" xlink:href="#C1_0_49ec4e7eec" y="225.727429"/>
    </g>
    <g clip-path="url(#pe1953bf734)">
     <use style="fill:#dd8452;" x="178.664528" xlink:href="#C1_0_49ec4e7eec" y="250.611658"/>
    </g>
    <g clip-path="url(#pe1953bf734)">
     <use style="fill:#dd8452;" x="148.542384" xlink:href="#C1_0_49ec4e7eec" y="237.095307"/>
    </g>
    <g clip-path="url(#pe1953bf734)">
     <use style="fill:#dd8452;" x="205.870044" xlink:href="#C1_0_49ec4e7eec" y="243.345067"/>
    </g>
   </g>
   <g id="text_11">
    <!-- Throughput and Precision -->
    <defs>
     <path d="M 25.921875 0 
L 25.921875 63.140625 
L 2.34375 63.140625 
L 2.34375 71.578125 
L 59.078125 71.578125 
L 59.078125 63.140625 
L 35.40625 63.140625 
L 35.40625 0 
z
" id="ArialMT-84"/>
     <path id="ArialMT-32"/>
     <path d="M 40.4375 6.390625 
Q 35.546875 2.25 31.03125 0.53125 
Q 26.515625 -1.171875 21.34375 -1.171875 
Q 12.796875 -1.171875 8.203125 3 
Q 3.609375 7.171875 3.609375 13.671875 
Q 3.609375 17.484375 5.34375 20.625 
Q 7.078125 23.78125 9.890625 25.6875 
Q 12.703125 27.59375 16.21875 28.5625 
Q 18.796875 29.25 24.03125 29.890625 
Q 34.671875 31.15625 39.703125 32.90625 
Q 39.75 34.71875 39.75 35.203125 
Q 39.75 40.578125 37.25 42.78125 
Q 33.890625 45.75 27.25 45.75 
Q 21.046875 45.75 18.09375 43.578125 
Q 15.140625 41.40625 13.71875 35.890625 
L 5.125 37.0625 
Q 6.296875 42.578125 8.984375 45.96875 
Q 11.671875 49.359375 16.75 51.1875 
Q 21.828125 53.03125 28.515625 53.03125 
Q 35.15625 53.03125 39.296875 51.46875 
Q 43.453125 49.90625 45.40625 47.53125 
Q 47.359375 45.171875 48.140625 41.546875 
Q 48.578125 39.3125 48.578125 33.453125 
L 48.578125 21.734375 
Q 48.578125 9.46875 49.140625 6.21875 
Q 49.703125 2.984375 51.375 0 
L 42.1875 0 
Q 40.828125 2.734375 40.4375 6.390625 
z
M 39.703125 26.03125 
Q 34.90625 24.078125 25.34375 22.703125 
Q 19.921875 21.921875 17.671875 20.9375 
Q 15.4375 19.96875 14.203125 18.09375 
Q 12.984375 16.21875 12.984375 13.921875 
Q 12.984375 10.40625 15.640625 8.0625 
Q 18.3125 5.71875 23.4375 5.71875 
Q 28.515625 5.71875 32.46875 7.9375 
Q 36.421875 10.15625 38.28125 14.015625 
Q 39.703125 17 39.703125 22.796875 
z
" id="ArialMT-97"/>
     <path d="M 40.234375 0 
L 40.234375 6.546875 
Q 35.296875 -1.171875 25.734375 -1.171875 
Q 19.53125 -1.171875 14.328125 2.25 
Q 9.125 5.671875 6.265625 11.796875 
Q 3.421875 17.921875 3.421875 25.875 
Q 3.421875 33.640625 6 39.96875 
Q 8.59375 46.296875 13.765625 49.65625 
Q 18.953125 53.03125 25.34375 53.03125 
Q 30.03125 53.03125 33.6875 51.046875 
Q 37.359375 49.078125 39.65625 45.90625 
L 39.65625 71.578125 
L 48.390625 71.578125 
L 48.390625 0 
z
M 12.453125 25.875 
Q 12.453125 15.921875 16.640625 10.984375 
Q 20.84375 6.0625 26.5625 6.0625 
Q 32.328125 6.0625 36.34375 10.765625 
Q 40.375 15.484375 40.375 25.140625 
Q 40.375 35.796875 36.265625 40.765625 
Q 32.171875 45.75 26.171875 45.75 
Q 20.3125 45.75 16.375 40.96875 
Q 12.453125 36.1875 12.453125 25.875 
z
" id="ArialMT-100"/>
    </defs>
    <g style="fill:#262626;" transform="translate(133.170313 12.96)scale(0.12 -0.12)">
     <use xlink:href="#ArialMT-84"/>
     <use x="61.083984" xlink:href="#ArialMT-104"/>
     <use x="116.699219" xlink:href="#ArialMT-114"/>
     <use x="150" xlink:href="#ArialMT-111"/>
     <use x="205.615234" xlink:href="#ArialMT-117"/>
     <use x="261.230469" xlink:href="#ArialMT-103"/>
     <use x="316.845703" xlink:href="#ArialMT-104"/>
     <use x="372.460938" xlink:href="#ArialMT-112"/>
     <use x="428.076172" xlink:href="#ArialMT-117"/>
     <use x="483.691406" xlink:href="#ArialMT-116"/>
     <use x="511.474609" xlink:href="#ArialMT-32"/>
     <use x="539.257812" xlink:href="#ArialMT-97"/>
     <use x="594.873047" xlink:href="#ArialMT-110"/>
     <use x="650.488281" xlink:href="#ArialMT-100"/>
     <use x="706.103516" xlink:href="#ArialMT-32"/>
     <use x="733.886719" xlink:href="#ArialMT-80"/>
     <use x="800.585938" xlink:href="#ArialMT-114"/>
     <use x="833.886719" xlink:href="#ArialMT-101"/>
     <use x="889.501953" xlink:href="#ArialMT-99"/>
     <use x="939.501953" xlink:href="#ArialMT-105"/>
     <use x="961.71875" xlink:href="#ArialMT-115"/>
     <use x="1011.71875" xlink:href="#ArialMT-105"/>
     <use x="1033.935547" xlink:href="#ArialMT-111"/>
     <use x="1089.550781" xlink:href="#ArialMT-110"/>
    </g>
   </g>
  </g>
 </g>
 <defs>
  <clipPath id="pe1953bf734">
   <rect height="294.533125" width="278.33" x="62.71" y="18.96"/>
  </clipPath>
 </defs>
</svg>
