<?xml version="1.0" encoding="utf-8" standalone="no"?>
<!DOCTYPE svg PUBLIC "-//W3C//DTD SVG 1.1//EN"
  "http://www.w3.org/Graphics/SVG/1.1/DTD/svg11.dtd">
<!-- Created with matplotlib (https://matplotlib.org/) -->
<svg height="360pt" version="1.1" viewBox="0 0 360 360" width="360pt" xmlns="http://www.w3.org/2000/svg" xmlns:xlink="http://www.w3.org/1999/xlink">
 <defs>
  <style type="text/css">
*{stroke-linecap:butt;stroke-linejoin:round;}
  </style>
 </defs>
 <g id="figure_1">
  <g id="patch_1">
   <path d="M 0 360 
L 360 360 
L 360 0 
L 0 0 
z
" style="fill:#ffffff;"/>
  </g>
  <g id="axes_1">
   <g id="patch_2">
    <path d="M 105.71 313.493125 
L 341.04 313.493125 
L 341.04 18.96 
L 105.71 18.96 
z
" style="fill:#eaeaf2;"/>
   </g>
   <g id="matplotlib.axis_1">
    <g id="xtick_1">
     <g id="line2d_1">
      <path clip-path="url(#pf32acba592)" d="M 114.882784 313.493125 
L 114.882784 18.96 
" style="fill:none;stroke:#ffffff;stroke-linecap:round;"/>
     </g>
     <g id="text_1">
      <!-- 0 -->
      <defs>
       <path d="M 4.15625 35.296875 
Q 4.15625 48 6.765625 55.734375 
Q 9.375 63.484375 14.515625 67.671875 
Q 19.671875 71.875 27.484375 71.875 
Q 33.25 71.875 37.59375 69.546875 
Q 41.9375 67.234375 44.765625 62.859375 
Q 47.609375 58.5 49.21875 52.21875 
Q 50.828125 45.953125 50.828125 35.296875 
Q 50.828125 22.703125 48.234375 14.96875 
Q 45.65625 7.234375 40.5 3 
Q 35.359375 -1.21875 27.484375 -1.21875 
Q 17.140625 -1.21875 11.234375 6.203125 
Q 4.15625 15.140625 4.15625 35.296875 
z
M 13.1875 35.296875 
Q 13.1875 17.671875 17.3125 11.828125 
Q 21.4375 6 27.484375 6 
Q 33.546875 6 37.671875 11.859375 
Q 41.796875 17.71875 41.796875 35.296875 
Q 41.796875 52.984375 37.671875 58.78125 
Q 33.546875 64.59375 27.390625 64.59375 
Q 21.34375 64.59375 17.71875 59.46875 
Q 13.1875 52.9375 13.1875 35.296875 
z
" id="ArialMT-48"/>
      </defs>
      <g style="fill:#262626;" transform="translate(111.824268 330.866719)scale(0.11 -0.11)">
       <use xlink:href="#ArialMT-48"/>
      </g>
     </g>
    </g>
    <g id="xtick_2">
     <g id="line2d_2">
      <path clip-path="url(#pf32acba592)" d="M 156.692032 313.493125 
L 156.692032 18.96 
" style="fill:none;stroke:#ffffff;stroke-linecap:round;"/>
     </g>
     <g id="text_2">
      <!-- 20 -->
      <defs>
       <path d="M 50.34375 8.453125 
L 50.34375 0 
L 3.03125 0 
Q 2.9375 3.171875 4.046875 6.109375 
Q 5.859375 10.9375 9.828125 15.625 
Q 13.8125 20.3125 21.34375 26.46875 
Q 33.015625 36.03125 37.109375 41.625 
Q 41.21875 47.21875 41.21875 52.203125 
Q 41.21875 57.421875 37.46875 61 
Q 33.734375 64.59375 27.734375 64.59375 
Q 21.390625 64.59375 17.578125 60.78125 
Q 13.765625 56.984375 13.71875 50.25 
L 4.6875 51.171875 
Q 5.609375 61.28125 11.65625 66.578125 
Q 17.71875 71.875 27.9375 71.875 
Q 38.234375 71.875 44.234375 66.15625 
Q 50.25 60.453125 50.25 52 
Q 50.25 47.703125 48.484375 43.546875 
Q 46.734375 39.40625 42.65625 34.8125 
Q 38.578125 30.21875 29.109375 22.21875 
Q 21.1875 15.578125 18.9375 13.203125 
Q 16.703125 10.84375 15.234375 8.453125 
z
" id="ArialMT-50"/>
      </defs>
      <g style="fill:#262626;" transform="translate(150.575001 330.866719)scale(0.11 -0.11)">
       <use xlink:href="#ArialMT-50"/>
       <use x="55.615234" xlink:href="#ArialMT-48"/>
      </g>
     </g>
    </g>
    <g id="xtick_3">
     <g id="line2d_3">
      <path clip-path="url(#pf32acba592)" d="M 198.501281 313.493125 
L 198.501281 18.96 
" style="fill:none;stroke:#ffffff;stroke-linecap:round;"/>
     </g>
     <g id="text_3">
      <!-- 40 -->
      <defs>
       <path d="M 32.328125 0 
L 32.328125 17.140625 
L 1.265625 17.140625 
L 1.265625 25.203125 
L 33.9375 71.578125 
L 41.109375 71.578125 
L 41.109375 25.203125 
L 50.78125 25.203125 
L 50.78125 17.140625 
L 41.109375 17.140625 
L 41.109375 0 
z
M 32.328125 25.203125 
L 32.328125 57.46875 
L 9.90625 25.203125 
z
" id="ArialMT-52"/>
      </defs>
      <g style="fill:#262626;" transform="translate(192.38425 330.866719)scale(0.11 -0.11)">
       <use xlink:href="#ArialMT-52"/>
       <use x="55.615234" xlink:href="#ArialMT-48"/>
      </g>
     </g>
    </g>
    <g id="xtick_4">
     <g id="line2d_4">
      <path clip-path="url(#pf32acba592)" d="M 240.31053 313.493125 
L 240.31053 18.96 
" style="fill:none;stroke:#ffffff;stroke-linecap:round;"/>
     </g>
     <g id="text_4">
      <!-- 60 -->
      <defs>
       <path d="M 49.75 54.046875 
L 41.015625 53.375 
Q 39.84375 58.546875 37.703125 60.890625 
Q 34.125 64.65625 28.90625 64.65625 
Q 24.703125 64.65625 21.53125 62.3125 
Q 17.390625 59.28125 14.984375 53.46875 
Q 12.59375 47.65625 12.5 36.921875 
Q 15.671875 41.75 20.265625 44.09375 
Q 24.859375 46.4375 29.890625 46.4375 
Q 38.671875 46.4375 44.84375 39.96875 
Q 51.03125 33.5 51.03125 23.25 
Q 51.03125 16.5 48.125 10.71875 
Q 45.21875 4.9375 40.140625 1.859375 
Q 35.0625 -1.21875 28.609375 -1.21875 
Q 17.625 -1.21875 10.6875 6.859375 
Q 3.765625 14.9375 3.765625 33.5 
Q 3.765625 54.25 11.421875 63.671875 
Q 18.109375 71.875 29.4375 71.875 
Q 37.890625 71.875 43.28125 67.140625 
Q 48.6875 62.40625 49.75 54.046875 
z
M 13.875 23.1875 
Q 13.875 18.65625 15.796875 14.5 
Q 17.71875 10.359375 21.1875 8.171875 
Q 24.65625 6 28.46875 6 
Q 34.03125 6 38.03125 10.484375 
Q 42.046875 14.984375 42.046875 22.703125 
Q 42.046875 30.125 38.078125 34.390625 
Q 34.125 38.671875 28.125 38.671875 
Q 22.171875 38.671875 18.015625 34.390625 
Q 13.875 30.125 13.875 23.1875 
z
" id="ArialMT-54"/>
      </defs>
      <g style="fill:#262626;" transform="translate(234.193498 330.866719)scale(0.11 -0.11)">
       <use xlink:href="#ArialMT-54"/>
       <use x="55.615234" xlink:href="#ArialMT-48"/>
      </g>
     </g>
    </g>
    <g id="xtick_5">
     <g id="line2d_5">
      <path clip-path="url(#pf32acba592)" d="M 282.119778 313.493125 
L 282.119778 18.96 
" style="fill:none;stroke:#ffffff;stroke-linecap:round;"/>
     </g>
     <g id="text_5">
      <!-- 80 -->
      <defs>
       <path d="M 17.671875 38.8125 
Q 12.203125 40.828125 9.5625 44.53125 
Q 6.9375 48.25 6.9375 53.421875 
Q 6.9375 61.234375 12.546875 66.546875 
Q 18.171875 71.875 27.484375 71.875 
Q 36.859375 71.875 42.578125 66.421875 
Q 48.296875 60.984375 48.296875 53.171875 
Q 48.296875 48.1875 45.671875 44.5 
Q 43.0625 40.828125 37.75 38.8125 
Q 44.34375 36.671875 47.78125 31.875 
Q 51.21875 27.09375 51.21875 20.453125 
Q 51.21875 11.28125 44.71875 5.03125 
Q 38.234375 -1.21875 27.640625 -1.21875 
Q 17.046875 -1.21875 10.546875 5.046875 
Q 4.046875 11.328125 4.046875 20.703125 
Q 4.046875 27.6875 7.59375 32.390625 
Q 11.140625 37.109375 17.671875 38.8125 
z
M 15.921875 53.71875 
Q 15.921875 48.640625 19.1875 45.40625 
Q 22.46875 42.1875 27.6875 42.1875 
Q 32.765625 42.1875 36.015625 45.375 
Q 39.265625 48.578125 39.265625 53.21875 
Q 39.265625 58.0625 35.90625 61.359375 
Q 32.5625 64.65625 27.59375 64.65625 
Q 22.5625 64.65625 19.234375 61.421875 
Q 15.921875 58.203125 15.921875 53.71875 
z
M 13.09375 20.65625 
Q 13.09375 16.890625 14.875 13.375 
Q 16.65625 9.859375 20.171875 7.921875 
Q 23.6875 6 27.734375 6 
Q 34.03125 6 38.125 10.046875 
Q 42.234375 14.109375 42.234375 20.359375 
Q 42.234375 26.703125 38.015625 30.859375 
Q 33.796875 35.015625 27.4375 35.015625 
Q 21.234375 35.015625 17.15625 30.90625 
Q 13.09375 26.8125 13.09375 20.65625 
z
" id="ArialMT-56"/>
      </defs>
      <g style="fill:#262626;" transform="translate(276.002747 330.866719)scale(0.11 -0.11)">
       <use xlink:href="#ArialMT-56"/>
       <use x="55.615234" xlink:href="#ArialMT-48"/>
      </g>
     </g>
    </g>
    <g id="xtick_6">
     <g id="line2d_6">
      <path clip-path="url(#pf32acba592)" d="M 323.929027 313.493125 
L 323.929027 18.96 
" style="fill:none;stroke:#ffffff;stroke-linecap:round;"/>
     </g>
     <g id="text_6">
      <!-- 100 -->
      <defs>
       <path d="M 37.25 0 
L 28.46875 0 
L 28.46875 56 
Q 25.296875 52.984375 20.140625 49.953125 
Q 14.984375 46.921875 10.890625 45.40625 
L 10.890625 53.90625 
Q 18.265625 57.375 23.78125 62.296875 
Q 29.296875 67.234375 31.59375 71.875 
L 37.25 71.875 
z
" id="ArialMT-49"/>
      </defs>
      <g style="fill:#262626;" transform="translate(314.75348 330.866719)scale(0.11 -0.11)">
       <use xlink:href="#ArialMT-49"/>
       <use x="55.615234" xlink:href="#ArialMT-48"/>
       <use x="111.230469" xlink:href="#ArialMT-48"/>
      </g>
     </g>
    </g>
    <g id="text_7">
     <!-- throughput -->
     <defs>
      <path d="M 25.78125 7.859375 
L 27.046875 0.09375 
Q 23.34375 -0.6875 20.40625 -0.6875 
Q 15.625 -0.6875 12.984375 0.828125 
Q 10.359375 2.34375 9.28125 4.8125 
Q 8.203125 7.28125 8.203125 15.1875 
L 8.203125 45.015625 
L 1.765625 45.015625 
L 1.765625 51.859375 
L 8.203125 51.859375 
L 8.203125 64.703125 
L 16.9375 69.96875 
L 16.9375 51.859375 
L 25.78125 51.859375 
L 25.78125 45.015625 
L 16.9375 45.015625 
L 16.9375 14.703125 
Q 16.9375 10.9375 17.40625 9.859375 
Q 17.875 8.796875 18.921875 8.15625 
Q 19.96875 7.515625 21.921875 7.515625 
Q 23.390625 7.515625 25.78125 7.859375 
z
" id="ArialMT-116"/>
      <path d="M 6.59375 0 
L 6.59375 71.578125 
L 15.375 71.578125 
L 15.375 45.90625 
Q 21.53125 53.03125 30.90625 53.03125 
Q 36.671875 53.03125 40.921875 50.75 
Q 45.171875 48.484375 47 44.484375 
Q 48.828125 40.484375 48.828125 32.859375 
L 48.828125 0 
L 40.046875 0 
L 40.046875 32.859375 
Q 40.046875 39.453125 37.1875 42.453125 
Q 34.328125 45.453125 29.109375 45.453125 
Q 25.203125 45.453125 21.75 43.421875 
Q 18.3125 41.40625 16.84375 37.9375 
Q 15.375 34.46875 15.375 28.375 
L 15.375 0 
z
" id="ArialMT-104"/>
      <path d="M 6.5 0 
L 6.5 51.859375 
L 14.40625 51.859375 
L 14.40625 44 
Q 17.4375 49.515625 20 51.265625 
Q 22.5625 53.03125 25.640625 53.03125 
Q 30.078125 53.03125 34.671875 50.203125 
L 31.640625 42.046875 
Q 28.421875 43.953125 25.203125 43.953125 
Q 22.3125 43.953125 20.015625 42.21875 
Q 17.71875 40.484375 16.75 37.40625 
Q 15.28125 32.71875 15.28125 27.15625 
L 15.28125 0 
z
" id="ArialMT-114"/>
      <path d="M 3.328125 25.921875 
Q 3.328125 40.328125 11.328125 47.265625 
Q 18.015625 53.03125 27.640625 53.03125 
Q 38.328125 53.03125 45.109375 46.015625 
Q 51.90625 39.015625 51.90625 26.65625 
Q 51.90625 16.65625 48.90625 10.90625 
Q 45.90625 5.171875 40.15625 2 
Q 34.421875 -1.171875 27.640625 -1.171875 
Q 16.75 -1.171875 10.03125 5.8125 
Q 3.328125 12.796875 3.328125 25.921875 
z
M 12.359375 25.921875 
Q 12.359375 15.96875 16.703125 11.015625 
Q 21.046875 6.0625 27.640625 6.0625 
Q 34.1875 6.0625 38.53125 11.03125 
Q 42.875 16.015625 42.875 26.21875 
Q 42.875 35.84375 38.5 40.796875 
Q 34.125 45.75 27.640625 45.75 
Q 21.046875 45.75 16.703125 40.8125 
Q 12.359375 35.890625 12.359375 25.921875 
z
" id="ArialMT-111"/>
      <path d="M 40.578125 0 
L 40.578125 7.625 
Q 34.515625 -1.171875 24.125 -1.171875 
Q 19.53125 -1.171875 15.546875 0.578125 
Q 11.578125 2.34375 9.640625 5 
Q 7.71875 7.671875 6.9375 11.53125 
Q 6.390625 14.109375 6.390625 19.734375 
L 6.390625 51.859375 
L 15.1875 51.859375 
L 15.1875 23.09375 
Q 15.1875 16.21875 15.71875 13.8125 
Q 16.546875 10.359375 19.234375 8.375 
Q 21.921875 6.390625 25.875 6.390625 
Q 29.828125 6.390625 33.296875 8.421875 
Q 36.765625 10.453125 38.203125 13.9375 
Q 39.65625 17.4375 39.65625 24.078125 
L 39.65625 51.859375 
L 48.4375 51.859375 
L 48.4375 0 
z
" id="ArialMT-117"/>
      <path d="M 4.984375 -4.296875 
L 13.53125 -5.5625 
Q 14.0625 -9.515625 16.5 -11.328125 
Q 19.78125 -13.765625 25.4375 -13.765625 
Q 31.546875 -13.765625 34.859375 -11.328125 
Q 38.1875 -8.890625 39.359375 -4.5 
Q 40.046875 -1.8125 39.984375 6.78125 
Q 34.234375 0 25.640625 0 
Q 14.9375 0 9.078125 7.71875 
Q 3.21875 15.4375 3.21875 26.21875 
Q 3.21875 33.640625 5.90625 39.90625 
Q 8.59375 46.1875 13.6875 49.609375 
Q 18.796875 53.03125 25.6875 53.03125 
Q 34.859375 53.03125 40.828125 45.609375 
L 40.828125 51.859375 
L 48.921875 51.859375 
L 48.921875 7.03125 
Q 48.921875 -5.078125 46.453125 -10.125 
Q 44 -15.1875 38.640625 -18.109375 
Q 33.296875 -21.046875 25.484375 -21.046875 
Q 16.21875 -21.046875 10.5 -16.875 
Q 4.78125 -12.703125 4.984375 -4.296875 
z
M 12.25 26.859375 
Q 12.25 16.65625 16.296875 11.96875 
Q 20.359375 7.28125 26.46875 7.28125 
Q 32.515625 7.28125 36.609375 11.9375 
Q 40.71875 16.609375 40.71875 26.5625 
Q 40.71875 36.078125 36.5 40.90625 
Q 32.28125 45.75 26.3125 45.75 
Q 20.453125 45.75 16.34375 40.984375 
Q 12.25 36.234375 12.25 26.859375 
z
" id="ArialMT-103"/>
      <path d="M 6.59375 -19.875 
L 6.59375 51.859375 
L 14.59375 51.859375 
L 14.59375 45.125 
Q 17.4375 49.078125 21 51.046875 
Q 24.5625 53.03125 29.640625 53.03125 
Q 36.28125 53.03125 41.359375 49.609375 
Q 46.4375 46.1875 49.015625 39.953125 
Q 51.609375 33.734375 51.609375 26.3125 
Q 51.609375 18.359375 48.75 11.984375 
Q 45.90625 5.609375 40.453125 2.21875 
Q 35.015625 -1.171875 29 -1.171875 
Q 24.609375 -1.171875 21.109375 0.6875 
Q 17.625 2.546875 15.375 5.375 
L 15.375 -19.875 
z
M 14.546875 25.640625 
Q 14.546875 15.625 18.59375 10.84375 
Q 22.65625 6.0625 28.421875 6.0625 
Q 34.28125 6.0625 38.453125 11.015625 
Q 42.625 15.96875 42.625 26.375 
Q 42.625 36.28125 38.546875 41.203125 
Q 34.46875 46.140625 28.8125 46.140625 
Q 23.1875 46.140625 18.859375 40.890625 
Q 14.546875 35.640625 14.546875 25.640625 
z
" id="ArialMT-112"/>
     </defs>
     <g style="fill:#262626;" transform="translate(194.6875 345.642344)scale(0.12 -0.12)">
      <use xlink:href="#ArialMT-116"/>
      <use x="27.783203" xlink:href="#ArialMT-104"/>
      <use x="83.398438" xlink:href="#ArialMT-114"/>
      <use x="116.699219" xlink:href="#ArialMT-111"/>
      <use x="172.314453" xlink:href="#ArialMT-117"/>
      <use x="227.929688" xlink:href="#ArialMT-103"/>
      <use x="283.544922" xlink:href="#ArialMT-104"/>
      <use x="339.160156" xlink:href="#ArialMT-112"/>
      <use x="394.775391" xlink:href="#ArialMT-117"/>
      <use x="450.390625" xlink:href="#ArialMT-116"/>
     </g>
    </g>
   </g>
   <g id="matplotlib.axis_2">
    <g id="ytick_1">
     <g id="text_8">
      <!-- cpu_openvino -->
      <defs>
       <path d="M 40.4375 19 
L 49.078125 17.875 
Q 47.65625 8.9375 41.8125 3.875 
Q 35.984375 -1.171875 27.484375 -1.171875 
Q 16.84375 -1.171875 10.375 5.78125 
Q 3.90625 12.75 3.90625 25.734375 
Q 3.90625 34.125 6.6875 40.421875 
Q 9.46875 46.734375 15.15625 49.875 
Q 20.84375 53.03125 27.546875 53.03125 
Q 35.984375 53.03125 41.359375 48.75 
Q 46.734375 44.484375 48.25 36.625 
L 39.703125 35.296875 
Q 38.484375 40.53125 35.375 43.15625 
Q 32.28125 45.796875 27.875 45.796875 
Q 21.234375 45.796875 17.078125 41.03125 
Q 12.9375 36.28125 12.9375 25.984375 
Q 12.9375 15.53125 16.9375 10.796875 
Q 20.953125 6.0625 27.390625 6.0625 
Q 32.5625 6.0625 36.03125 9.234375 
Q 39.5 12.40625 40.4375 19 
z
" id="ArialMT-99"/>
       <path d="M -1.515625 -19.875 
L -1.515625 -13.53125 
L 56.734375 -13.53125 
L 56.734375 -19.875 
z
" id="ArialMT-95"/>
       <path d="M 42.09375 16.703125 
L 51.171875 15.578125 
Q 49.03125 7.625 43.21875 3.21875 
Q 37.40625 -1.171875 28.375 -1.171875 
Q 17 -1.171875 10.328125 5.828125 
Q 3.65625 12.84375 3.65625 25.484375 
Q 3.65625 38.578125 10.390625 45.796875 
Q 17.140625 53.03125 27.875 53.03125 
Q 38.28125 53.03125 44.875 45.953125 
Q 51.46875 38.875 51.46875 26.03125 
Q 51.46875 25.25 51.421875 23.6875 
L 12.75 23.6875 
Q 13.234375 15.140625 17.578125 10.59375 
Q 21.921875 6.0625 28.421875 6.0625 
Q 33.25 6.0625 36.671875 8.59375 
Q 40.09375 11.140625 42.09375 16.703125 
z
M 13.234375 30.90625 
L 42.1875 30.90625 
Q 41.609375 37.453125 38.875 40.71875 
Q 34.671875 45.796875 27.984375 45.796875 
Q 21.921875 45.796875 17.796875 41.75 
Q 13.671875 37.703125 13.234375 30.90625 
z
" id="ArialMT-101"/>
       <path d="M 6.59375 0 
L 6.59375 51.859375 
L 14.5 51.859375 
L 14.5 44.484375 
Q 20.21875 53.03125 31 53.03125 
Q 35.6875 53.03125 39.625 51.34375 
Q 43.5625 49.65625 45.515625 46.921875 
Q 47.46875 44.1875 48.25 40.4375 
Q 48.734375 37.984375 48.734375 31.890625 
L 48.734375 0 
L 39.9375 0 
L 39.9375 31.546875 
Q 39.9375 36.921875 38.90625 39.578125 
Q 37.890625 42.234375 35.28125 43.8125 
Q 32.671875 45.40625 29.15625 45.40625 
Q 23.53125 45.40625 19.453125 41.84375 
Q 15.375 38.28125 15.375 28.328125 
L 15.375 0 
z
" id="ArialMT-110"/>
       <path d="M 21 0 
L 1.265625 51.859375 
L 10.546875 51.859375 
L 21.6875 20.796875 
Q 23.484375 15.765625 25 10.359375 
Q 26.171875 14.453125 28.265625 20.21875 
L 39.796875 51.859375 
L 48.828125 51.859375 
L 29.203125 0 
z
" id="ArialMT-118"/>
       <path d="M 6.640625 61.46875 
L 6.640625 71.578125 
L 15.4375 71.578125 
L 15.4375 61.46875 
z
M 6.640625 0 
L 6.640625 51.859375 
L 15.4375 51.859375 
L 15.4375 0 
z
" id="ArialMT-105"/>
      </defs>
      <g style="fill:#262626;" transform="translate(27.712656 96.530078)scale(0.11 -0.11)">
       <use xlink:href="#ArialMT-99"/>
       <use x="50" xlink:href="#ArialMT-112"/>
       <use x="105.615234" xlink:href="#ArialMT-117"/>
       <use x="161.230469" xlink:href="#ArialMT-95"/>
       <use x="216.845703" xlink:href="#ArialMT-111"/>
       <use x="272.460938" xlink:href="#ArialMT-112"/>
       <use x="328.076172" xlink:href="#ArialMT-101"/>
       <use x="383.691406" xlink:href="#ArialMT-110"/>
       <use x="439.306641" xlink:href="#ArialMT-118"/>
       <use x="489.306641" xlink:href="#ArialMT-105"/>
       <use x="511.523438" xlink:href="#ArialMT-110"/>
       <use x="567.138672" xlink:href="#ArialMT-111"/>
      </g>
     </g>
    </g>
    <g id="ytick_2">
     <g id="text_9">
      <!-- gpu_openvino -->
      <g style="fill:#262626;" transform="translate(27.095625 243.796641)scale(0.11 -0.11)">
       <use xlink:href="#ArialMT-103"/>
       <use x="55.615234" xlink:href="#ArialMT-112"/>
       <use x="111.230469" xlink:href="#ArialMT-117"/>
       <use x="166.845703" xlink:href="#ArialMT-95"/>
       <use x="222.460938" xlink:href="#ArialMT-111"/>
       <use x="278.076172" xlink:href="#ArialMT-112"/>
       <use x="333.691406" xlink:href="#ArialMT-101"/>
       <use x="389.306641" xlink:href="#ArialMT-110"/>
       <use x="444.921875" xlink:href="#ArialMT-118"/>
       <use x="494.921875" xlink:href="#ArialMT-105"/>
       <use x="517.138672" xlink:href="#ArialMT-110"/>
       <use x="572.753906" xlink:href="#ArialMT-111"/>
      </g>
     </g>
    </g>
    <g id="text_10">
     <!-- device -->
     <defs>
      <path d="M 40.234375 0 
L 40.234375 6.546875 
Q 35.296875 -1.171875 25.734375 -1.171875 
Q 19.53125 -1.171875 14.328125 2.25 
Q 9.125 5.671875 6.265625 11.796875 
Q 3.421875 17.921875 3.421875 25.875 
Q 3.421875 33.640625 6 39.96875 
Q 8.59375 46.296875 13.765625 49.65625 
Q 18.953125 53.03125 25.34375 53.03125 
Q 30.03125 53.03125 33.6875 51.046875 
Q 37.359375 49.078125 39.65625 45.90625 
L 39.65625 71.578125 
L 48.390625 71.578125 
L 48.390625 0 
z
M 12.453125 25.875 
Q 12.453125 15.921875 16.640625 10.984375 
Q 20.84375 6.0625 26.5625 6.0625 
Q 32.328125 6.0625 36.34375 10.765625 
Q 40.375 15.484375 40.375 25.140625 
Q 40.375 35.796875 36.265625 40.765625 
Q 32.171875 45.75 26.171875 45.75 
Q 20.3125 45.75 16.375 40.96875 
Q 12.453125 36.1875 12.453125 25.875 
z
" id="ArialMT-100"/>
     </defs>
     <g style="fill:#262626;" transform="translate(20.710625 183.569375)rotate(-90)scale(0.12 -0.12)">
      <use xlink:href="#ArialMT-100"/>
      <use x="55.615234" xlink:href="#ArialMT-101"/>
      <use x="111.230469" xlink:href="#ArialMT-118"/>
      <use x="161.230469" xlink:href="#ArialMT-105"/>
      <use x="183.447266" xlink:href="#ArialMT-99"/>
      <use x="233.447266" xlink:href="#ArialMT-101"/>
     </g>
    </g>
   </g>
   <g id="patch_3">
    <path d="M 105.71 313.493125 
L 105.71 18.96 
" style="fill:none;stroke:#ffffff;stroke-linecap:square;stroke-linejoin:miter;stroke-width:1.25;"/>
   </g>
   <g id="patch_4">
    <path d="M 105.71 313.493125 
L 341.04 313.493125 
" style="fill:none;stroke:#ffffff;stroke-linecap:square;stroke-linejoin:miter;stroke-width:1.25;"/>
   </g>
   <g id="PathCollection_1">
    <defs>
     <path d="M 0 2.5 
C 0.663008 2.5 1.29895 2.236584 1.767767 1.767767 
C 2.236584 1.29895 2.5 0.663008 2.5 0 
C 2.5 -0.663008 2.236584 -1.29895 1.767767 -1.767767 
C 1.29895 -2.236584 0.663008 -2.5 0 -2.5 
C -0.663008 -2.5 -1.29895 -2.236584 -1.767767 -1.767767 
C -2.236584 -1.29895 -2.5 -0.663008 -2.5 0 
C -2.5 0.663008 -2.236584 1.29895 -1.767767 1.767767 
C -1.29895 2.236584 -0.663008 2.5 0 2.5 
z
" id="C0_0_e4b5cebe96"/>
    </defs>
    <g clip-path="url(#pf32acba592)">
     <use style="fill:#4c72b0;" x="153.723576" xlink:href="#C0_0_e4b5cebe96" y="95.004437"/>
    </g>
    <g clip-path="url(#pf32acba592)">
     <use style="fill:#4c72b0;" x="170.238229" xlink:href="#C0_0_e4b5cebe96" y="106.760705"/>
    </g>
    <g clip-path="url(#pf32acba592)">
     <use style="fill:#4c72b0;" x="230.27631" xlink:href="#C0_0_e4b5cebe96" y="83.721535"/>
    </g>
    <g clip-path="url(#pf32acba592)">
     <use style="fill:#4c72b0;" x="142.288746" xlink:href="#C0_0_e4b5cebe96" y="90.490659"/>
    </g>
    <g clip-path="url(#pf32acba592)">
     <use style="fill:#4c72b0;" x="175.276243" xlink:href="#C0_0_e4b5cebe96" y="79.250264"/>
    </g>
    <g clip-path="url(#pf32acba592)">
     <use style="fill:#4c72b0;" x="251.599027" xlink:href="#C0_0_e4b5cebe96" y="105.777578"/>
    </g>
    <g clip-path="url(#pf32acba592)">
     <use style="fill:#4c72b0;" x="143.814784" xlink:href="#C0_0_e4b5cebe96" y="89.250321"/>
    </g>
    <g clip-path="url(#pf32acba592)">
     <use style="fill:#4c72b0;" x="179.080885" xlink:href="#C0_0_e4b5cebe96" y="94.797969"/>
    </g>
    <g clip-path="url(#pf32acba592)">
     <use style="fill:#4c72b0;" x="278.921371" xlink:href="#C0_0_e4b5cebe96" y="93.00959"/>
    </g>
    <g clip-path="url(#pf32acba592)">
     <use style="fill:#4c72b0;" x="153.619053" xlink:href="#C0_0_e4b5cebe96" y="82.999757"/>
    </g>
    <g clip-path="url(#pf32acba592)">
     <use style="fill:#4c72b0;" x="188.111683" xlink:href="#C0_0_e4b5cebe96" y="98.319022"/>
    </g>
    <g clip-path="url(#pf32acba592)">
     <use style="fill:#4c72b0;" x="241.857472" xlink:href="#C0_0_e4b5cebe96" y="105.036667"/>
    </g>
    <g clip-path="url(#pf32acba592)">
     <use style="fill:#4c72b0;" x="150.525168" xlink:href="#C0_0_e4b5cebe96" y="96.007936"/>
    </g>
    <g clip-path="url(#pf32acba592)">
     <use style="fill:#4c72b0;" x="184.139804" xlink:href="#C0_0_e4b5cebe96" y="88.688451"/>
    </g>
    <g clip-path="url(#pf32acba592)">
     <use style="fill:#4c72b0;" x="248.275191" xlink:href="#C0_0_e4b5cebe96" y="107.010711"/>
    </g>
    <g clip-path="url(#pf32acba592)">
     <use style="fill:#4c72b0;" x="143.375787" xlink:href="#C0_0_e4b5cebe96" y="97.369228"/>
    </g>
    <g clip-path="url(#pf32acba592)">
     <use style="fill:#4c72b0;" x="188.613394" xlink:href="#C0_0_e4b5cebe96" y="87.561109"/>
    </g>
    <g clip-path="url(#pf32acba592)">
     <use style="fill:#4c72b0;" x="245.034975" xlink:href="#C0_0_e4b5cebe96" y="105.696172"/>
    </g>
    <g clip-path="url(#pf32acba592)">
     <use style="fill:#4c72b0;" x="143.187645" xlink:href="#C0_0_e4b5cebe96" y="88.797069"/>
    </g>
    <g clip-path="url(#pf32acba592)">
     <use style="fill:#4c72b0;" x="188.759726" xlink:href="#C0_0_e4b5cebe96" y="94.615741"/>
    </g>
    <g clip-path="url(#pf32acba592)">
     <use style="fill:#4c72b0;" x="240.728622" xlink:href="#C0_0_e4b5cebe96" y="79.140577"/>
    </g>
    <g clip-path="url(#pf32acba592)">
     <use style="fill:#4c72b0;" x="143.459405" xlink:href="#C0_0_e4b5cebe96" y="93.280267"/>
    </g>
    <g clip-path="url(#pf32acba592)">
     <use style="fill:#4c72b0;" x="219.071431" xlink:href="#C0_0_e4b5cebe96" y="85.687038"/>
    </g>
    <g clip-path="url(#pf32acba592)">
     <use style="fill:#4c72b0;" x="247.250865" xlink:href="#C0_0_e4b5cebe96" y="89.54727"/>
    </g>
    <g clip-path="url(#pf32acba592)">
     <use style="fill:#4c72b0;" x="153.660862" xlink:href="#C0_0_e4b5cebe96" y="100.361291"/>
    </g>
    <g clip-path="url(#pf32acba592)">
     <use style="fill:#4c72b0;" x="234.833518" xlink:href="#C0_0_e4b5cebe96" y="89.512267"/>
    </g>
    <g clip-path="url(#pf32acba592)">
     <use style="fill:#4c72b0;" x="304.341394" xlink:href="#C0_0_e4b5cebe96" y="84.174723"/>
    </g>
    <g clip-path="url(#pf32acba592)">
     <use style="fill:#4c72b0;" x="140.240093" xlink:href="#C0_0_e4b5cebe96" y="85.837418"/>
    </g>
    <g clip-path="url(#pf32acba592)">
     <use style="fill:#4c72b0;" x="181.27587" xlink:href="#C0_0_e4b5cebe96" y="93.585907"/>
    </g>
    <g clip-path="url(#pf32acba592)">
     <use style="fill:#4c72b0;" x="286.258894" xlink:href="#C0_0_e4b5cebe96" y="93.578218"/>
    </g>
    <g clip-path="url(#pf32acba592)">
     <use style="fill:#4c72b0;" x="165.869162" xlink:href="#C0_0_e4b5cebe96" y="85.233733"/>
    </g>
    <g clip-path="url(#pf32acba592)">
     <use style="fill:#4c72b0;" x="217.315443" xlink:href="#C0_0_e4b5cebe96" y="97.198924"/>
    </g>
    <g clip-path="url(#pf32acba592)">
     <use style="fill:#4c72b0;" x="305.344816" xlink:href="#C0_0_e4b5cebe96" y="81.523848"/>
    </g>
    <g clip-path="url(#pf32acba592)">
     <use style="fill:#4c72b0;" x="145.842532" xlink:href="#C0_0_e4b5cebe96" y="100.350633"/>
    </g>
    <g clip-path="url(#pf32acba592)">
     <use style="fill:#4c72b0;" x="182.279292" xlink:href="#C0_0_e4b5cebe96" y="88.368154"/>
    </g>
    <g clip-path="url(#pf32acba592)">
     <use style="fill:#4c72b0;" x="308.396891" xlink:href="#C0_0_e4b5cebe96" y="89.826369"/>
    </g>
    <g clip-path="url(#pf32acba592)">
     <use style="fill:#4c72b0;" x="168.189576" xlink:href="#C0_0_e4b5cebe96" y="103.233167"/>
    </g>
    <g clip-path="url(#pf32acba592)">
     <use style="fill:#4c72b0;" x="234.269093" xlink:href="#C0_0_e4b5cebe96" y="82.076804"/>
    </g>
    <g clip-path="url(#pf32acba592)">
     <use style="fill:#4c72b0;" x="324.765212" xlink:href="#C0_0_e4b5cebe96" y="91.046063"/>
    </g>
    <g clip-path="url(#pf32acba592)">
     <use style="fill:#4c72b0;" x="155.479564" xlink:href="#C0_0_e4b5cebe96" y="99.124224"/>
    </g>
    <g clip-path="url(#pf32acba592)">
     <use style="fill:#4c72b0;" x="236.92398" xlink:href="#C0_0_e4b5cebe96" y="97.751922"/>
    </g>
    <g clip-path="url(#pf32acba592)">
     <use style="fill:#4c72b0;" x="328.757995" xlink:href="#C0_0_e4b5cebe96" y="88.184871"/>
    </g>
    <g clip-path="url(#pf32acba592)">
     <use style="fill:#4c72b0;" x="166.496301" xlink:href="#C0_0_e4b5cebe96" y="80.843776"/>
    </g>
    <g clip-path="url(#pf32acba592)">
     <use style="fill:#4c72b0;" x="228.039515" xlink:href="#C0_0_e4b5cebe96" y="83.658744"/>
    </g>
    <g clip-path="url(#pf32acba592)">
     <use style="fill:#4c72b0;" x="330.325842" xlink:href="#C0_0_e4b5cebe96" y="94.667134"/>
    </g>
    <g clip-path="url(#pf32acba592)">
     <use style="fill:#4c72b0;" x="157.08922" xlink:href="#C0_0_e4b5cebe96" y="97.196343"/>
    </g>
    <g clip-path="url(#pf32acba592)">
     <use style="fill:#4c72b0;" x="217.419966" xlink:href="#C0_0_e4b5cebe96" y="92.94893"/>
    </g>
    <g clip-path="url(#pf32acba592)">
     <use style="fill:#4c72b0;" x="284.586524" xlink:href="#C0_0_e4b5cebe96" y="102.564672"/>
    </g>
    <g clip-path="url(#pf32acba592)">
     <use style="fill:#4c72b0;" x="155.354136" xlink:href="#C0_0_e4b5cebe96" y="87.579318"/>
    </g>
    <g clip-path="url(#pf32acba592)">
     <use style="fill:#4c72b0;" x="238.366399" xlink:href="#C0_0_e4b5cebe96" y="80.175085"/>
    </g>
    <g clip-path="url(#pf32acba592)">
     <use style="fill:#4c72b0;" x="311.741631" xlink:href="#C0_0_e4b5cebe96" y="98.924432"/>
    </g>
    <g clip-path="url(#pf32acba592)">
     <use style="fill:#4c72b0;" x="158.719781" xlink:href="#C0_0_e4b5cebe96" y="92.555803"/>
    </g>
    <g clip-path="url(#pf32acba592)">
     <use style="fill:#4c72b0;" x="240.394148" xlink:href="#C0_0_e4b5cebe96" y="78.495806"/>
    </g>
    <g clip-path="url(#pf32acba592)">
     <use style="fill:#4c72b0;" x="299.470616" xlink:href="#C0_0_e4b5cebe96" y="101.87703"/>
    </g>
    <g clip-path="url(#pf32acba592)">
     <use style="fill:#4c72b0;" x="129.01431" xlink:href="#C0_0_e4b5cebe96" y="104.59274"/>
    </g>
    <g clip-path="url(#pf32acba592)">
     <use style="fill:#4c72b0;" x="141.180801" xlink:href="#C0_0_e4b5cebe96" y="91.568316"/>
    </g>
    <g clip-path="url(#pf32acba592)">
     <use style="fill:#4c72b0;" x="170.844463" xlink:href="#C0_0_e4b5cebe96" y="88.035582"/>
    </g>
    <g clip-path="url(#pf32acba592)">
     <use style="fill:#4c72b0;" x="126.359422" xlink:href="#C0_0_e4b5cebe96" y="79.303666"/>
    </g>
    <g clip-path="url(#pf32acba592)">
     <use style="fill:#4c72b0;" x="147.723948" xlink:href="#C0_0_e4b5cebe96" y="86.427169"/>
    </g>
    <g clip-path="url(#pf32acba592)">
     <use style="fill:#4c72b0;" x="179.185408" xlink:href="#C0_0_e4b5cebe96" y="101.324539"/>
    </g>
    <g clip-path="url(#pf32acba592)">
     <use style="fill:#4c72b0;" x="129.202451" xlink:href="#C0_0_e4b5cebe96" y="106.248703"/>
    </g>
    <g clip-path="url(#pf32acba592)">
     <use style="fill:#4c72b0;" x="148.664657" xlink:href="#C0_0_e4b5cebe96" y="92.167058"/>
    </g>
    <g clip-path="url(#pf32acba592)">
     <use style="fill:#4c72b0;" x="181.714868" xlink:href="#C0_0_e4b5cebe96" y="82.974167"/>
    </g>
    <g clip-path="url(#pf32acba592)">
     <use style="fill:#4c72b0;" x="129.975922" xlink:href="#C0_0_e4b5cebe96" y="96.262566"/>
    </g>
    <g clip-path="url(#pf32acba592)">
     <use style="fill:#4c72b0;" x="150.838738" xlink:href="#C0_0_e4b5cebe96" y="78.206332"/>
    </g>
    <g clip-path="url(#pf32acba592)">
     <use style="fill:#4c72b0;" x="183.784425" xlink:href="#C0_0_e4b5cebe96" y="104.092191"/>
    </g>
    <g clip-path="url(#pf32acba592)">
     <use style="fill:#4c72b0;" x="128.178125" xlink:href="#C0_0_e4b5cebe96" y="92.064375"/>
    </g>
    <g clip-path="url(#pf32acba592)">
     <use style="fill:#4c72b0;" x="150.44155" xlink:href="#C0_0_e4b5cebe96" y="105.145025"/>
    </g>
    <g clip-path="url(#pf32acba592)">
     <use style="fill:#4c72b0;" x="184.474278" xlink:href="#C0_0_e4b5cebe96" y="102.609023"/>
    </g>
    <g clip-path="url(#pf32acba592)">
     <use style="fill:#4c72b0;" x="128.408076" xlink:href="#C0_0_e4b5cebe96" y="80.568632"/>
    </g>
    <g clip-path="url(#pf32acba592)">
     <use style="fill:#4c72b0;" x="154.099859" xlink:href="#C0_0_e4b5cebe96" y="77.937816"/>
    </g>
    <g clip-path="url(#pf32acba592)">
     <use style="fill:#4c72b0;" x="185.059607" xlink:href="#C0_0_e4b5cebe96" y="78.528817"/>
    </g>
    <g clip-path="url(#pf32acba592)">
     <use style="fill:#4c72b0;" x="128.449885" xlink:href="#C0_0_e4b5cebe96" y="80.870869"/>
    </g>
    <g clip-path="url(#pf32acba592)">
     <use style="fill:#4c72b0;" x="154.894235" xlink:href="#C0_0_e4b5cebe96" y="102.54769"/>
    </g>
    <g clip-path="url(#pf32acba592)">
     <use style="fill:#4c72b0;" x="186.29298" xlink:href="#C0_0_e4b5cebe96" y="82.54803"/>
    </g>
    <g clip-path="url(#pf32acba592)">
     <use style="fill:#4c72b0;" x="127.760032" xlink:href="#C0_0_e4b5cebe96" y="87.887727"/>
    </g>
    <g clip-path="url(#pf32acba592)">
     <use style="fill:#4c72b0;" x="153.389102" xlink:href="#C0_0_e4b5cebe96" y="78.28149"/>
    </g>
    <g clip-path="url(#pf32acba592)">
     <use style="fill:#4c72b0;" x="179.979784" xlink:href="#C0_0_e4b5cebe96" y="95.128372"/>
    </g>
    <g clip-path="url(#pf32acba592)">
     <use style="fill:#4c72b0;" x="129.077024" xlink:href="#C0_0_e4b5cebe96" y="89.174493"/>
    </g>
    <g clip-path="url(#pf32acba592)">
     <use style="fill:#4c72b0;" x="141.410752" xlink:href="#C0_0_e4b5cebe96" y="84.020715"/>
    </g>
    <g clip-path="url(#pf32acba592)">
     <use style="fill:#4c72b0;" x="170.73994" xlink:href="#C0_0_e4b5cebe96" y="92.579043"/>
    </g>
    <g clip-path="url(#pf32acba592)">
     <use style="fill:#4c72b0;" x="126.233995" xlink:href="#C0_0_e4b5cebe96" y="103.84413"/>
    </g>
    <g clip-path="url(#pf32acba592)">
     <use style="fill:#4c72b0;" x="147.305856" xlink:href="#C0_0_e4b5cebe96" y="79.666357"/>
    </g>
    <g clip-path="url(#pf32acba592)">
     <use style="fill:#4c72b0;" x="179.603501" xlink:href="#C0_0_e4b5cebe96" y="95.477771"/>
    </g>
    <g clip-path="url(#pf32acba592)">
     <use style="fill:#4c72b0;" x="129.139737" xlink:href="#C0_0_e4b5cebe96" y="78.411335"/>
    </g>
    <g clip-path="url(#pf32acba592)">
     <use style="fill:#4c72b0;" x="148.76918" xlink:href="#C0_0_e4b5cebe96" y="100.968935"/>
    </g>
    <g clip-path="url(#pf32acba592)">
     <use style="fill:#4c72b0;" x="177.42942" xlink:href="#C0_0_e4b5cebe96" y="105.387284"/>
    </g>
    <g clip-path="url(#pf32acba592)">
     <use style="fill:#4c72b0;" x="129.82959" xlink:href="#C0_0_e4b5cebe96" y="107.111523"/>
    </g>
    <g clip-path="url(#pf32acba592)">
     <use style="fill:#4c72b0;" x="150.943261" xlink:href="#C0_0_e4b5cebe96" y="99.762595"/>
    </g>
    <g clip-path="url(#pf32acba592)">
     <use style="fill:#4c72b0;" x="183.596284" xlink:href="#C0_0_e4b5cebe96" y="97.420637"/>
    </g>
    <g clip-path="url(#pf32acba592)">
     <use style="fill:#4c72b0;" x="127.111989" xlink:href="#C0_0_e4b5cebe96" y="93.461608"/>
    </g>
    <g clip-path="url(#pf32acba592)">
     <use style="fill:#4c72b0;" x="150.357931" xlink:href="#C0_0_e4b5cebe96" y="90.56853"/>
    </g>
    <g clip-path="url(#pf32acba592)">
     <use style="fill:#4c72b0;" x="184.432469" xlink:href="#C0_0_e4b5cebe96" y="80.136574"/>
    </g>
    <g clip-path="url(#pf32acba592)">
     <use style="fill:#4c72b0;" x="128.366266" xlink:href="#C0_0_e4b5cebe96" y="82.133177"/>
    </g>
    <g clip-path="url(#pf32acba592)">
     <use style="fill:#4c72b0;" x="154.037145" xlink:href="#C0_0_e4b5cebe96" y="96.987077"/>
    </g>
    <g clip-path="url(#pf32acba592)">
     <use style="fill:#4c72b0;" x="185.289558" xlink:href="#C0_0_e4b5cebe96" y="86.263036"/>
    </g>
    <g clip-path="url(#pf32acba592)">
     <use style="fill:#4c72b0;" x="128.261743" xlink:href="#C0_0_e4b5cebe96" y="81.278323"/>
    </g>
    <g clip-path="url(#pf32acba592)">
     <use style="fill:#4c72b0;" x="154.956948" xlink:href="#C0_0_e4b5cebe96" y="91.60424"/>
    </g>
    <g clip-path="url(#pf32acba592)">
     <use style="fill:#4c72b0;" x="186.29298" xlink:href="#C0_0_e4b5cebe96" y="95.532321"/>
    </g>
    <g clip-path="url(#pf32acba592)">
     <use style="fill:#4c72b0;" x="127.697318" xlink:href="#C0_0_e4b5cebe96" y="102.452373"/>
    </g>
    <g clip-path="url(#pf32acba592)">
     <use style="fill:#4c72b0;" x="152.636535" xlink:href="#C0_0_e4b5cebe96" y="99.907293"/>
    </g>
    <g clip-path="url(#pf32acba592)">
     <use style="fill:#4c72b0;" x="178.809125" xlink:href="#C0_0_e4b5cebe96" y="105.802596"/>
    </g>
   </g>
   <g id="PathCollection_2">
    <defs>
     <path d="M 0 2.5 
C 0.663008 2.5 1.29895 2.236584 1.767767 1.767767 
C 2.236584 1.29895 2.5 0.663008 2.5 0 
C 2.5 -0.663008 2.236584 -1.29895 1.767767 -1.767767 
C 1.29895 -2.236584 0.663008 -2.5 0 -2.5 
C -0.663008 -2.5 -1.29895 -2.236584 -1.767767 -1.767767 
C -2.236584 -1.29895 -2.5 -0.663008 -2.5 0 
C -2.5 0.663008 -2.236584 1.29895 -1.767767 1.767767 
C -1.29895 2.236584 -0.663008 2.5 0 2.5 
z
" id="C1_0_594a87e881"/>
    </defs>
    <g clip-path="url(#pf32acba592)">
     <use style="fill:#dd8452;" x="122.283021" xlink:href="#C1_0_594a87e881" y="232.870354"/>
    </g>
    <g clip-path="url(#pf32acba592)">
     <use style="fill:#dd8452;" x="246.226538" xlink:href="#C1_0_594a87e881" y="237.330379"/>
    </g>
    <g clip-path="url(#pf32acba592)">
     <use style="fill:#dd8452;" x="268.6572" xlink:href="#C1_0_594a87e881" y="250.411464"/>
    </g>
    <g clip-path="url(#pf32acba592)">
     <use style="fill:#dd8452;" x="128.491694" xlink:href="#C1_0_594a87e881" y="233.165909"/>
    </g>
    <g clip-path="url(#pf32acba592)">
     <use style="fill:#dd8452;" x="174.314631" xlink:href="#C1_0_594a87e881" y="227.753002"/>
    </g>
    <g clip-path="url(#pf32acba592)">
     <use style="fill:#dd8452;" x="289.185541" xlink:href="#C1_0_594a87e881" y="242.145373"/>
    </g>
    <g clip-path="url(#pf32acba592)">
     <use style="fill:#dd8452;" x="138.400486" xlink:href="#C1_0_594a87e881" y="240.096512"/>
    </g>
    <g clip-path="url(#pf32acba592)">
     <use style="fill:#dd8452;" x="192.627081" xlink:href="#C1_0_594a87e881" y="253.255905"/>
    </g>
    <g clip-path="url(#pf32acba592)">
     <use style="fill:#dd8452;" x="313.602142" xlink:href="#C1_0_594a87e881" y="243.73916"/>
    </g>
    <g clip-path="url(#pf32acba592)">
     <use style="fill:#dd8452;" x="145.738009" xlink:href="#C1_0_594a87e881" y="238.032386"/>
    </g>
    <g clip-path="url(#pf32acba592)">
     <use style="fill:#dd8452;" x="238.90992" xlink:href="#C1_0_594a87e881" y="254.384146"/>
    </g>
    <g clip-path="url(#pf32acba592)">
     <use style="fill:#dd8452;" x="315.316322" xlink:href="#C1_0_594a87e881" y="236.16636"/>
    </g>
    <g clip-path="url(#pf32acba592)">
     <use style="fill:#dd8452;" x="151.319544" xlink:href="#C1_0_594a87e881" y="227.760171"/>
    </g>
    <g clip-path="url(#pf32acba592)">
     <use style="fill:#dd8452;" x="227.976801" xlink:href="#C1_0_594a87e881" y="245.195282"/>
    </g>
    <g clip-path="url(#pf32acba592)">
     <use style="fill:#dd8452;" x="322.277561" xlink:href="#C1_0_594a87e881" y="244.998952"/>
    </g>
    <g clip-path="url(#pf32acba592)">
     <use style="fill:#dd8452;" x="140.386425" xlink:href="#C1_0_594a87e881" y="249.912104"/>
    </g>
    <g clip-path="url(#pf32acba592)">
     <use style="fill:#dd8452;" x="238.700873" xlink:href="#C1_0_594a87e881" y="231.490224"/>
    </g>
    <g clip-path="url(#pf32acba592)">
     <use style="fill:#dd8452;" x="301.393842" xlink:href="#C1_0_594a87e881" y="230.94379"/>
    </g>
    <g clip-path="url(#pf32acba592)">
     <use style="fill:#dd8452;" x="143.982021" xlink:href="#C1_0_594a87e881" y="247.939389"/>
    </g>
    <g clip-path="url(#pf32acba592)">
     <use style="fill:#dd8452;" x="240.728622" xlink:href="#C1_0_594a87e881" y="251.422036"/>
    </g>
    <g clip-path="url(#pf32acba592)">
     <use style="fill:#dd8452;" x="324.368024" xlink:href="#C1_0_594a87e881" y="253.90557"/>
    </g>
    <g clip-path="url(#pf32acba592)">
     <use style="fill:#dd8452;" x="145.027252" xlink:href="#C1_0_594a87e881" y="242.052035"/>
    </g>
    <g clip-path="url(#pf32acba592)">
     <use style="fill:#dd8452;" x="242.066518" xlink:href="#C1_0_594a87e881" y="239.784874"/>
    </g>
    <g clip-path="url(#pf32acba592)">
     <use style="fill:#dd8452;" x="327.796382" xlink:href="#C1_0_594a87e881" y="230.672489"/>
    </g>
    <g clip-path="url(#pf32acba592)">
     <use style="fill:#dd8452;" x="145.048157" xlink:href="#C1_0_594a87e881" y="237.150647"/>
    </g>
    <g clip-path="url(#pf32acba592)">
     <use style="fill:#dd8452;" x="242.902703" xlink:href="#C1_0_594a87e881" y="232.127063"/>
    </g>
    <g clip-path="url(#pf32acba592)">
     <use style="fill:#dd8452;" x="328.047238" xlink:href="#C1_0_594a87e881" y="225.143142"/>
    </g>
    <g clip-path="url(#pf32acba592)">
     <use style="fill:#dd8452;" x="118.791948" xlink:href="#C1_0_594a87e881" y="234.045841"/>
    </g>
    <g clip-path="url(#pf32acba592)">
     <use style="fill:#dd8452;" x="171.408888" xlink:href="#C1_0_594a87e881" y="234.206332"/>
    </g>
    <g clip-path="url(#pf32acba592)">
     <use style="fill:#dd8452;" x="211.545766" xlink:href="#C1_0_594a87e881" y="238.511485"/>
    </g>
    <g clip-path="url(#pf32acba592)">
     <use style="fill:#dd8452;" x="122.303925" xlink:href="#C1_0_594a87e881" y="235.247926"/>
    </g>
    <g clip-path="url(#pf32acba592)">
     <use style="fill:#dd8452;" x="176.279665" xlink:href="#C1_0_594a87e881" y="233.692163"/>
    </g>
    <g clip-path="url(#pf32acba592)">
     <use style="fill:#dd8452;" x="216.332925" xlink:href="#C1_0_594a87e881" y="235.854351"/>
    </g>
    <g clip-path="url(#pf32acba592)">
     <use style="fill:#dd8452;" x="128.596217" xlink:href="#C1_0_594a87e881" y="238.829125"/>
    </g>
    <g clip-path="url(#pf32acba592)">
     <use style="fill:#dd8452;" x="180.73235" xlink:href="#C1_0_594a87e881" y="248.403893"/>
    </g>
    <g clip-path="url(#pf32acba592)">
     <use style="fill:#dd8452;" x="219.803093" xlink:href="#C1_0_594a87e881" y="241.349762"/>
    </g>
    <g clip-path="url(#pf32acba592)">
     <use style="fill:#dd8452;" x="133.801469" xlink:href="#C1_0_594a87e881" y="248.253953"/>
    </g>
    <g clip-path="url(#pf32acba592)">
     <use style="fill:#dd8452;" x="188.299824" xlink:href="#C1_0_594a87e881" y="250.591571"/>
    </g>
    <g clip-path="url(#pf32acba592)">
     <use style="fill:#dd8452;" x="221.475463" xlink:href="#C1_0_594a87e881" y="237.676533"/>
    </g>
    <g clip-path="url(#pf32acba592)">
     <use style="fill:#dd8452;" x="138.442295" xlink:href="#C1_0_594a87e881" y="233.361035"/>
    </g>
    <g clip-path="url(#pf32acba592)">
     <use style="fill:#dd8452;" x="184.411564" xlink:href="#C1_0_594a87e881" y="244.384049"/>
    </g>
    <g clip-path="url(#pf32acba592)">
     <use style="fill:#dd8452;" x="221.621795" xlink:href="#C1_0_594a87e881" y="237.777571"/>
    </g>
    <g clip-path="url(#pf32acba592)">
     <use style="fill:#dd8452;" x="130.184969" xlink:href="#C1_0_594a87e881" y="237.760672"/>
    </g>
    <g clip-path="url(#pf32acba592)">
     <use style="fill:#dd8452;" x="183.826235" xlink:href="#C1_0_594a87e881" y="227.975304"/>
    </g>
    <g clip-path="url(#pf32acba592)">
     <use style="fill:#dd8452;" x="221.998079" xlink:href="#C1_0_594a87e881" y="232.111726"/>
    </g>
    <g clip-path="url(#pf32acba592)">
     <use style="fill:#dd8452;" x="132.923474" xlink:href="#C1_0_594a87e881" y="226.659783"/>
    </g>
    <g clip-path="url(#pf32acba592)">
     <use style="fill:#dd8452;" x="189.261437" xlink:href="#C1_0_594a87e881" y="249.470622"/>
    </g>
    <g clip-path="url(#pf32acba592)">
     <use style="fill:#dd8452;" x="222.060793" xlink:href="#C1_0_594a87e881" y="230.010428"/>
    </g>
    <g clip-path="url(#pf32acba592)">
     <use style="fill:#dd8452;" x="133.780564" xlink:href="#C1_0_594a87e881" y="246.853756"/>
    </g>
    <g clip-path="url(#pf32acba592)">
     <use style="fill:#dd8452;" x="190.076717" xlink:href="#C1_0_594a87e881" y="248.973641"/>
    </g>
    <g clip-path="url(#pf32acba592)">
     <use style="fill:#dd8452;" x="222.77155" xlink:href="#C1_0_594a87e881" y="227.342478"/>
    </g>
    <g clip-path="url(#pf32acba592)">
     <use style="fill:#dd8452;" x="133.801469" xlink:href="#C1_0_594a87e881" y="246.299031"/>
    </g>
    <g clip-path="url(#pf32acba592)">
     <use style="fill:#dd8452;" x="190.160336" xlink:href="#C1_0_594a87e881" y="254.497175"/>
    </g>
    <g clip-path="url(#pf32acba592)">
     <use style="fill:#dd8452;" x="223.294165" xlink:href="#C1_0_594a87e881" y="227.190059"/>
    </g>
    <g clip-path="url(#pf32acba592)">
     <use style="fill:#dd8452;" x="123.328252" xlink:href="#C1_0_594a87e881" y="241.33298"/>
    </g>
    <g clip-path="url(#pf32acba592)">
     <use style="fill:#dd8452;" x="229.46103" xlink:href="#C1_0_594a87e881" y="235.547243"/>
    </g>
    <g clip-path="url(#pf32acba592)">
     <use style="fill:#dd8452;" x="233.913714" xlink:href="#C1_0_594a87e881" y="241.330256"/>
    </g>
    <g clip-path="url(#pf32acba592)">
     <use style="fill:#dd8452;" x="130.080446" xlink:href="#C1_0_594a87e881" y="227.512965"/>
    </g>
    <g clip-path="url(#pf32acba592)">
     <use style="fill:#dd8452;" x="167.478818" xlink:href="#C1_0_594a87e881" y="252.069547"/>
    </g>
    <g clip-path="url(#pf32acba592)">
     <use style="fill:#dd8452;" x="266.462215" xlink:href="#C1_0_594a87e881" y="230.292911"/>
    </g>
    <g clip-path="url(#pf32acba592)">
     <use style="fill:#dd8452;" x="139.905619" xlink:href="#C1_0_594a87e881" y="234.442921"/>
    </g>
    <g clip-path="url(#pf32acba592)">
     <use style="fill:#dd8452;" x="190.453001" xlink:href="#C1_0_594a87e881" y="246.015772"/>
    </g>
    <g clip-path="url(#pf32acba592)">
     <use style="fill:#dd8452;" x="294.453506" xlink:href="#C1_0_594a87e881" y="241.321977"/>
    </g>
    <g clip-path="url(#pf32acba592)">
     <use style="fill:#dd8452;" x="146.55329" xlink:href="#C1_0_594a87e881" y="244.756212"/>
    </g>
    <g clip-path="url(#pf32acba592)">
     <use style="fill:#dd8452;" x="235.523371" xlink:href="#C1_0_594a87e881" y="249.437248"/>
    </g>
    <g clip-path="url(#pf32acba592)">
     <use style="fill:#dd8452;" x="296.564874" xlink:href="#C1_0_594a87e881" y="243.575624"/>
    </g>
    <g clip-path="url(#pf32acba592)">
     <use style="fill:#dd8452;" x="143.668451" xlink:href="#C1_0_594a87e881" y="235.1347"/>
    </g>
    <g clip-path="url(#pf32acba592)">
     <use style="fill:#dd8452;" x="246.623726" xlink:href="#C1_0_594a87e881" y="232.997858"/>
    </g>
    <g clip-path="url(#pf32acba592)">
     <use style="fill:#dd8452;" x="290.481628" xlink:href="#C1_0_594a87e881" y="245.908548"/>
    </g>
    <g clip-path="url(#pf32acba592)">
     <use style="fill:#dd8452;" x="145.612581" xlink:href="#C1_0_594a87e881" y="248.237203"/>
    </g>
    <g clip-path="url(#pf32acba592)">
     <use style="fill:#dd8452;" x="258.246697" xlink:href="#C1_0_594a87e881" y="232.631418"/>
    </g>
    <g clip-path="url(#pf32acba592)">
     <use style="fill:#dd8452;" x="299.951423" xlink:href="#C1_0_594a87e881" y="238.122484"/>
    </g>
    <g clip-path="url(#pf32acba592)">
     <use style="fill:#dd8452;" x="149.877125" xlink:href="#C1_0_594a87e881" y="228.85769"/>
    </g>
    <g clip-path="url(#pf32acba592)">
     <use style="fill:#dd8452;" x="263.242902" xlink:href="#C1_0_594a87e881" y="226.613518"/>
    </g>
    <g clip-path="url(#pf32acba592)">
     <use style="fill:#dd8452;" x="293.721845" xlink:href="#C1_0_594a87e881" y="233.817041"/>
    </g>
    <g clip-path="url(#pf32acba592)">
     <use style="fill:#dd8452;" x="147.974804" xlink:href="#C1_0_594a87e881" y="253.549534"/>
    </g>
    <g clip-path="url(#pf32acba592)">
     <use style="fill:#dd8452;" x="267.319304" xlink:href="#C1_0_594a87e881" y="236.640645"/>
    </g>
    <g clip-path="url(#pf32acba592)">
     <use style="fill:#dd8452;" x="284.043004" xlink:href="#C1_0_594a87e881" y="229.939619"/>
    </g>
    <g clip-path="url(#pf32acba592)">
     <use style="fill:#dd8452;" x="118.269333" xlink:href="#C1_0_594a87e881" y="247.608946"/>
    </g>
    <g clip-path="url(#pf32acba592)">
     <use style="fill:#dd8452;" x="148.560133" xlink:href="#C1_0_594a87e881" y="227.091342"/>
    </g>
    <g clip-path="url(#pf32acba592)">
     <use style="fill:#dd8452;" x="196.473532" xlink:href="#C1_0_594a87e881" y="248.023965"/>
    </g>
    <g clip-path="url(#pf32acba592)">
     <use style="fill:#dd8452;" x="121.154171" xlink:href="#C1_0_594a87e881" y="232.763685"/>
    </g>
    <g clip-path="url(#pf32acba592)">
     <use style="fill:#dd8452;" x="149.605365" xlink:href="#C1_0_594a87e881" y="237.267793"/>
    </g>
    <g clip-path="url(#pf32acba592)">
     <use style="fill:#dd8452;" x="211.524862" xlink:href="#C1_0_594a87e881" y="244.4583"/>
    </g>
    <g clip-path="url(#pf32acba592)">
     <use style="fill:#dd8452;" x="125.481428" xlink:href="#C1_0_594a87e881" y="233.516371"/>
    </g>
    <g clip-path="url(#pf32acba592)">
     <use style="fill:#dd8452;" x="155.793133" xlink:href="#C1_0_594a87e881" y="254.315939"/>
    </g>
    <g clip-path="url(#pf32acba592)">
     <use style="fill:#dd8452;" x="208.660928" xlink:href="#C1_0_594a87e881" y="236.236202"/>
    </g>
    <g clip-path="url(#pf32acba592)">
     <use style="fill:#dd8452;" x="129.139737" xlink:href="#C1_0_594a87e881" y="241.995694"/>
    </g>
    <g clip-path="url(#pf32acba592)">
     <use style="fill:#dd8452;" x="188.780631" xlink:href="#C1_0_594a87e881" y="236.80431"/>
    </g>
    <g clip-path="url(#pf32acba592)">
     <use style="fill:#dd8452;" x="214.075226" xlink:href="#C1_0_594a87e881" y="241.779384"/>
    </g>
    <g clip-path="url(#pf32acba592)">
     <use style="fill:#dd8452;" x="127.906365" xlink:href="#C1_0_594a87e881" y="230.260072"/>
    </g>
    <g clip-path="url(#pf32acba592)">
     <use style="fill:#dd8452;" x="159.765012" xlink:href="#C1_0_594a87e881" y="250.675258"/>
    </g>
    <g clip-path="url(#pf32acba592)">
     <use style="fill:#dd8452;" x="220.012139" xlink:href="#C1_0_594a87e881" y="252.385347"/>
    </g>
    <g clip-path="url(#pf32acba592)">
     <use style="fill:#dd8452;" x="129.536925" xlink:href="#C1_0_594a87e881" y="240.434137"/>
    </g>
    <g clip-path="url(#pf32acba592)">
     <use style="fill:#dd8452;" x="199.232943" xlink:href="#C1_0_594a87e881" y="247.938372"/>
    </g>
    <g clip-path="url(#pf32acba592)">
     <use style="fill:#dd8452;" x="223.252356" xlink:href="#C1_0_594a87e881" y="253.31746"/>
    </g>
    <g clip-path="url(#pf32acba592)">
     <use style="fill:#dd8452;" x="132.442668" xlink:href="#C1_0_594a87e881" y="238.632219"/>
    </g>
    <g clip-path="url(#pf32acba592)">
     <use style="fill:#dd8452;" x="199.964605" xlink:href="#C1_0_594a87e881" y="240.621182"/>
    </g>
    <g clip-path="url(#pf32acba592)">
     <use style="fill:#dd8452;" x="224.464824" xlink:href="#C1_0_594a87e881" y="251.49294"/>
    </g>
    <g clip-path="url(#pf32acba592)">
     <use style="fill:#dd8452;" x="133.237044" xlink:href="#C1_0_594a87e881" y="233.43438"/>
    </g>
    <g clip-path="url(#pf32acba592)">
     <use style="fill:#dd8452;" x="204.500908" xlink:href="#C1_0_594a87e881" y="232.65598"/>
    </g>
    <g clip-path="url(#pf32acba592)">
     <use style="fill:#dd8452;" x="227.705041" xlink:href="#C1_0_594a87e881" y="225.419805"/>
    </g>
   </g>
   <g id="text_11">
    <!-- Throughput and Device -->
    <defs>
     <path d="M 25.921875 0 
L 25.921875 63.140625 
L 2.34375 63.140625 
L 2.34375 71.578125 
L 59.078125 71.578125 
L 59.078125 63.140625 
L 35.40625 63.140625 
L 35.40625 0 
z
" id="ArialMT-84"/>
     <path id="ArialMT-32"/>
     <path d="M 40.4375 6.390625 
Q 35.546875 2.25 31.03125 0.53125 
Q 26.515625 -1.171875 21.34375 -1.171875 
Q 12.796875 -1.171875 8.203125 3 
Q 3.609375 7.171875 3.609375 13.671875 
Q 3.609375 17.484375 5.34375 20.625 
Q 7.078125 23.78125 9.890625 25.6875 
Q 12.703125 27.59375 16.21875 28.5625 
Q 18.796875 29.25 24.03125 29.890625 
Q 34.671875 31.15625 39.703125 32.90625 
Q 39.75 34.71875 39.75 35.203125 
Q 39.75 40.578125 37.25 42.78125 
Q 33.890625 45.75 27.25 45.75 
Q 21.046875 45.75 18.09375 43.578125 
Q 15.140625 41.40625 13.71875 35.890625 
L 5.125 37.0625 
Q 6.296875 42.578125 8.984375 45.96875 
Q 11.671875 49.359375 16.75 51.1875 
Q 21.828125 53.03125 28.515625 53.03125 
Q 35.15625 53.03125 39.296875 51.46875 
Q 43.453125 49.90625 45.40625 47.53125 
Q 47.359375 45.171875 48.140625 41.546875 
Q 48.578125 39.3125 48.578125 33.453125 
L 48.578125 21.734375 
Q 48.578125 9.46875 49.140625 6.21875 
Q 49.703125 2.984375 51.375 0 
L 42.1875 0 
Q 40.828125 2.734375 40.4375 6.390625 
z
M 39.703125 26.03125 
Q 34.90625 24.078125 25.34375 22.703125 
Q 19.921875 21.921875 17.671875 20.9375 
Q 15.4375 19.96875 14.203125 18.09375 
Q 12.984375 16.21875 12.984375 13.921875 
Q 12.984375 10.40625 15.640625 8.0625 
Q 18.3125 5.71875 23.4375 5.71875 
Q 28.515625 5.71875 32.46875 7.9375 
Q 36.421875 10.15625 38.28125 14.015625 
Q 39.703125 17 39.703125 22.796875 
z
" id="ArialMT-97"/>
     <path d="M 7.71875 0 
L 7.71875 71.578125 
L 32.375 71.578125 
Q 40.71875 71.578125 45.125 70.5625 
Q 51.265625 69.140625 55.609375 65.4375 
Q 61.28125 60.640625 64.078125 53.1875 
Q 66.890625 45.75 66.890625 36.1875 
Q 66.890625 28.03125 64.984375 21.734375 
Q 63.09375 15.4375 60.109375 11.296875 
Q 57.125 7.171875 53.578125 4.796875 
Q 50.046875 2.4375 45.046875 1.21875 
Q 40.046875 0 33.546875 0 
z
M 17.1875 8.453125 
L 32.46875 8.453125 
Q 39.546875 8.453125 43.578125 9.765625 
Q 47.609375 11.078125 50 13.484375 
Q 53.375 16.84375 55.25 22.53125 
Q 57.125 28.21875 57.125 36.328125 
Q 57.125 47.5625 53.4375 53.59375 
Q 49.75 59.625 44.484375 61.671875 
Q 40.671875 63.140625 32.234375 63.140625 
L 17.1875 63.140625 
z
" id="ArialMT-68"/>
    </defs>
    <g style="fill:#262626;" transform="translate(161.006875 12.96)scale(0.12 -0.12)">
     <use xlink:href="#ArialMT-84"/>
     <use x="61.083984" xlink:href="#ArialMT-104"/>
     <use x="116.699219" xlink:href="#ArialMT-114"/>
     <use x="150" xlink:href="#ArialMT-111"/>
     <use x="205.615234" xlink:href="#ArialMT-117"/>
     <use x="261.230469" xlink:href="#ArialMT-103"/>
     <use x="316.845703" xlink:href="#ArialMT-104"/>
     <use x="372.460938" xlink:href="#ArialMT-112"/>
     <use x="428.076172" xlink:href="#ArialMT-117"/>
     <use x="483.691406" xlink:href="#ArialMT-116"/>
     <use x="511.474609" xlink:href="#ArialMT-32"/>
     <use x="539.257812" xlink:href="#ArialMT-97"/>
     <use x="594.873047" xlink:href="#ArialMT-110"/>
     <use x="650.488281" xlink:href="#ArialMT-100"/>
     <use x="706.103516" xlink:href="#ArialMT-32"/>
     <use x="733.886719" xlink:href="#ArialMT-68"/>
     <use x="806.103516" xlink:href="#ArialMT-101"/>
     <use x="861.71875" xlink:href="#ArialMT-118"/>
     <use x="911.71875" xlink:href="#ArialMT-105"/>
     <use x="933.935547" xlink:href="#ArialMT-99"/>
     <use x="983.935547" xlink:href="#ArialMT-101"/>
    </g>
   </g>
  </g>
 </g>
 <defs>
  <clipPath id="pf32acba592">
   <rect height="294.533125" width="235.33" x="105.71" y="18.96"/>
  </clipPath>
 </defs>
</svg>
