<?xml version="1.0" encoding="utf-8" standalone="no"?>
<!DOCTYPE svg PUBLIC "-//W3C//DTD SVG 1.1//EN"
  "http://www.w3.org/Graphics/SVG/1.1/DTD/svg11.dtd">
<!-- Created with matplotlib (https://matplotlib.org/) -->
<svg height="216pt" version="1.1" viewBox="0 0 504.225 216" width="504.225pt" xmlns="http://www.w3.org/2000/svg" xmlns:xlink="http://www.w3.org/1999/xlink">
 <defs>
  <style type="text/css">
*{stroke-linecap:butt;stroke-linejoin:round;}
  </style>
 </defs>
 <g id="figure_1">
  <g id="patch_1">
   <path d="M 0 216 
L 504.225 216 
L 504.225 0 
L 0 0 
z
" style="fill:#ffffff;"/>
  </g>
  <g id="axes_1">
   <g id="patch_2">
    <path d="M 64.057438 169.54 
L 232.862353 169.54 
L 232.862353 26.96 
L 64.057438 26.96 
z
" style="fill:#eaeaf2;"/>
   </g>
   <g id="matplotlib.axis_1">
    <g id="xtick_1">
     <g id="line2d_1">
      <path clip-path="url(#pb6df24ee86)" d="M 73.256756 169.54 
L 73.256756 26.96 
" style="fill:none;stroke:#ffffff;stroke-linecap:round;"/>
     </g>
     <g id="text_1">
      <!-- 0 -->
      <defs>
       <path d="M 4.15625 35.296875 
Q 4.15625 48 6.765625 55.734375 
Q 9.375 63.484375 14.515625 67.671875 
Q 19.671875 71.875 27.484375 71.875 
Q 33.25 71.875 37.59375 69.546875 
Q 41.9375 67.234375 44.765625 62.859375 
Q 47.609375 58.5 49.21875 52.21875 
Q 50.828125 45.953125 50.828125 35.296875 
Q 50.828125 22.703125 48.234375 14.96875 
Q 45.65625 7.234375 40.5 3 
Q 35.359375 -1.21875 27.484375 -1.21875 
Q 17.140625 -1.21875 11.234375 6.203125 
Q 4.15625 15.140625 4.15625 35.296875 
z
M 13.1875 35.296875 
Q 13.1875 17.671875 17.3125 11.828125 
Q 21.4375 6 27.484375 6 
Q 33.546875 6 37.671875 11.859375 
Q 41.796875 17.71875 41.796875 35.296875 
Q 41.796875 52.984375 37.671875 58.78125 
Q 33.546875 64.59375 27.390625 64.59375 
Q 21.34375 64.59375 17.71875 59.46875 
Q 13.1875 52.9375 13.1875 35.296875 
z
" id="ArialMT-48"/>
      </defs>
      <g style="fill:#262626;" transform="translate(70.19824 186.913594)scale(0.11 -0.11)">
       <use xlink:href="#ArialMT-48"/>
      </g>
     </g>
    </g>
    <g id="xtick_2">
     <g id="line2d_2">
      <path clip-path="url(#pb6df24ee86)" d="M 110.486055 169.54 
L 110.486055 26.96 
" style="fill:none;stroke:#ffffff;stroke-linecap:round;"/>
     </g>
     <g id="text_2">
      <!-- 25 -->
      <defs>
       <path d="M 50.34375 8.453125 
L 50.34375 0 
L 3.03125 0 
Q 2.9375 3.171875 4.046875 6.109375 
Q 5.859375 10.9375 9.828125 15.625 
Q 13.8125 20.3125 21.34375 26.46875 
Q 33.015625 36.03125 37.109375 41.625 
Q 41.21875 47.21875 41.21875 52.203125 
Q 41.21875 57.421875 37.46875 61 
Q 33.734375 64.59375 27.734375 64.59375 
Q 21.390625 64.59375 17.578125 60.78125 
Q 13.765625 56.984375 13.71875 50.25 
L 4.6875 51.171875 
Q 5.609375 61.28125 11.65625 66.578125 
Q 17.71875 71.875 27.9375 71.875 
Q 38.234375 71.875 44.234375 66.15625 
Q 50.25 60.453125 50.25 52 
Q 50.25 47.703125 48.484375 43.546875 
Q 46.734375 39.40625 42.65625 34.8125 
Q 38.578125 30.21875 29.109375 22.21875 
Q 21.1875 15.578125 18.9375 13.203125 
Q 16.703125 10.84375 15.234375 8.453125 
z
" id="ArialMT-50"/>
       <path d="M 4.15625 18.75 
L 13.375 19.53125 
Q 14.40625 12.796875 18.140625 9.390625 
Q 21.875 6 27.15625 6 
Q 33.5 6 37.890625 10.78125 
Q 42.28125 15.578125 42.28125 23.484375 
Q 42.28125 31 38.0625 35.34375 
Q 33.84375 39.703125 27 39.703125 
Q 22.75 39.703125 19.328125 37.765625 
Q 15.921875 35.84375 13.96875 32.765625 
L 5.71875 33.84375 
L 12.640625 70.609375 
L 48.25 70.609375 
L 48.25 62.203125 
L 19.671875 62.203125 
L 15.828125 42.96875 
Q 22.265625 47.46875 29.34375 47.46875 
Q 38.71875 47.46875 45.15625 40.96875 
Q 51.609375 34.46875 51.609375 24.265625 
Q 51.609375 14.546875 45.953125 7.46875 
Q 39.0625 -1.21875 27.15625 -1.21875 
Q 17.390625 -1.21875 11.203125 4.25 
Q 5.03125 9.71875 4.15625 18.75 
z
" id="ArialMT-53"/>
      </defs>
      <g style="fill:#262626;" transform="translate(104.369024 186.913594)scale(0.11 -0.11)">
       <use xlink:href="#ArialMT-50"/>
       <use x="55.615234" xlink:href="#ArialMT-53"/>
      </g>
     </g>
    </g>
    <g id="xtick_3">
     <g id="line2d_3">
      <path clip-path="url(#pb6df24ee86)" d="M 147.715355 169.54 
L 147.715355 26.96 
" style="fill:none;stroke:#ffffff;stroke-linecap:round;"/>
     </g>
     <g id="text_3">
      <!-- 50 -->
      <g style="fill:#262626;" transform="translate(141.598324 186.913594)scale(0.11 -0.11)">
       <use xlink:href="#ArialMT-53"/>
       <use x="55.615234" xlink:href="#ArialMT-48"/>
      </g>
     </g>
    </g>
    <g id="xtick_4">
     <g id="line2d_4">
      <path clip-path="url(#pb6df24ee86)" d="M 184.944655 169.54 
L 184.944655 26.96 
" style="fill:none;stroke:#ffffff;stroke-linecap:round;"/>
     </g>
     <g id="text_4">
      <!-- 75 -->
      <defs>
       <path d="M 4.734375 62.203125 
L 4.734375 70.65625 
L 51.078125 70.65625 
L 51.078125 63.8125 
Q 44.234375 56.546875 37.515625 44.484375 
Q 30.8125 32.421875 27.15625 19.671875 
Q 24.515625 10.6875 23.78125 0 
L 14.75 0 
Q 14.890625 8.453125 18.0625 20.40625 
Q 21.234375 32.375 27.171875 43.484375 
Q 33.109375 54.59375 39.796875 62.203125 
z
" id="ArialMT-55"/>
      </defs>
      <g style="fill:#262626;" transform="translate(178.827624 186.913594)scale(0.11 -0.11)">
       <use xlink:href="#ArialMT-55"/>
       <use x="55.615234" xlink:href="#ArialMT-53"/>
      </g>
     </g>
    </g>
    <g id="xtick_5">
     <g id="line2d_5">
      <path clip-path="url(#pb6df24ee86)" d="M 222.173955 169.54 
L 222.173955 26.96 
" style="fill:none;stroke:#ffffff;stroke-linecap:round;"/>
     </g>
     <g id="text_5">
      <!-- 100 -->
      <defs>
       <path d="M 37.25 0 
L 28.46875 0 
L 28.46875 56 
Q 25.296875 52.984375 20.140625 49.953125 
Q 14.984375 46.921875 10.890625 45.40625 
L 10.890625 53.90625 
Q 18.265625 57.375 23.78125 62.296875 
Q 29.296875 67.234375 31.59375 71.875 
L 37.25 71.875 
z
" id="ArialMT-49"/>
      </defs>
      <g style="fill:#262626;" transform="translate(212.998408 186.913594)scale(0.11 -0.11)">
       <use xlink:href="#ArialMT-49"/>
       <use x="55.615234" xlink:href="#ArialMT-48"/>
       <use x="111.230469" xlink:href="#ArialMT-48"/>
      </g>
     </g>
    </g>
    <g id="text_6">
     <!-- batch_size -->
     <defs>
      <path d="M 14.703125 0 
L 6.546875 0 
L 6.546875 71.578125 
L 15.328125 71.578125 
L 15.328125 46.046875 
Q 20.90625 53.03125 29.546875 53.03125 
Q 34.328125 53.03125 38.59375 51.09375 
Q 42.875 49.171875 45.625 45.671875 
Q 48.390625 42.1875 49.953125 37.25 
Q 51.515625 32.328125 51.515625 26.703125 
Q 51.515625 13.375 44.921875 6.09375 
Q 38.328125 -1.171875 29.109375 -1.171875 
Q 19.921875 -1.171875 14.703125 6.5 
z
M 14.59375 26.3125 
Q 14.59375 17 17.140625 12.84375 
Q 21.296875 6.0625 28.375 6.0625 
Q 34.125 6.0625 38.328125 11.0625 
Q 42.53125 16.0625 42.53125 25.984375 
Q 42.53125 36.140625 38.5 40.96875 
Q 34.46875 45.796875 28.765625 45.796875 
Q 23 45.796875 18.796875 40.796875 
Q 14.59375 35.796875 14.59375 26.3125 
z
" id="ArialMT-98"/>
      <path d="M 40.4375 6.390625 
Q 35.546875 2.25 31.03125 0.53125 
Q 26.515625 -1.171875 21.34375 -1.171875 
Q 12.796875 -1.171875 8.203125 3 
Q 3.609375 7.171875 3.609375 13.671875 
Q 3.609375 17.484375 5.34375 20.625 
Q 7.078125 23.78125 9.890625 25.6875 
Q 12.703125 27.59375 16.21875 28.5625 
Q 18.796875 29.25 24.03125 29.890625 
Q 34.671875 31.15625 39.703125 32.90625 
Q 39.75 34.71875 39.75 35.203125 
Q 39.75 40.578125 37.25 42.78125 
Q 33.890625 45.75 27.25 45.75 
Q 21.046875 45.75 18.09375 43.578125 
Q 15.140625 41.40625 13.71875 35.890625 
L 5.125 37.0625 
Q 6.296875 42.578125 8.984375 45.96875 
Q 11.671875 49.359375 16.75 51.1875 
Q 21.828125 53.03125 28.515625 53.03125 
Q 35.15625 53.03125 39.296875 51.46875 
Q 43.453125 49.90625 45.40625 47.53125 
Q 47.359375 45.171875 48.140625 41.546875 
Q 48.578125 39.3125 48.578125 33.453125 
L 48.578125 21.734375 
Q 48.578125 9.46875 49.140625 6.21875 
Q 49.703125 2.984375 51.375 0 
L 42.1875 0 
Q 40.828125 2.734375 40.4375 6.390625 
z
M 39.703125 26.03125 
Q 34.90625 24.078125 25.34375 22.703125 
Q 19.921875 21.921875 17.671875 20.9375 
Q 15.4375 19.96875 14.203125 18.09375 
Q 12.984375 16.21875 12.984375 13.921875 
Q 12.984375 10.40625 15.640625 8.0625 
Q 18.3125 5.71875 23.4375 5.71875 
Q 28.515625 5.71875 32.46875 7.9375 
Q 36.421875 10.15625 38.28125 14.015625 
Q 39.703125 17 39.703125 22.796875 
z
" id="ArialMT-97"/>
      <path d="M 25.78125 7.859375 
L 27.046875 0.09375 
Q 23.34375 -0.6875 20.40625 -0.6875 
Q 15.625 -0.6875 12.984375 0.828125 
Q 10.359375 2.34375 9.28125 4.8125 
Q 8.203125 7.28125 8.203125 15.1875 
L 8.203125 45.015625 
L 1.765625 45.015625 
L 1.765625 51.859375 
L 8.203125 51.859375 
L 8.203125 64.703125 
L 16.9375 69.96875 
L 16.9375 51.859375 
L 25.78125 51.859375 
L 25.78125 45.015625 
L 16.9375 45.015625 
L 16.9375 14.703125 
Q 16.9375 10.9375 17.40625 9.859375 
Q 17.875 8.796875 18.921875 8.15625 
Q 19.96875 7.515625 21.921875 7.515625 
Q 23.390625 7.515625 25.78125 7.859375 
z
" id="ArialMT-116"/>
      <path d="M 40.4375 19 
L 49.078125 17.875 
Q 47.65625 8.9375 41.8125 3.875 
Q 35.984375 -1.171875 27.484375 -1.171875 
Q 16.84375 -1.171875 10.375 5.78125 
Q 3.90625 12.75 3.90625 25.734375 
Q 3.90625 34.125 6.6875 40.421875 
Q 9.46875 46.734375 15.15625 49.875 
Q 20.84375 53.03125 27.546875 53.03125 
Q 35.984375 53.03125 41.359375 48.75 
Q 46.734375 44.484375 48.25 36.625 
L 39.703125 35.296875 
Q 38.484375 40.53125 35.375 43.15625 
Q 32.28125 45.796875 27.875 45.796875 
Q 21.234375 45.796875 17.078125 41.03125 
Q 12.9375 36.28125 12.9375 25.984375 
Q 12.9375 15.53125 16.9375 10.796875 
Q 20.953125 6.0625 27.390625 6.0625 
Q 32.5625 6.0625 36.03125 9.234375 
Q 39.5 12.40625 40.4375 19 
z
" id="ArialMT-99"/>
      <path d="M 6.59375 0 
L 6.59375 71.578125 
L 15.375 71.578125 
L 15.375 45.90625 
Q 21.53125 53.03125 30.90625 53.03125 
Q 36.671875 53.03125 40.921875 50.75 
Q 45.171875 48.484375 47 44.484375 
Q 48.828125 40.484375 48.828125 32.859375 
L 48.828125 0 
L 40.046875 0 
L 40.046875 32.859375 
Q 40.046875 39.453125 37.1875 42.453125 
Q 34.328125 45.453125 29.109375 45.453125 
Q 25.203125 45.453125 21.75 43.421875 
Q 18.3125 41.40625 16.84375 37.9375 
Q 15.375 34.46875 15.375 28.375 
L 15.375 0 
z
" id="ArialMT-104"/>
      <path d="M -1.515625 -19.875 
L -1.515625 -13.53125 
L 56.734375 -13.53125 
L 56.734375 -19.875 
z
" id="ArialMT-95"/>
      <path d="M 3.078125 15.484375 
L 11.765625 16.84375 
Q 12.5 11.625 15.84375 8.84375 
Q 19.1875 6.0625 25.203125 6.0625 
Q 31.25 6.0625 34.171875 8.515625 
Q 37.109375 10.984375 37.109375 14.3125 
Q 37.109375 17.28125 34.515625 19 
Q 32.71875 20.171875 25.53125 21.96875 
Q 15.875 24.421875 12.140625 26.203125 
Q 8.40625 27.984375 6.46875 31.125 
Q 4.546875 34.28125 4.546875 38.09375 
Q 4.546875 41.546875 6.125 44.5 
Q 7.71875 47.46875 10.453125 49.421875 
Q 12.5 50.921875 16.03125 51.96875 
Q 19.578125 53.03125 23.640625 53.03125 
Q 29.734375 53.03125 34.34375 51.265625 
Q 38.96875 49.515625 41.15625 46.5 
Q 43.359375 43.5 44.1875 38.484375 
L 35.59375 37.3125 
Q 35.015625 41.3125 32.203125 43.546875 
Q 29.390625 45.796875 24.265625 45.796875 
Q 18.21875 45.796875 15.625 43.796875 
Q 13.03125 41.796875 13.03125 39.109375 
Q 13.03125 37.40625 14.109375 36.03125 
Q 15.1875 34.625 17.484375 33.6875 
Q 18.796875 33.203125 25.25 31.453125 
Q 34.578125 28.953125 38.25 27.359375 
Q 41.9375 25.78125 44.03125 22.75 
Q 46.140625 19.734375 46.140625 15.234375 
Q 46.140625 10.84375 43.578125 6.953125 
Q 41.015625 3.078125 36.171875 0.953125 
Q 31.34375 -1.171875 25.25 -1.171875 
Q 15.140625 -1.171875 9.84375 3.03125 
Q 4.546875 7.234375 3.078125 15.484375 
z
" id="ArialMT-115"/>
      <path d="M 6.640625 61.46875 
L 6.640625 71.578125 
L 15.4375 71.578125 
L 15.4375 61.46875 
z
M 6.640625 0 
L 6.640625 51.859375 
L 15.4375 51.859375 
L 15.4375 0 
z
" id="ArialMT-105"/>
      <path d="M 1.953125 0 
L 1.953125 7.125 
L 34.96875 45.015625 
Q 29.34375 44.734375 25.046875 44.734375 
L 3.90625 44.734375 
L 3.90625 51.859375 
L 46.296875 51.859375 
L 46.296875 46.046875 
L 18.21875 13.140625 
L 12.796875 7.125 
Q 18.703125 7.5625 23.875 7.5625 
L 47.859375 7.5625 
L 47.859375 0 
z
" id="ArialMT-122"/>
      <path d="M 42.09375 16.703125 
L 51.171875 15.578125 
Q 49.03125 7.625 43.21875 3.21875 
Q 37.40625 -1.171875 28.375 -1.171875 
Q 17 -1.171875 10.328125 5.828125 
Q 3.65625 12.84375 3.65625 25.484375 
Q 3.65625 38.578125 10.390625 45.796875 
Q 17.140625 53.03125 27.875 53.03125 
Q 38.28125 53.03125 44.875 45.953125 
Q 51.46875 38.875 51.46875 26.03125 
Q 51.46875 25.25 51.421875 23.6875 
L 12.75 23.6875 
Q 13.234375 15.140625 17.578125 10.59375 
Q 21.921875 6.0625 28.421875 6.0625 
Q 33.25 6.0625 36.671875 8.59375 
Q 40.09375 11.140625 42.09375 16.703125 
z
M 13.234375 30.90625 
L 42.1875 30.90625 
Q 41.609375 37.453125 38.875 40.71875 
Q 34.671875 45.796875 27.984375 45.796875 
Q 21.921875 45.796875 17.796875 41.75 
Q 13.671875 37.703125 13.234375 30.90625 
z
" id="ArialMT-101"/>
     </defs>
     <g style="fill:#262626;" transform="translate(119.777083 201.689219)scale(0.12 -0.12)">
      <use xlink:href="#ArialMT-98"/>
      <use x="55.615234" xlink:href="#ArialMT-97"/>
      <use x="111.230469" xlink:href="#ArialMT-116"/>
      <use x="139.013672" xlink:href="#ArialMT-99"/>
      <use x="189.013672" xlink:href="#ArialMT-104"/>
      <use x="244.628906" xlink:href="#ArialMT-95"/>
      <use x="300.244141" xlink:href="#ArialMT-115"/>
      <use x="350.244141" xlink:href="#ArialMT-105"/>
      <use x="372.460938" xlink:href="#ArialMT-122"/>
      <use x="422.460938" xlink:href="#ArialMT-101"/>
     </g>
    </g>
   </g>
   <g id="matplotlib.axis_2">
    <g id="ytick_1">
     <g id="line2d_6">
      <path clip-path="url(#pb6df24ee86)" d="M 64.057438 129.564239 
L 232.862353 129.564239 
" style="fill:none;stroke:#ffffff;stroke-linecap:round;"/>
     </g>
     <g id="text_7">
      <!-- 50 -->
      <g style="fill:#262626;" transform="translate(42.323376 133.501036)scale(0.11 -0.11)">
       <use xlink:href="#ArialMT-53"/>
       <use x="55.615234" xlink:href="#ArialMT-48"/>
      </g>
     </g>
    </g>
    <g id="ytick_2">
     <g id="line2d_7">
      <path clip-path="url(#pb6df24ee86)" d="M 64.057438 85.599655 
L 232.862353 85.599655 
" style="fill:none;stroke:#ffffff;stroke-linecap:round;"/>
     </g>
     <g id="text_8">
      <!-- 100 -->
      <g style="fill:#262626;" transform="translate(36.206345 89.536451)scale(0.11 -0.11)">
       <use xlink:href="#ArialMT-49"/>
       <use x="55.615234" xlink:href="#ArialMT-48"/>
       <use x="111.230469" xlink:href="#ArialMT-48"/>
      </g>
     </g>
    </g>
    <g id="ytick_3">
     <g id="line2d_8">
      <path clip-path="url(#pb6df24ee86)" d="M 64.057438 41.63507 
L 232.862353 41.63507 
" style="fill:none;stroke:#ffffff;stroke-linecap:round;"/>
     </g>
     <g id="text_9">
      <!-- 150 -->
      <g style="fill:#262626;" transform="translate(36.206345 45.571867)scale(0.11 -0.11)">
       <use xlink:href="#ArialMT-49"/>
       <use x="55.615234" xlink:href="#ArialMT-53"/>
       <use x="111.230469" xlink:href="#ArialMT-48"/>
      </g>
     </g>
    </g>
    <g id="text_10">
     <!-- throughput -->
     <defs>
      <path d="M 6.5 0 
L 6.5 51.859375 
L 14.40625 51.859375 
L 14.40625 44 
Q 17.4375 49.515625 20 51.265625 
Q 22.5625 53.03125 25.640625 53.03125 
Q 30.078125 53.03125 34.671875 50.203125 
L 31.640625 42.046875 
Q 28.421875 43.953125 25.203125 43.953125 
Q 22.3125 43.953125 20.015625 42.21875 
Q 17.71875 40.484375 16.75 37.40625 
Q 15.28125 32.71875 15.28125 27.15625 
L 15.28125 0 
z
" id="ArialMT-114"/>
      <path d="M 3.328125 25.921875 
Q 3.328125 40.328125 11.328125 47.265625 
Q 18.015625 53.03125 27.640625 53.03125 
Q 38.328125 53.03125 45.109375 46.015625 
Q 51.90625 39.015625 51.90625 26.65625 
Q 51.90625 16.65625 48.90625 10.90625 
Q 45.90625 5.171875 40.15625 2 
Q 34.421875 -1.171875 27.640625 -1.171875 
Q 16.75 -1.171875 10.03125 5.8125 
Q 3.328125 12.796875 3.328125 25.921875 
z
M 12.359375 25.921875 
Q 12.359375 15.96875 16.703125 11.015625 
Q 21.046875 6.0625 27.640625 6.0625 
Q 34.1875 6.0625 38.53125 11.03125 
Q 42.875 16.015625 42.875 26.21875 
Q 42.875 35.84375 38.5 40.796875 
Q 34.125 45.75 27.640625 45.75 
Q 21.046875 45.75 16.703125 40.8125 
Q 12.359375 35.890625 12.359375 25.921875 
z
" id="ArialMT-111"/>
      <path d="M 40.578125 0 
L 40.578125 7.625 
Q 34.515625 -1.171875 24.125 -1.171875 
Q 19.53125 -1.171875 15.546875 0.578125 
Q 11.578125 2.34375 9.640625 5 
Q 7.71875 7.671875 6.9375 11.53125 
Q 6.390625 14.109375 6.390625 19.734375 
L 6.390625 51.859375 
L 15.1875 51.859375 
L 15.1875 23.09375 
Q 15.1875 16.21875 15.71875 13.8125 
Q 16.546875 10.359375 19.234375 8.375 
Q 21.921875 6.390625 25.875 6.390625 
Q 29.828125 6.390625 33.296875 8.421875 
Q 36.765625 10.453125 38.203125 13.9375 
Q 39.65625 17.4375 39.65625 24.078125 
L 39.65625 51.859375 
L 48.4375 51.859375 
L 48.4375 0 
z
" id="ArialMT-117"/>
      <path d="M 4.984375 -4.296875 
L 13.53125 -5.5625 
Q 14.0625 -9.515625 16.5 -11.328125 
Q 19.78125 -13.765625 25.4375 -13.765625 
Q 31.546875 -13.765625 34.859375 -11.328125 
Q 38.1875 -8.890625 39.359375 -4.5 
Q 40.046875 -1.8125 39.984375 6.78125 
Q 34.234375 0 25.640625 0 
Q 14.9375 0 9.078125 7.71875 
Q 3.21875 15.4375 3.21875 26.21875 
Q 3.21875 33.640625 5.90625 39.90625 
Q 8.59375 46.1875 13.6875 49.609375 
Q 18.796875 53.03125 25.6875 53.03125 
Q 34.859375 53.03125 40.828125 45.609375 
L 40.828125 51.859375 
L 48.921875 51.859375 
L 48.921875 7.03125 
Q 48.921875 -5.078125 46.453125 -10.125 
Q 44 -15.1875 38.640625 -18.109375 
Q 33.296875 -21.046875 25.484375 -21.046875 
Q 16.21875 -21.046875 10.5 -16.875 
Q 4.78125 -12.703125 4.984375 -4.296875 
z
M 12.25 26.859375 
Q 12.25 16.65625 16.296875 11.96875 
Q 20.359375 7.28125 26.46875 7.28125 
Q 32.515625 7.28125 36.609375 11.9375 
Q 40.71875 16.609375 40.71875 26.5625 
Q 40.71875 36.078125 36.5 40.90625 
Q 32.28125 45.75 26.3125 45.75 
Q 20.453125 45.75 16.34375 40.984375 
Q 12.25 36.234375 12.25 26.859375 
z
" id="ArialMT-103"/>
      <path d="M 6.59375 -19.875 
L 6.59375 51.859375 
L 14.59375 51.859375 
L 14.59375 45.125 
Q 17.4375 49.078125 21 51.046875 
Q 24.5625 53.03125 29.640625 53.03125 
Q 36.28125 53.03125 41.359375 49.609375 
Q 46.4375 46.1875 49.015625 39.953125 
Q 51.609375 33.734375 51.609375 26.3125 
Q 51.609375 18.359375 48.75 11.984375 
Q 45.90625 5.609375 40.453125 2.21875 
Q 35.015625 -1.171875 29 -1.171875 
Q 24.609375 -1.171875 21.109375 0.6875 
Q 17.625 2.546875 15.375 5.375 
L 15.375 -19.875 
z
M 14.546875 25.640625 
Q 14.546875 15.625 18.59375 10.84375 
Q 22.65625 6.0625 28.421875 6.0625 
Q 34.28125 6.0625 38.453125 11.015625 
Q 42.625 15.96875 42.625 26.375 
Q 42.625 36.28125 38.546875 41.203125 
Q 34.46875 46.140625 28.8125 46.140625 
Q 23.1875 46.140625 18.859375 40.890625 
Q 14.546875 35.640625 14.546875 25.640625 
z
" id="ArialMT-112"/>
     </defs>
     <g style="fill:#262626;" transform="translate(29.68072 126.9375)rotate(-90)scale(0.12 -0.12)">
      <use xlink:href="#ArialMT-116"/>
      <use x="27.783203" xlink:href="#ArialMT-104"/>
      <use x="83.398438" xlink:href="#ArialMT-114"/>
      <use x="116.699219" xlink:href="#ArialMT-111"/>
      <use x="172.314453" xlink:href="#ArialMT-117"/>
      <use x="227.929688" xlink:href="#ArialMT-103"/>
      <use x="283.544922" xlink:href="#ArialMT-104"/>
      <use x="339.160156" xlink:href="#ArialMT-112"/>
      <use x="394.775391" xlink:href="#ArialMT-117"/>
      <use x="450.390625" xlink:href="#ArialMT-116"/>
     </g>
    </g>
   </g>
   <g id="PathCollection_1">
    <defs>
     <path d="M 0 3 
C 0.795609 3 1.55874 2.683901 2.12132 2.12132 
C 2.683901 1.55874 3 0.795609 3 0 
C 3 -0.795609 2.683901 -1.55874 2.12132 -2.12132 
C 1.55874 -2.683901 0.795609 -3 0 -3 
C -0.795609 -3 -1.55874 -2.683901 -2.12132 -2.12132 
C -2.683901 -1.55874 -3 -0.795609 -3 0 
C -3 0.795609 -2.683901 1.55874 -2.12132 2.12132 
C -1.55874 2.683901 -0.795609 3 0 3 
z
" id="mf8922d873b" style="stroke:#ffffff;stroke-width:0.75;"/>
    </defs>
    <g clip-path="url(#pb6df24ee86)">
     <use style="fill:#4c72b0;stroke:#ffffff;stroke-width:0.75;" x="74.745928" xlink:href="#mf8922d873b" y="150.245179"/>
     <use style="fill:#4c72b0;stroke:#ffffff;stroke-width:0.75;" x="76.2351" xlink:href="#mf8922d873b" y="148.126086"/>
     <use style="fill:#4c72b0;stroke:#ffffff;stroke-width:0.75;" x="79.213444" xlink:href="#mf8922d873b" y="146.525775"/>
     <use style="fill:#4c72b0;stroke:#ffffff;stroke-width:0.75;" x="82.191788" xlink:href="#mf8922d873b" y="142.727235"/>
     <use style="fill:#4c72b0;stroke:#ffffff;stroke-width:0.75;" x="85.170132" xlink:href="#mf8922d873b" y="144.397889"/>
     <use style="fill:#4c72b0;stroke:#ffffff;stroke-width:0.75;" x="88.148476" xlink:href="#mf8922d873b" y="142.516205"/>
     <use style="fill:#4c72b0;stroke:#ffffff;stroke-width:0.75;" x="103.040195" xlink:href="#mf8922d873b" y="142.454655"/>
     <use style="fill:#4c72b0;stroke:#ffffff;stroke-width:0.75;" x="147.715355" xlink:href="#mf8922d873b" y="129.704925"/>
     <use style="fill:#4c72b0;stroke:#ffffff;stroke-width:0.75;" x="222.173955" xlink:href="#mf8922d873b" y="123.075066"/>
     <use style="fill:#4c72b0;stroke:#ffffff;stroke-width:0.75;" x="74.745928" xlink:href="#mf8922d873b" y="145.602519"/>
     <use style="fill:#4c72b0;stroke:#ffffff;stroke-width:0.75;" x="76.2351" xlink:href="#mf8922d873b" y="130.44353"/>
     <use style="fill:#4c72b0;stroke:#ffffff;stroke-width:0.75;" x="79.213444" xlink:href="#mf8922d873b" y="145.180459"/>
     <use style="fill:#4c72b0;stroke:#ffffff;stroke-width:0.75;" x="82.191788" xlink:href="#mf8922d873b" y="123.312475"/>
     <use style="fill:#4c72b0;stroke:#ffffff;stroke-width:0.75;" x="85.170132" xlink:href="#mf8922d873b" y="122.195774"/>
     <use style="fill:#4c72b0;stroke:#ffffff;stroke-width:0.75;" x="88.148476" xlink:href="#mf8922d873b" y="125.932764"/>
     <use style="fill:#4c72b0;stroke:#ffffff;stroke-width:0.75;" x="103.040195" xlink:href="#mf8922d873b" y="130.399566"/>
     <use style="fill:#4c72b0;stroke:#ffffff;stroke-width:0.75;" x="147.715355" xlink:href="#mf8922d873b" y="121.589063"/>
     <use style="fill:#4c72b0;stroke:#ffffff;stroke-width:0.75;" x="222.173955" xlink:href="#mf8922d873b" y="120.73615"/>
    </g>
   </g>
   <g id="PathCollection_2">
    <defs>
     <path d="M 0 3 
C 0.795609 3 1.55874 2.683901 2.12132 2.12132 
C 2.683901 1.55874 3 0.795609 3 0 
C 3 -0.795609 2.683901 -1.55874 2.12132 -2.12132 
C 1.55874 -2.683901 0.795609 -3 0 -3 
C -0.795609 -3 -1.55874 -2.683901 -2.12132 -2.12132 
C -2.683901 -1.55874 -3 -0.795609 -3 0 
C -3 0.795609 -2.683901 1.55874 -2.12132 2.12132 
C -1.55874 2.683901 -0.795609 3 0 3 
z
" id="m7995f83794" style="stroke:#ffffff;stroke-width:0.75;"/>
    </defs>
    <g clip-path="url(#pb6df24ee86)">
     <use style="fill:#dd8452;stroke:#ffffff;stroke-width:0.75;" x="74.745928" xlink:href="#m7995f83794" y="162.467334"/>
     <use style="fill:#dd8452;stroke:#ffffff;stroke-width:0.75;" x="76.2351" xlink:href="#m7995f83794" y="159.715151"/>
     <use style="fill:#dd8452;stroke:#ffffff;stroke-width:0.75;" x="79.213444" xlink:href="#m7995f83794" y="159.319469"/>
     <use style="fill:#dd8452;stroke:#ffffff;stroke-width:0.75;" x="82.191788" xlink:href="#m7995f83794" y="158.405006"/>
     <use style="fill:#dd8452;stroke:#ffffff;stroke-width:0.75;" x="88.148476" xlink:href="#m7995f83794" y="158.572071"/>
     <use style="fill:#dd8452;stroke:#ffffff;stroke-width:0.75;" x="103.040195" xlink:href="#m7995f83794" y="157.033311"/>
     <use style="fill:#dd8452;stroke:#ffffff;stroke-width:0.75;" x="117.931915" xlink:href="#m7995f83794" y="156.69918"/>
     <use style="fill:#dd8452;stroke:#ffffff;stroke-width:0.75;" x="147.715355" xlink:href="#m7995f83794" y="157.33227"/>
     <use style="fill:#dd8452;stroke:#ffffff;stroke-width:0.75;" x="74.745928" xlink:href="#m7995f83794" y="162.370611"/>
     <use style="fill:#dd8452;stroke:#ffffff;stroke-width:0.75;" x="76.2351" xlink:href="#m7995f83794" y="159.891009"/>
     <use style="fill:#dd8452;stroke:#ffffff;stroke-width:0.75;" x="79.213444" xlink:href="#m7995f83794" y="159.275505"/>
     <use style="fill:#dd8452;stroke:#ffffff;stroke-width:0.75;" x="82.191788" xlink:href="#m7995f83794" y="158.361041"/>
     <use style="fill:#dd8452;stroke:#ffffff;stroke-width:0.75;" x="88.148476" xlink:href="#m7995f83794" y="158.607243"/>
     <use style="fill:#dd8452;stroke:#ffffff;stroke-width:0.75;" x="103.040195" xlink:href="#m7995f83794" y="157.05969"/>
     <use style="fill:#dd8452;stroke:#ffffff;stroke-width:0.75;" x="117.931915" xlink:href="#m7995f83794" y="156.672801"/>
     <use style="fill:#dd8452;stroke:#ffffff;stroke-width:0.75;" x="147.715355" xlink:href="#m7995f83794" y="157.648815"/>
    </g>
   </g>
   <g id="PathCollection_3">
    <defs>
     <path d="M 0 3 
C 0.795609 3 1.55874 2.683901 2.12132 2.12132 
C 2.683901 1.55874 3 0.795609 3 0 
C 3 -0.795609 2.683901 -1.55874 2.12132 -2.12132 
C 1.55874 -2.683901 0.795609 -3 0 -3 
C -0.795609 -3 -1.55874 -2.683901 -2.12132 -2.12132 
C -2.683901 -1.55874 -3 -0.795609 -3 0 
C -3 0.795609 -2.683901 1.55874 -2.12132 2.12132 
C -1.55874 2.683901 -0.795609 3 0 3 
z
" id="ma651d4b9e9" style="stroke:#ffffff;stroke-width:0.75;"/>
    </defs>
    <g clip-path="url(#pb6df24ee86)">
     <use style="fill:#55a868;stroke:#ffffff;stroke-width:0.75;" x="74.745928" xlink:href="#ma651d4b9e9" y="141.847944"/>
     <use style="fill:#55a868;stroke:#ffffff;stroke-width:0.75;" x="76.2351" xlink:href="#ma651d4b9e9" y="135.561008"/>
     <use style="fill:#55a868;stroke:#ffffff;stroke-width:0.75;" x="79.213444" xlink:href="#ma651d4b9e9" y="129.53786"/>
     <use style="fill:#55a868;stroke:#ffffff;stroke-width:0.75;" x="82.191788" xlink:href="#ma651d4b9e9" y="124.587448"/>
     <use style="fill:#55a868;stroke:#ffffff;stroke-width:0.75;" x="85.170132" xlink:href="#ma651d4b9e9" y="123.954358"/>
     <use style="fill:#55a868;stroke:#ffffff;stroke-width:0.75;" x="88.148476" xlink:href="#ma651d4b9e9" y="124.974336"/>
     <use style="fill:#55a868;stroke:#ffffff;stroke-width:0.75;" x="103.040195" xlink:href="#ma651d4b9e9" y="109.621903"/>
     <use style="fill:#55a868;stroke:#ffffff;stroke-width:0.75;" x="147.715355" xlink:href="#ma651d4b9e9" y="106.227837"/>
     <use style="fill:#55a868;stroke:#ffffff;stroke-width:0.75;" x="222.173955" xlink:href="#ma651d4b9e9" y="108.628304"/>
     <use style="fill:#55a868;stroke:#ffffff;stroke-width:0.75;" x="74.745928" xlink:href="#ma651d4b9e9" y="140.625728"/>
     <use style="fill:#55a868;stroke:#ffffff;stroke-width:0.75;" x="76.2351" xlink:href="#ma651d4b9e9" y="129.696132"/>
     <use style="fill:#55a868;stroke:#ffffff;stroke-width:0.75;" x="79.213444" xlink:href="#ma651d4b9e9" y="129.74889"/>
     <use style="fill:#55a868;stroke:#ffffff;stroke-width:0.75;" x="82.191788" xlink:href="#ma651d4b9e9" y="122.011123"/>
     <use style="fill:#55a868;stroke:#ffffff;stroke-width:0.75;" x="85.170132" xlink:href="#ma651d4b9e9" y="121.712164"/>
     <use style="fill:#55a868;stroke:#ffffff;stroke-width:0.75;" x="88.148476" xlink:href="#ma651d4b9e9" y="126.266895"/>
     <use style="fill:#55a868;stroke:#ffffff;stroke-width:0.75;" x="103.040195" xlink:href="#ma651d4b9e9" y="112.910454"/>
     <use style="fill:#55a868;stroke:#ffffff;stroke-width:0.75;" x="147.715355" xlink:href="#ma651d4b9e9" y="110.518781"/>
     <use style="fill:#55a868;stroke:#ffffff;stroke-width:0.75;" x="222.173955" xlink:href="#ma651d4b9e9" y="103.871336"/>
    </g>
   </g>
   <g id="PathCollection_4">
    <defs>
     <path d="M 0 3 
C 0.795609 3 1.55874 2.683901 2.12132 2.12132 
C 2.683901 1.55874 3 0.795609 3 0 
C 3 -0.795609 2.683901 -1.55874 2.12132 -2.12132 
C 1.55874 -2.683901 0.795609 -3 0 -3 
C -0.795609 -3 -1.55874 -2.683901 -2.12132 -2.12132 
C -2.683901 -1.55874 -3 -0.795609 -3 0 
C -3 0.795609 -2.683901 1.55874 -2.12132 2.12132 
C -1.55874 2.683901 -0.795609 3 0 3 
z
" id="mb01df04657" style="stroke:#ffffff;stroke-width:0.75;"/>
    </defs>
    <g clip-path="url(#pb6df24ee86)">
     <use style="fill:#c44e52;stroke:#ffffff;stroke-width:0.75;" x="74.745928" xlink:href="#mb01df04657" y="114.053533"/>
     <use style="fill:#c44e52;stroke:#ffffff;stroke-width:0.75;" x="76.2351" xlink:href="#mb01df04657" y="95.869781"/>
     <use style="fill:#c44e52;stroke:#ffffff;stroke-width:0.75;" x="79.213444" xlink:href="#mb01df04657" y="88.017707"/>
     <use style="fill:#c44e52;stroke:#ffffff;stroke-width:0.75;" x="82.191788" xlink:href="#mb01df04657" y="76.683637"/>
     <use style="fill:#c44e52;stroke:#ffffff;stroke-width:0.75;" x="85.170132" xlink:href="#mb01df04657" y="72.304764"/>
     <use style="fill:#c44e52;stroke:#ffffff;stroke-width:0.75;" x="88.148476" xlink:href="#mb01df04657" y="71.539781"/>
     <use style="fill:#c44e52;stroke:#ffffff;stroke-width:0.75;" x="103.040195" xlink:href="#mb01df04657" y="48.159415"/>
     <use style="fill:#c44e52;stroke:#ffffff;stroke-width:0.75;" x="147.715355" xlink:href="#mb01df04657" y="45.864463"/>
     <use style="fill:#c44e52;stroke:#ffffff;stroke-width:0.75;" x="222.173955" xlink:href="#mb01df04657" y="35.154691"/>
     <use style="fill:#c44e52;stroke:#ffffff;stroke-width:0.75;" x="74.745928" xlink:href="#mb01df04657" y="113.385272"/>
     <use style="fill:#c44e52;stroke:#ffffff;stroke-width:0.75;" x="76.2351" xlink:href="#mb01df04657" y="98.111975"/>
     <use style="fill:#c44e52;stroke:#ffffff;stroke-width:0.75;" x="79.213444" xlink:href="#mb01df04657" y="85.573276"/>
     <use style="fill:#c44e52;stroke:#ffffff;stroke-width:0.75;" x="82.191788" xlink:href="#mb01df04657" y="72.295971"/>
     <use style="fill:#c44e52;stroke:#ffffff;stroke-width:0.75;" x="85.170132" xlink:href="#mb01df04657" y="72.234421"/>
     <use style="fill:#c44e52;stroke:#ffffff;stroke-width:0.75;" x="88.148476" xlink:href="#mb01df04657" y="70.326358"/>
     <use style="fill:#c44e52;stroke:#ffffff;stroke-width:0.75;" x="103.040195" xlink:href="#mb01df04657" y="39.911659"/>
     <use style="fill:#c44e52;stroke:#ffffff;stroke-width:0.75;" x="147.715355" xlink:href="#mb01df04657" y="35.260206"/>
     <use style="fill:#c44e52;stroke:#ffffff;stroke-width:0.75;" x="222.173955" xlink:href="#mb01df04657" y="34.644701"/>
    </g>
   </g>
   <g id="patch_3">
    <path d="M 64.057438 169.54 
L 64.057438 26.96 
" style="fill:none;stroke:#ffffff;stroke-linecap:square;stroke-linejoin:miter;stroke-width:1.25;"/>
   </g>
   <g id="patch_4">
    <path d="M 64.057438 169.54 
L 232.862353 169.54 
" style="fill:none;stroke:#ffffff;stroke-linecap:square;stroke-linejoin:miter;stroke-width:1.25;"/>
   </g>
   <g id="text_11">
    <!-- device = cpu_openvino -->
    <defs>
     <path d="M 40.234375 0 
L 40.234375 6.546875 
Q 35.296875 -1.171875 25.734375 -1.171875 
Q 19.53125 -1.171875 14.328125 2.25 
Q 9.125 5.671875 6.265625 11.796875 
Q 3.421875 17.921875 3.421875 25.875 
Q 3.421875 33.640625 6 39.96875 
Q 8.59375 46.296875 13.765625 49.65625 
Q 18.953125 53.03125 25.34375 53.03125 
Q 30.03125 53.03125 33.6875 51.046875 
Q 37.359375 49.078125 39.65625 45.90625 
L 39.65625 71.578125 
L 48.390625 71.578125 
L 48.390625 0 
z
M 12.453125 25.875 
Q 12.453125 15.921875 16.640625 10.984375 
Q 20.84375 6.0625 26.5625 6.0625 
Q 32.328125 6.0625 36.34375 10.765625 
Q 40.375 15.484375 40.375 25.140625 
Q 40.375 35.796875 36.265625 40.765625 
Q 32.171875 45.75 26.171875 45.75 
Q 20.3125 45.75 16.375 40.96875 
Q 12.453125 36.1875 12.453125 25.875 
z
" id="ArialMT-100"/>
     <path d="M 21 0 
L 1.265625 51.859375 
L 10.546875 51.859375 
L 21.6875 20.796875 
Q 23.484375 15.765625 25 10.359375 
Q 26.171875 14.453125 28.265625 20.21875 
L 39.796875 51.859375 
L 48.828125 51.859375 
L 29.203125 0 
z
" id="ArialMT-118"/>
     <path id="ArialMT-32"/>
     <path d="M 52.828125 42.09375 
L 5.5625 42.09375 
L 5.5625 50.296875 
L 52.828125 50.296875 
z
M 52.828125 20.359375 
L 5.5625 20.359375 
L 5.5625 28.5625 
L 52.828125 28.5625 
z
" id="ArialMT-61"/>
     <path d="M 6.59375 0 
L 6.59375 51.859375 
L 14.5 51.859375 
L 14.5 44.484375 
Q 20.21875 53.03125 31 53.03125 
Q 35.6875 53.03125 39.625 51.34375 
Q 43.5625 49.65625 45.515625 46.921875 
Q 47.46875 44.1875 48.25 40.4375 
Q 48.734375 37.984375 48.734375 31.890625 
L 48.734375 0 
L 39.9375 0 
L 39.9375 31.546875 
Q 39.9375 36.921875 38.90625 39.578125 
Q 37.890625 42.234375 35.28125 43.8125 
Q 32.671875 45.40625 29.15625 45.40625 
Q 23.53125 45.40625 19.453125 41.84375 
Q 15.375 38.28125 15.375 28.328125 
L 15.375 0 
z
" id="ArialMT-110"/>
    </defs>
    <g style="fill:#262626;" transform="translate(86.916771 20.96)scale(0.12 -0.12)">
     <use xlink:href="#ArialMT-100"/>
     <use x="55.615234" xlink:href="#ArialMT-101"/>
     <use x="111.230469" xlink:href="#ArialMT-118"/>
     <use x="161.230469" xlink:href="#ArialMT-105"/>
     <use x="183.447266" xlink:href="#ArialMT-99"/>
     <use x="233.447266" xlink:href="#ArialMT-101"/>
     <use x="289.0625" xlink:href="#ArialMT-32"/>
     <use x="316.845703" xlink:href="#ArialMT-61"/>
     <use x="375.244141" xlink:href="#ArialMT-32"/>
     <use x="403.027344" xlink:href="#ArialMT-99"/>
     <use x="453.027344" xlink:href="#ArialMT-112"/>
     <use x="508.642578" xlink:href="#ArialMT-117"/>
     <use x="564.257812" xlink:href="#ArialMT-95"/>
     <use x="619.873047" xlink:href="#ArialMT-111"/>
     <use x="675.488281" xlink:href="#ArialMT-112"/>
     <use x="731.103516" xlink:href="#ArialMT-101"/>
     <use x="786.71875" xlink:href="#ArialMT-110"/>
     <use x="842.333984" xlink:href="#ArialMT-118"/>
     <use x="892.333984" xlink:href="#ArialMT-105"/>
     <use x="914.550781" xlink:href="#ArialMT-110"/>
     <use x="970.166016" xlink:href="#ArialMT-111"/>
    </g>
   </g>
  </g>
  <g id="axes_2">
   <g id="patch_5">
    <path d="M 258.152835 169.54 
L 426.95775 169.54 
L 426.95775 26.96 
L 258.152835 26.96 
z
" style="fill:#eaeaf2;"/>
   </g>
   <g id="matplotlib.axis_3">
    <g id="xtick_6">
     <g id="line2d_9">
      <path clip-path="url(#p57c29348a0)" d="M 267.352153 169.54 
L 267.352153 26.96 
" style="fill:none;stroke:#ffffff;stroke-linecap:round;"/>
     </g>
     <g id="text_12">
      <!-- 0 -->
      <g style="fill:#262626;" transform="translate(264.293637 186.913594)scale(0.11 -0.11)">
       <use xlink:href="#ArialMT-48"/>
      </g>
     </g>
    </g>
    <g id="xtick_7">
     <g id="line2d_10">
      <path clip-path="url(#p57c29348a0)" d="M 304.581452 169.54 
L 304.581452 26.96 
" style="fill:none;stroke:#ffffff;stroke-linecap:round;"/>
     </g>
     <g id="text_13">
      <!-- 25 -->
      <g style="fill:#262626;" transform="translate(298.464421 186.913594)scale(0.11 -0.11)">
       <use xlink:href="#ArialMT-50"/>
       <use x="55.615234" xlink:href="#ArialMT-53"/>
      </g>
     </g>
    </g>
    <g id="xtick_8">
     <g id="line2d_11">
      <path clip-path="url(#p57c29348a0)" d="M 341.810752 169.54 
L 341.810752 26.96 
" style="fill:none;stroke:#ffffff;stroke-linecap:round;"/>
     </g>
     <g id="text_14">
      <!-- 50 -->
      <g style="fill:#262626;" transform="translate(335.693721 186.913594)scale(0.11 -0.11)">
       <use xlink:href="#ArialMT-53"/>
       <use x="55.615234" xlink:href="#ArialMT-48"/>
      </g>
     </g>
    </g>
    <g id="xtick_9">
     <g id="line2d_12">
      <path clip-path="url(#p57c29348a0)" d="M 379.040052 169.54 
L 379.040052 26.96 
" style="fill:none;stroke:#ffffff;stroke-linecap:round;"/>
     </g>
     <g id="text_15">
      <!-- 75 -->
      <g style="fill:#262626;" transform="translate(372.923021 186.913594)scale(0.11 -0.11)">
       <use xlink:href="#ArialMT-55"/>
       <use x="55.615234" xlink:href="#ArialMT-53"/>
      </g>
     </g>
    </g>
    <g id="xtick_10">
     <g id="line2d_13">
      <path clip-path="url(#p57c29348a0)" d="M 416.269352 169.54 
L 416.269352 26.96 
" style="fill:none;stroke:#ffffff;stroke-linecap:round;"/>
     </g>
     <g id="text_16">
      <!-- 100 -->
      <g style="fill:#262626;" transform="translate(407.093805 186.913594)scale(0.11 -0.11)">
       <use xlink:href="#ArialMT-49"/>
       <use x="55.615234" xlink:href="#ArialMT-48"/>
       <use x="111.230469" xlink:href="#ArialMT-48"/>
      </g>
     </g>
    </g>
    <g id="text_17">
     <!-- batch_size -->
     <g style="fill:#262626;" transform="translate(313.87248 201.689219)scale(0.12 -0.12)">
      <use xlink:href="#ArialMT-98"/>
      <use x="55.615234" xlink:href="#ArialMT-97"/>
      <use x="111.230469" xlink:href="#ArialMT-116"/>
      <use x="139.013672" xlink:href="#ArialMT-99"/>
      <use x="189.013672" xlink:href="#ArialMT-104"/>
      <use x="244.628906" xlink:href="#ArialMT-95"/>
      <use x="300.244141" xlink:href="#ArialMT-115"/>
      <use x="350.244141" xlink:href="#ArialMT-105"/>
      <use x="372.460938" xlink:href="#ArialMT-122"/>
      <use x="422.460938" xlink:href="#ArialMT-101"/>
     </g>
    </g>
   </g>
   <g id="matplotlib.axis_4">
    <g id="ytick_4">
     <g id="line2d_14">
      <path clip-path="url(#p57c29348a0)" d="M 258.152835 129.564239 
L 426.95775 129.564239 
" style="fill:none;stroke:#ffffff;stroke-linecap:round;"/>
     </g>
    </g>
    <g id="ytick_5">
     <g id="line2d_15">
      <path clip-path="url(#p57c29348a0)" d="M 258.152835 85.599655 
L 426.95775 85.599655 
" style="fill:none;stroke:#ffffff;stroke-linecap:round;"/>
     </g>
    </g>
    <g id="ytick_6">
     <g id="line2d_16">
      <path clip-path="url(#p57c29348a0)" d="M 258.152835 41.63507 
L 426.95775 41.63507 
" style="fill:none;stroke:#ffffff;stroke-linecap:round;"/>
     </g>
    </g>
   </g>
   <g id="PathCollection_5">
    <g clip-path="url(#p57c29348a0)">
     <use style="fill:#4c72b0;stroke:#ffffff;stroke-width:0.75;" x="268.841325" xlink:href="#mf8922d873b" y="118.282926"/>
     <use style="fill:#4c72b0;stroke:#ffffff;stroke-width:0.75;" x="270.330497" xlink:href="#mf8922d873b" y="148.53056"/>
     <use style="fill:#4c72b0;stroke:#ffffff;stroke-width:0.75;" x="273.308841" xlink:href="#mf8922d873b" y="140.827965"/>
     <use style="fill:#4c72b0;stroke:#ffffff;stroke-width:0.75;" x="276.287185" xlink:href="#mf8922d873b" y="121.360447"/>
     <use style="fill:#4c72b0;stroke:#ffffff;stroke-width:0.75;" x="279.265529" xlink:href="#mf8922d873b" y="125.959143"/>
     <use style="fill:#4c72b0;stroke:#ffffff;stroke-width:0.75;" x="282.243873" xlink:href="#mf8922d873b" y="121.448376"/>
     <use style="fill:#4c72b0;stroke:#ffffff;stroke-width:0.75;" x="297.135592" xlink:href="#mf8922d873b" y="120.595464"/>
     <use style="fill:#4c72b0;stroke:#ffffff;stroke-width:0.75;" x="341.810752" xlink:href="#mf8922d873b" y="120.032717"/>
     <use style="fill:#4c72b0;stroke:#ffffff;stroke-width:0.75;" x="416.269352" xlink:href="#mf8922d873b" y="119.681"/>
     <use style="fill:#4c72b0;stroke:#ffffff;stroke-width:0.75;" x="268.841325" xlink:href="#mf8922d873b" y="149.752776"/>
     <use style="fill:#4c72b0;stroke:#ffffff;stroke-width:0.75;" x="270.330497" xlink:href="#mf8922d873b" y="147.704026"/>
     <use style="fill:#4c72b0;stroke:#ffffff;stroke-width:0.75;" x="273.308841" xlink:href="#mf8922d873b" y="145.831135"/>
     <use style="fill:#4c72b0;stroke:#ffffff;stroke-width:0.75;" x="276.287185" xlink:href="#mf8922d873b" y="142.648099"/>
     <use style="fill:#4c72b0;stroke:#ffffff;stroke-width:0.75;" x="279.265529" xlink:href="#mf8922d873b" y="144.283582"/>
     <use style="fill:#4c72b0;stroke:#ffffff;stroke-width:0.75;" x="282.243873" xlink:href="#mf8922d873b" y="144.529783"/>
     <use style="fill:#4c72b0;stroke:#ffffff;stroke-width:0.75;" x="297.135592" xlink:href="#mf8922d873b" y="142.243625"/>
     <use style="fill:#4c72b0;stroke:#ffffff;stroke-width:0.75;" x="341.810752" xlink:href="#mf8922d873b" y="141.900701"/>
     <use style="fill:#4c72b0;stroke:#ffffff;stroke-width:0.75;" x="416.269352" xlink:href="#mf8922d873b" y="141.865529"/>
    </g>
   </g>
   <g id="PathCollection_6">
    <g clip-path="url(#p57c29348a0)">
     <use style="fill:#dd8452;stroke:#ffffff;stroke-width:0.75;" x="268.841325" xlink:href="#m7995f83794" y="125.334846"/>
     <use style="fill:#dd8452;stroke:#ffffff;stroke-width:0.75;" x="270.330497" xlink:href="#m7995f83794" y="151.405844"/>
     <use style="fill:#dd8452;stroke:#ffffff;stroke-width:0.75;" x="273.308841" xlink:href="#m7995f83794" y="141.742429"/>
     <use style="fill:#dd8452;stroke:#ffffff;stroke-width:0.75;" x="276.287185" xlink:href="#m7995f83794" y="122.7849"/>
     <use style="fill:#dd8452;stroke:#ffffff;stroke-width:0.75;" x="282.243873" xlink:href="#m7995f83794" y="118.115861"/>
     <use style="fill:#dd8452;stroke:#ffffff;stroke-width:0.75;" x="297.135592" xlink:href="#m7995f83794" y="113.226999"/>
     <use style="fill:#dd8452;stroke:#ffffff;stroke-width:0.75;" x="312.027312" xlink:href="#m7995f83794" y="111.125492"/>
     <use style="fill:#dd8452;stroke:#ffffff;stroke-width:0.75;" x="341.810752" xlink:href="#m7995f83794" y="109.410873"/>
     <use style="fill:#dd8452;stroke:#ffffff;stroke-width:0.75;" x="268.841325" xlink:href="#m7995f83794" y="159.363434"/>
     <use style="fill:#dd8452;stroke:#ffffff;stroke-width:0.75;" x="270.330497" xlink:href="#m7995f83794" y="158.923788"/>
     <use style="fill:#dd8452;stroke:#ffffff;stroke-width:0.75;" x="273.308841" xlink:href="#m7995f83794" y="156.321085"/>
     <use style="fill:#dd8452;stroke:#ffffff;stroke-width:0.75;" x="276.287185" xlink:href="#m7995f83794" y="142.445862"/>
     <use style="fill:#dd8452;stroke:#ffffff;stroke-width:0.75;" x="282.243873" xlink:href="#m7995f83794" y="154.65043"/>
     <use style="fill:#dd8452;stroke:#ffffff;stroke-width:0.75;" x="297.135592" xlink:href="#m7995f83794" y="138.049403"/>
     <use style="fill:#dd8452;stroke:#ffffff;stroke-width:0.75;" x="312.027312" xlink:href="#m7995f83794" y="137.741651"/>
     <use style="fill:#dd8452;stroke:#ffffff;stroke-width:0.75;" x="341.810752" xlink:href="#m7995f83794" y="135.833588"/>
    </g>
   </g>
   <g id="patch_6">
    <path d="M 258.152835 169.54 
L 258.152835 26.96 
" style="fill:none;stroke:#ffffff;stroke-linecap:square;stroke-linejoin:miter;stroke-width:1.25;"/>
   </g>
   <g id="patch_7">
    <path d="M 258.152835 169.54 
L 426.95775 169.54 
" style="fill:none;stroke:#ffffff;stroke-linecap:square;stroke-linejoin:miter;stroke-width:1.25;"/>
   </g>
   <g id="text_18">
    <!-- device = gpu_openvino -->
    <g style="fill:#262626;" transform="translate(280.675605 20.96)scale(0.12 -0.12)">
     <use xlink:href="#ArialMT-100"/>
     <use x="55.615234" xlink:href="#ArialMT-101"/>
     <use x="111.230469" xlink:href="#ArialMT-118"/>
     <use x="161.230469" xlink:href="#ArialMT-105"/>
     <use x="183.447266" xlink:href="#ArialMT-99"/>
     <use x="233.447266" xlink:href="#ArialMT-101"/>
     <use x="289.0625" xlink:href="#ArialMT-32"/>
     <use x="316.845703" xlink:href="#ArialMT-61"/>
     <use x="375.244141" xlink:href="#ArialMT-32"/>
     <use x="403.027344" xlink:href="#ArialMT-103"/>
     <use x="458.642578" xlink:href="#ArialMT-112"/>
     <use x="514.257812" xlink:href="#ArialMT-117"/>
     <use x="569.873047" xlink:href="#ArialMT-95"/>
     <use x="625.488281" xlink:href="#ArialMT-111"/>
     <use x="681.103516" xlink:href="#ArialMT-112"/>
     <use x="736.71875" xlink:href="#ArialMT-101"/>
     <use x="792.333984" xlink:href="#ArialMT-110"/>
     <use x="847.949219" xlink:href="#ArialMT-118"/>
     <use x="897.949219" xlink:href="#ArialMT-105"/>
     <use x="920.166016" xlink:href="#ArialMT-110"/>
     <use x="975.78125" xlink:href="#ArialMT-111"/>
    </g>
   </g>
  </g>
  <g id="legend_1">
   <g id="text_19">
    <!-- machine -->
    <defs>
     <path d="M 6.59375 0 
L 6.59375 51.859375 
L 14.453125 51.859375 
L 14.453125 44.578125 
Q 16.890625 48.390625 20.9375 50.703125 
Q 25 53.03125 30.171875 53.03125 
Q 35.9375 53.03125 39.625 50.640625 
Q 43.3125 48.25 44.828125 43.953125 
Q 50.984375 53.03125 60.84375 53.03125 
Q 68.5625 53.03125 72.703125 48.75 
Q 76.859375 44.484375 76.859375 35.59375 
L 76.859375 0 
L 68.109375 0 
L 68.109375 32.671875 
Q 68.109375 37.9375 67.25 40.25 
Q 66.40625 42.578125 64.15625 43.984375 
Q 61.921875 45.40625 58.890625 45.40625 
Q 53.421875 45.40625 49.796875 41.765625 
Q 46.1875 38.140625 46.1875 30.125 
L 46.1875 0 
L 37.40625 0 
L 37.40625 33.6875 
Q 37.40625 39.546875 35.25 42.46875 
Q 33.109375 45.40625 28.21875 45.40625 
Q 24.515625 45.40625 21.359375 43.453125 
Q 18.21875 41.5 16.796875 37.734375 
Q 15.375 33.984375 15.375 26.90625 
L 15.375 0 
z
" id="ArialMT-109"/>
    </defs>
    <g style="fill:#262626;" transform="translate(443.443297 79.517172)scale(0.102 -0.102)">
     <use xlink:href="#ArialMT-109"/>
     <use x="83.300781" xlink:href="#ArialMT-97"/>
     <use x="138.916016" xlink:href="#ArialMT-99"/>
     <use x="188.916016" xlink:href="#ArialMT-104"/>
     <use x="244.53125" xlink:href="#ArialMT-105"/>
     <use x="266.748047" xlink:href="#ArialMT-110"/>
     <use x="322.363281" xlink:href="#ArialMT-101"/>
    </g>
   </g>
   <g id="PathCollection_7">
    <g>
     <use style="fill:#4c72b0;stroke:#ffffff;stroke-width:0.75;" x="442.112813" xlink:href="#mf8922d873b" y="92.030516"/>
    </g>
   </g>
   <g id="text_20">
    <!-- i7 -->
    <g style="fill:#262626;" transform="translate(461.912813 94.918016)scale(0.11 -0.11)">
     <use xlink:href="#ArialMT-105"/>
     <use x="22.216797" xlink:href="#ArialMT-55"/>
    </g>
   </g>
   <g id="PathCollection_8">
    <g>
     <use style="fill:#dd8452;stroke:#ffffff;stroke-width:0.75;" x="442.112813" xlink:href="#m7995f83794" y="107.590359"/>
    </g>
   </g>
   <g id="text_21">
    <!-- i5 -->
    <g style="fill:#262626;" transform="translate(461.912813 110.477859)scale(0.11 -0.11)">
     <use xlink:href="#ArialMT-105"/>
     <use x="22.216797" xlink:href="#ArialMT-53"/>
    </g>
   </g>
   <g id="PathCollection_9">
    <g>
     <use style="fill:#55a868;stroke:#ffffff;stroke-width:0.75;" x="442.112813" xlink:href="#ma651d4b9e9" y="123.150203"/>
    </g>
   </g>
   <g id="text_22">
    <!-- 6212U -->
    <defs>
     <path d="M 49.75 54.046875 
L 41.015625 53.375 
Q 39.84375 58.546875 37.703125 60.890625 
Q 34.125 64.65625 28.90625 64.65625 
Q 24.703125 64.65625 21.53125 62.3125 
Q 17.390625 59.28125 14.984375 53.46875 
Q 12.59375 47.65625 12.5 36.921875 
Q 15.671875 41.75 20.265625 44.09375 
Q 24.859375 46.4375 29.890625 46.4375 
Q 38.671875 46.4375 44.84375 39.96875 
Q 51.03125 33.5 51.03125 23.25 
Q 51.03125 16.5 48.125 10.71875 
Q 45.21875 4.9375 40.140625 1.859375 
Q 35.0625 -1.21875 28.609375 -1.21875 
Q 17.625 -1.21875 10.6875 6.859375 
Q 3.765625 14.9375 3.765625 33.5 
Q 3.765625 54.25 11.421875 63.671875 
Q 18.109375 71.875 29.4375 71.875 
Q 37.890625 71.875 43.28125 67.140625 
Q 48.6875 62.40625 49.75 54.046875 
z
M 13.875 23.1875 
Q 13.875 18.65625 15.796875 14.5 
Q 17.71875 10.359375 21.1875 8.171875 
Q 24.65625 6 28.46875 6 
Q 34.03125 6 38.03125 10.484375 
Q 42.046875 14.984375 42.046875 22.703125 
Q 42.046875 30.125 38.078125 34.390625 
Q 34.125 38.671875 28.125 38.671875 
Q 22.171875 38.671875 18.015625 34.390625 
Q 13.875 30.125 13.875 23.1875 
z
" id="ArialMT-54"/>
     <path d="M 54.6875 71.578125 
L 64.15625 71.578125 
L 64.15625 30.21875 
Q 64.15625 19.4375 61.71875 13.078125 
Q 59.28125 6.734375 52.90625 2.75 
Q 46.53125 -1.21875 36.1875 -1.21875 
Q 26.125 -1.21875 19.71875 2.25 
Q 13.328125 5.71875 10.59375 12.28125 
Q 7.859375 18.84375 7.859375 30.21875 
L 7.859375 71.578125 
L 17.328125 71.578125 
L 17.328125 30.28125 
Q 17.328125 20.953125 19.0625 16.53125 
Q 20.796875 12.109375 25.015625 9.71875 
Q 29.25 7.328125 35.359375 7.328125 
Q 45.796875 7.328125 50.234375 12.0625 
Q 54.6875 16.796875 54.6875 30.28125 
z
" id="ArialMT-85"/>
    </defs>
    <g style="fill:#262626;" transform="translate(461.912813 126.037703)scale(0.11 -0.11)">
     <use xlink:href="#ArialMT-54"/>
     <use x="55.615234" xlink:href="#ArialMT-50"/>
     <use x="111.230469" xlink:href="#ArialMT-49"/>
     <use x="166.845703" xlink:href="#ArialMT-50"/>
     <use x="222.460938" xlink:href="#ArialMT-85"/>
    </g>
   </g>
   <g id="PathCollection_10">
    <g>
     <use style="fill:#c44e52;stroke:#ffffff;stroke-width:0.75;" x="442.112813" xlink:href="#mb01df04657" y="138.710047"/>
    </g>
   </g>
   <g id="text_23">
    <!-- 6338N -->
    <defs>
     <path d="M 4.203125 18.890625 
L 12.984375 20.0625 
Q 14.5 12.59375 18.140625 9.296875 
Q 21.78125 6 27 6 
Q 33.203125 6 37.46875 10.296875 
Q 41.75 14.59375 41.75 20.953125 
Q 41.75 27 37.796875 30.921875 
Q 33.84375 34.859375 27.734375 34.859375 
Q 25.25 34.859375 21.53125 33.890625 
L 22.515625 41.609375 
Q 23.390625 41.5 23.921875 41.5 
Q 29.546875 41.5 34.03125 44.421875 
Q 38.53125 47.359375 38.53125 53.46875 
Q 38.53125 58.296875 35.25 61.46875 
Q 31.984375 64.65625 26.8125 64.65625 
Q 21.6875 64.65625 18.265625 61.421875 
Q 14.84375 58.203125 13.875 51.765625 
L 5.078125 53.328125 
Q 6.6875 62.15625 12.390625 67.015625 
Q 18.109375 71.875 26.609375 71.875 
Q 32.46875 71.875 37.390625 69.359375 
Q 42.328125 66.84375 44.9375 62.5 
Q 47.5625 58.15625 47.5625 53.265625 
Q 47.5625 48.640625 45.0625 44.828125 
Q 42.578125 41.015625 37.703125 38.765625 
Q 44.046875 37.3125 47.5625 32.6875 
Q 51.078125 28.078125 51.078125 21.140625 
Q 51.078125 11.765625 44.234375 5.25 
Q 37.40625 -1.265625 26.953125 -1.265625 
Q 17.53125 -1.265625 11.296875 4.34375 
Q 5.078125 9.96875 4.203125 18.890625 
z
" id="ArialMT-51"/>
     <path d="M 17.671875 38.8125 
Q 12.203125 40.828125 9.5625 44.53125 
Q 6.9375 48.25 6.9375 53.421875 
Q 6.9375 61.234375 12.546875 66.546875 
Q 18.171875 71.875 27.484375 71.875 
Q 36.859375 71.875 42.578125 66.421875 
Q 48.296875 60.984375 48.296875 53.171875 
Q 48.296875 48.1875 45.671875 44.5 
Q 43.0625 40.828125 37.75 38.8125 
Q 44.34375 36.671875 47.78125 31.875 
Q 51.21875 27.09375 51.21875 20.453125 
Q 51.21875 11.28125 44.71875 5.03125 
Q 38.234375 -1.21875 27.640625 -1.21875 
Q 17.046875 -1.21875 10.546875 5.046875 
Q 4.046875 11.328125 4.046875 20.703125 
Q 4.046875 27.6875 7.59375 32.390625 
Q 11.140625 37.109375 17.671875 38.8125 
z
M 15.921875 53.71875 
Q 15.921875 48.640625 19.1875 45.40625 
Q 22.46875 42.1875 27.6875 42.1875 
Q 32.765625 42.1875 36.015625 45.375 
Q 39.265625 48.578125 39.265625 53.21875 
Q 39.265625 58.0625 35.90625 61.359375 
Q 32.5625 64.65625 27.59375 64.65625 
Q 22.5625 64.65625 19.234375 61.421875 
Q 15.921875 58.203125 15.921875 53.71875 
z
M 13.09375 20.65625 
Q 13.09375 16.890625 14.875 13.375 
Q 16.65625 9.859375 20.171875 7.921875 
Q 23.6875 6 27.734375 6 
Q 34.03125 6 38.125 10.046875 
Q 42.234375 14.109375 42.234375 20.359375 
Q 42.234375 26.703125 38.015625 30.859375 
Q 33.796875 35.015625 27.4375 35.015625 
Q 21.234375 35.015625 17.15625 30.90625 
Q 13.09375 26.8125 13.09375 20.65625 
z
" id="ArialMT-56"/>
     <path d="M 7.625 0 
L 7.625 71.578125 
L 17.328125 71.578125 
L 54.9375 15.375 
L 54.9375 71.578125 
L 64.015625 71.578125 
L 64.015625 0 
L 54.296875 0 
L 16.703125 56.25 
L 16.703125 0 
z
" id="ArialMT-78"/>
    </defs>
    <g style="fill:#262626;" transform="translate(461.912813 141.597547)scale(0.11 -0.11)">
     <use xlink:href="#ArialMT-54"/>
     <use x="55.615234" xlink:href="#ArialMT-51"/>
     <use x="111.230469" xlink:href="#ArialMT-51"/>
     <use x="166.845703" xlink:href="#ArialMT-56"/>
     <use x="222.460938" xlink:href="#ArialMT-78"/>
    </g>
   </g>
  </g>
 </g>
 <defs>
  <clipPath id="pb6df24ee86">
   <rect height="142.58" width="168.804915" x="64.057438" y="26.96"/>
  </clipPath>
  <clipPath id="p57c29348a0">
   <rect height="142.58" width="168.804915" x="258.152835" y="26.96"/>
  </clipPath>
 </defs>
</svg>
